<svg width="1097" height="804" viewBox="0 0 1097 804" fill="none" xmlns="http://www.w3.org/2000/svg">
<g clip-path="url(#clip0_353_23)">
<rect x="368.47" y="158.75" width="171.401" height="83.8659" rx="19.25" fill="#467061" stroke="#292C33" stroke-width="1.5"/>
<path d="M22.4702 178C22.4702 167.368 31.0887 158.75 41.7202 158.75H174.621C185.252 158.75 193.871 167.369 193.871 178V223.366C193.871 233.997 185.252 242.616 174.621 242.616H41.7201C31.0887 242.616 22.4702 233.997 22.4702 223.366V178Z" fill="#467061" stroke="#292C33" stroke-width="1.5"/>
<rect x="195.47" y="0.75" width="171.401" height="83.8659" rx="19.25" fill="#467061" stroke="#292C33" stroke-width="1.5"/>
<rect x="368.47" y="351.75" width="171.401" height="83.8659" rx="19.25" fill="#467061" stroke="#292C33" stroke-width="1.5"/>
<rect x="255.47" y="532.75" width="171.401" height="83.8659" rx="19.25" fill="#467061" stroke="#292C33" stroke-width="1.5"/>
<rect x="471.47" y="533.75" width="171.401" height="83.8659" rx="19.25" fill="#467061" stroke="#292C33" stroke-width="1.5"/>
<rect x="722.47" y="533.75" width="171.401" height="83.8659" rx="19.25" fill="#467061" stroke="#292C33" stroke-width="1.5"/>
<rect x="247.47" y="713.75" width="171.401" height="83.8659" rx="19.25" fill="#467061" stroke="#292C33" stroke-width="1.5"/>
<rect x="576.47" y="713.75" width="171.401" height="83.8659" rx="19.25" fill="#467061" stroke="#292C33" stroke-width="1.5"/>
<rect x="904.47" y="719.75" width="171.401" height="83.8659" rx="19.25" fill="#467061" stroke="#292C33" stroke-width="1.5"/>
<path d="M229.392 37.84C229.392 40.384 228.736 42.416 227.424 43.936C226.128 45.44 224.368 46.192 222.144 46.192C219.952 46.192 218.192 45.432 216.864 43.912C215.536 42.392 214.872 40.368 214.872 37.84C214.872 35.296 215.52 33.272 216.816 31.768C218.128 30.264 219.896 29.512 222.12 29.512C224.392 29.512 226.168 30.264 227.448 31.768C228.744 33.256 229.392 35.28 229.392 37.84ZM216.912 37.84C216.912 39.84 217.384 41.424 218.328 42.592C219.288 43.76 220.56 44.344 222.144 44.344C223.792 44.344 225.064 43.768 225.96 42.616C226.872 41.464 227.328 39.872 227.328 37.84C227.328 35.808 226.872 34.216 225.96 33.064C225.048 31.912 223.768 31.336 222.12 31.336C220.488 31.336 219.208 31.92 218.28 33.088C217.368 34.24 216.912 35.824 216.912 37.84ZM242.837 46H240.941V38.128C240.941 37.232 240.709 36.552 240.245 36.088C239.797 35.608 239.205 35.368 238.469 35.368C237.557 35.368 236.765 35.72 236.093 36.424C235.437 37.128 235.109 38.104 235.109 39.352V46H233.237V33.832H235.109V35.944C235.829 34.424 237.109 33.664 238.949 33.664C240.133 33.664 241.077 34.024 241.781 34.744C242.485 35.464 242.837 36.424 242.837 37.624V46ZM249.126 46H247.23V29.032H249.126V35.656C250.006 34.312 251.238 33.64 252.822 33.64C254.358 33.64 255.614 34.232 256.59 35.416C257.566 36.584 258.054 38.12 258.054 40.024C258.054 41.736 257.59 43.192 256.662 44.392C255.75 45.592 254.486 46.192 252.87 46.192C251.238 46.192 249.99 45.528 249.126 44.2V46ZM249.126 39.832C249.126 41.448 249.47 42.624 250.158 43.36C250.862 44.096 251.71 44.464 252.702 44.464C253.678 44.464 254.486 44.056 255.126 43.24C255.766 42.424 256.086 41.36 256.086 40.048C256.086 38.544 255.75 37.392 255.078 36.592C254.422 35.776 253.59 35.368 252.582 35.368C251.718 35.368 250.926 35.728 250.206 36.448C249.486 37.168 249.126 38.296 249.126 39.832ZM272.509 39.952C272.509 41.76 271.997 43.256 270.973 44.44C269.949 45.624 268.541 46.216 266.749 46.216C265.005 46.216 263.621 45.632 262.597 44.464C261.589 43.28 261.085 41.792 261.085 40C261.085 38.192 261.605 36.688 262.645 35.488C263.701 34.272 265.069 33.664 266.749 33.664C268.589 33.664 270.005 34.256 270.997 35.44C272.005 36.624 272.509 38.128 272.509 39.952ZM263.053 39.976C263.053 41.24 263.389 42.32 264.061 43.216C264.733 44.096 265.629 44.536 266.749 44.536C267.965 44.536 268.901 44.104 269.557 43.24C270.213 42.36 270.541 41.272 270.541 39.976C270.541 38.632 270.229 37.528 269.605 36.664C268.981 35.784 268.029 35.344 266.749 35.344C265.597 35.344 264.693 35.792 264.037 36.688C263.381 37.584 263.053 38.68 263.053 39.976ZM279.962 44.536C280.826 44.536 281.514 44.296 282.026 43.816C282.538 43.32 282.794 42.696 282.794 41.944V40.384H280.682C279.658 40.384 278.89 40.584 278.378 40.984C277.866 41.384 277.61 41.888 277.61 42.496C277.61 43.104 277.81 43.6 278.21 43.984C278.61 44.352 279.194 44.536 279.962 44.536ZM282.818 44.56C282.194 45.6 281.058 46.12 279.41 46.12C278.274 46.12 277.354 45.784 276.65 45.112C275.962 44.44 275.618 43.592 275.618 42.568C275.618 41.4 276.058 40.496 276.938 39.856C277.834 39.2 279.05 38.872 280.586 38.872H282.794V38.248C282.794 37.288 282.578 36.568 282.146 36.088C281.714 35.592 280.986 35.344 279.962 35.344C278.666 35.344 277.514 35.688 276.506 36.376V34.48C277.418 33.92 278.618 33.64 280.106 33.64C283.162 33.64 284.69 35.192 284.69 38.296V46H282.818V44.56ZM290.886 46H288.99L289.014 33.832H290.886V35.968C291.526 34.464 292.63 33.712 294.198 33.712C294.486 33.712 294.71 33.728 294.87 33.76V35.632C294.534 35.52 294.19 35.464 293.838 35.464C292.99 35.464 292.286 35.856 291.726 36.64C291.166 37.424 290.886 38.328 290.886 39.352V46ZM299.05 40.048C299.05 41.36 299.37 42.424 300.01 43.24C300.65 44.056 301.458 44.464 302.434 44.464C303.426 44.464 304.266 44.096 304.954 43.36C305.658 42.624 306.01 41.448 306.01 39.832C306.01 38.296 305.65 37.168 304.93 36.448C304.21 35.728 303.418 35.368 302.554 35.368C301.546 35.368 300.706 35.776 300.034 36.592C299.378 37.392 299.05 38.544 299.05 40.048ZM307.906 46H306.01V44.2C305.146 45.528 303.898 46.192 302.266 46.192C300.65 46.192 299.378 45.592 298.45 44.392C297.538 43.192 297.082 41.736 297.082 40.024C297.082 38.12 297.57 36.584 298.546 35.416C299.522 34.232 300.778 33.64 302.314 33.64C303.898 33.64 305.13 34.32 306.01 35.68V29.032H307.906V46ZM314.372 46H312.476V33.832H314.372V46ZM314.3 29.128C314.54 29.368 314.66 29.664 314.66 30.016C314.66 30.368 314.54 30.664 314.3 30.904C314.06 31.128 313.764 31.24 313.412 31.24C313.06 31.24 312.764 31.128 312.524 30.904C312.3 30.664 312.188 30.368 312.188 30.016C312.188 29.664 312.3 29.368 312.524 29.128C312.764 28.888 313.06 28.768 313.412 28.768C313.764 28.768 314.06 28.888 314.3 29.128ZM328.541 46H326.645V38.128C326.645 37.232 326.413 36.552 325.949 36.088C325.501 35.608 324.909 35.368 324.173 35.368C323.261 35.368 322.469 35.72 321.797 36.424C321.141 37.128 320.813 38.104 320.813 39.352V46H318.941V33.832H320.813V35.944C321.533 34.424 322.813 33.664 324.653 33.664C325.837 33.664 326.781 34.024 327.485 34.744C328.189 35.464 328.541 36.424 328.541 37.624V46ZM342.678 45.016C342.678 46.872 342.166 48.264 341.142 49.192C340.118 50.136 338.798 50.608 337.182 50.608C335.71 50.608 334.454 50.36 333.414 49.864V47.968C334.438 48.56 335.638 48.856 337.014 48.856C338.182 48.856 339.102 48.544 339.774 47.92C340.446 47.296 340.782 46.32 340.782 44.992V43.624C339.982 45 338.79 45.688 337.206 45.688C335.814 45.688 334.622 45.176 333.63 44.152C332.654 43.128 332.166 41.704 332.166 39.88C332.166 38.072 332.622 36.584 333.534 35.416C334.446 34.248 335.638 33.664 337.11 33.664C338.774 33.664 339.998 34.392 340.782 35.848V33.832H342.678V45.016ZM334.134 39.832C334.134 41.192 334.47 42.232 335.142 42.952C335.814 43.656 336.574 44.008 337.422 44.008C338.302 44.008 339.078 43.672 339.75 43C340.438 42.312 340.782 41.296 340.782 39.952C340.782 38.4 340.454 37.248 339.798 36.496C339.142 35.744 338.382 35.368 337.518 35.368C336.478 35.368 335.654 35.784 335.046 36.616C334.438 37.432 334.134 38.504 334.134 39.832Z" fill="white"/>
<path d="M57.1602 192.184C56.1682 192.856 54.8082 193.192 53.0802 193.192C50.6482 193.192 48.6722 192.448 47.1522 190.96C45.6322 189.456 44.8722 187.416 44.8722 184.84C44.8722 182.408 45.6402 180.432 47.1762 178.912C48.7282 177.376 50.6722 176.608 53.0082 176.608C54.6882 176.608 56.0562 176.896 57.1122 177.472V179.464C56.4082 179.096 55.7762 178.832 55.2162 178.672C54.6562 178.512 53.9202 178.432 53.0082 178.432C51.2642 178.432 49.8082 179.024 48.6402 180.208C47.4882 181.392 46.9122 182.936 46.9122 184.84C46.9122 186.824 47.4882 188.408 48.6402 189.592C49.7922 190.776 51.3202 191.368 53.2242 191.368C54.7602 191.368 56.0722 190.96 57.1602 190.144V192.184ZM62.7417 193H60.8457L60.8697 180.832H62.7417V182.968C63.3817 181.464 64.4857 180.712 66.0537 180.712C66.3417 180.712 66.5657 180.728 66.7257 180.76V182.632C66.3897 182.52 66.0457 182.464 65.6937 182.464C64.8457 182.464 64.1417 182.856 63.5817 183.64C63.0217 184.424 62.7417 185.328 62.7417 186.352V193ZM78.5378 192.376C77.5938 192.872 76.4418 193.12 75.0818 193.12C73.2418 193.12 71.7538 192.56 70.6178 191.44C69.4978 190.304 68.9378 188.808 68.9378 186.952C68.9378 185.016 69.4418 183.488 70.4498 182.368C71.4578 181.248 72.7538 180.688 74.3378 180.688C75.8578 180.688 77.0658 181.176 77.9618 182.152C78.8578 183.128 79.3058 184.512 79.3058 186.304C79.3058 186.816 79.2658 187.288 79.1858 187.72H70.8818C71.0258 188.92 71.4818 189.84 72.2498 190.48C73.0178 191.12 74.0258 191.44 75.2738 191.44C76.6338 191.44 77.7218 191.16 78.5378 190.6V192.376ZM74.3378 182.344C73.4258 182.344 72.6498 182.672 72.0098 183.328C71.3698 183.984 70.9938 184.92 70.8818 186.136H77.4098V185.656C77.4098 184.648 77.1378 183.848 76.5938 183.256C76.0498 182.648 75.2978 182.344 74.3378 182.344ZM86.8768 191.536C87.7408 191.536 88.4288 191.296 88.9408 190.816C89.4528 190.32 89.7088 189.696 89.7088 188.944V187.384H87.5968C86.5728 187.384 85.8048 187.584 85.2928 187.984C84.7808 188.384 84.5248 188.888 84.5248 189.496C84.5248 190.104 84.7248 190.6 85.1248 190.984C85.5248 191.352 86.1088 191.536 86.8768 191.536ZM89.7328 191.56C89.1088 192.6 87.9728 193.12 86.3248 193.12C85.1888 193.12 84.2688 192.784 83.5648 192.112C82.8768 191.44 82.5328 190.592 82.5328 189.568C82.5328 188.4 82.9728 187.496 83.8528 186.856C84.7488 186.2 85.9648 185.872 87.5008 185.872H89.7088V185.248C89.7088 184.288 89.4928 183.568 89.0608 183.088C88.6288 182.592 87.9008 182.344 86.8768 182.344C85.5808 182.344 84.4288 182.688 83.4208 183.376V181.48C84.3328 180.92 85.5328 180.64 87.0208 180.64C90.0768 180.64 91.6048 182.192 91.6048 185.296V193H89.7328V191.56ZM102.025 192.688C101.497 192.976 100.905 193.12 100.249 193.12C97.8493 193.12 96.6493 191.896 96.6493 189.448V182.368H94.7053V180.832H96.6493V177.808H98.5453V180.832H101.905V182.368H98.5453V189.496C98.5453 190.792 99.1533 191.44 100.369 191.44C100.993 191.44 101.545 191.256 102.025 190.888V192.688ZM114.629 192.376C113.685 192.872 112.533 193.12 111.173 193.12C109.333 193.12 107.845 192.56 106.709 191.44C105.589 190.304 105.029 188.808 105.029 186.952C105.029 185.016 105.533 183.488 106.541 182.368C107.549 181.248 108.845 180.688 110.429 180.688C111.949 180.688 113.157 181.176 114.053 182.152C114.949 183.128 115.397 184.512 115.397 186.304C115.397 186.816 115.357 187.288 115.277 187.72H106.973C107.117 188.92 107.573 189.84 108.341 190.48C109.109 191.12 110.117 191.44 111.365 191.44C112.725 191.44 113.813 191.16 114.629 190.6V192.376ZM110.429 182.344C109.517 182.344 108.741 182.672 108.101 183.328C107.461 183.984 107.085 184.92 106.973 186.136H113.501V185.656C113.501 184.648 113.229 183.848 112.685 183.256C112.141 182.648 111.389 182.344 110.429 182.344ZM129.787 191.536C130.651 191.536 131.339 191.296 131.851 190.816C132.363 190.32 132.619 189.696 132.619 188.944V187.384H130.507C129.483 187.384 128.715 187.584 128.203 187.984C127.691 188.384 127.435 188.888 127.435 189.496C127.435 190.104 127.635 190.6 128.035 190.984C128.435 191.352 129.019 191.536 129.787 191.536ZM132.643 191.56C132.019 192.6 130.883 193.12 129.235 193.12C128.099 193.12 127.179 192.784 126.475 192.112C125.787 191.44 125.443 190.592 125.443 189.568C125.443 188.4 125.883 187.496 126.763 186.856C127.659 186.2 128.875 185.872 130.411 185.872H132.619V185.248C132.619 184.288 132.403 183.568 131.971 183.088C131.539 182.592 130.811 182.344 129.787 182.344C128.491 182.344 127.339 182.688 126.331 183.376V181.48C127.243 180.92 128.443 180.64 129.931 180.64C132.987 180.64 134.515 182.192 134.515 185.296V193H132.643V191.56ZM148.44 193H146.544V185.128C146.544 184.232 146.312 183.552 145.848 183.088C145.4 182.608 144.808 182.368 144.072 182.368C143.16 182.368 142.368 182.72 141.696 183.424C141.04 184.128 140.712 185.104 140.712 186.352V193H138.84V180.832H140.712V182.944C141.432 181.424 142.712 180.664 144.552 180.664C145.736 180.664 146.68 181.024 147.384 181.744C148.088 182.464 148.44 183.424 148.44 184.624V193ZM49.1922 219.536C50.0562 219.536 50.7442 219.296 51.2562 218.816C51.7682 218.32 52.0242 217.696 52.0242 216.944V215.384H49.9122C48.8882 215.384 48.1202 215.584 47.6082 215.984C47.0962 216.384 46.8402 216.888 46.8402 217.496C46.8402 218.104 47.0402 218.6 47.4402 218.984C47.8402 219.352 48.4242 219.536 49.1922 219.536ZM52.0482 219.56C51.4242 220.6 50.2882 221.12 48.6402 221.12C47.5042 221.12 46.5842 220.784 45.8802 220.112C45.1922 219.44 44.8482 218.592 44.8482 217.568C44.8482 216.4 45.2882 215.496 46.1682 214.856C47.0642 214.2 48.2802 213.872 49.8162 213.872H52.0242V213.248C52.0242 212.288 51.8082 211.568 51.3762 211.088C50.9442 210.592 50.2162 210.344 49.1922 210.344C47.8962 210.344 46.7442 210.688 45.7362 211.376V209.48C46.6482 208.92 47.8482 208.64 49.3362 208.64C52.3922 208.64 53.9202 210.192 53.9202 213.296V221H52.0482V219.56ZM66.6207 220.568C65.8527 221.032 64.9087 221.264 63.7887 221.264C61.8687 221.264 60.3407 220.656 59.2047 219.44C58.0847 218.208 57.5247 216.712 57.5247 214.952C57.5247 213.224 58.0847 211.736 59.2047 210.488C60.3407 209.24 61.8847 208.616 63.8367 208.616C64.8767 208.616 65.8047 208.84 66.6207 209.288V211.088C65.8847 210.592 65.0207 210.344 64.0287 210.344C62.6527 210.344 61.5487 210.792 60.7167 211.688C59.9007 212.568 59.4927 213.664 59.4927 214.976C59.5087 216.288 59.9087 217.384 60.6927 218.264C61.4767 219.128 62.5887 219.56 64.0287 219.56C64.9567 219.56 65.8207 219.296 66.6207 218.768V220.568ZM78.8775 220.568C78.1095 221.032 77.1655 221.264 76.0455 221.264C74.1255 221.264 72.5975 220.656 71.4615 219.44C70.3415 218.208 69.7815 216.712 69.7815 214.952C69.7815 213.224 70.3415 211.736 71.4615 210.488C72.5975 209.24 74.1415 208.616 76.0935 208.616C77.1335 208.616 78.0615 208.84 78.8775 209.288V211.088C78.1415 210.592 77.2775 210.344 76.2855 210.344C74.9095 210.344 73.8055 210.792 72.9735 211.688C72.1575 212.568 71.7495 213.664 71.7495 214.976C71.7655 216.288 72.1655 217.384 72.9495 218.264C73.7335 219.128 74.8455 219.56 76.2855 219.56C77.2135 219.56 78.0775 219.296 78.8775 218.768V220.568ZM93.4624 214.952C93.4624 216.76 92.9504 218.256 91.9264 219.44C90.9024 220.624 89.4944 221.216 87.7024 221.216C85.9584 221.216 84.5744 220.632 83.5504 219.464C82.5424 218.28 82.0384 216.792 82.0384 215C82.0384 213.192 82.5584 211.688 83.5984 210.488C84.6544 209.272 86.0224 208.664 87.7024 208.664C89.5424 208.664 90.9584 209.256 91.9504 210.44C92.9584 211.624 93.4624 213.128 93.4624 214.952ZM84.0064 214.976C84.0064 216.24 84.3424 217.32 85.0144 218.216C85.6864 219.096 86.5824 219.536 87.7024 219.536C88.9184 219.536 89.8544 219.104 90.5104 218.24C91.1664 217.36 91.4944 216.272 91.4944 214.976C91.4944 213.632 91.1824 212.528 90.5584 211.664C89.9344 210.784 88.9824 210.344 87.7024 210.344C86.5504 210.344 85.6464 210.792 84.9904 211.688C84.3344 212.584 84.0064 213.68 84.0064 214.976ZM106.651 221H104.755V218.888C104.115 220.392 102.843 221.144 100.939 221.144C99.739 221.144 98.787 220.792 98.083 220.088C97.395 219.368 97.051 218.408 97.051 217.208V208.832H98.947V216.728C98.947 217.608 99.171 218.28 99.619 218.744C100.067 219.208 100.675 219.44 101.443 219.44C102.451 219.44 103.251 219.088 103.843 218.384C104.451 217.68 104.755 216.728 104.755 215.528V208.832H106.651V221ZM120.716 221H118.82V213.128C118.82 212.232 118.588 211.552 118.124 211.088C117.676 210.608 117.084 210.368 116.348 210.368C115.436 210.368 114.644 210.72 113.972 211.424C113.316 212.128 112.988 213.104 112.988 214.352V221H111.116V208.832H112.988V210.944C113.708 209.424 114.988 208.664 116.828 208.664C118.012 208.664 118.956 209.024 119.66 209.744C120.364 210.464 120.716 211.424 120.716 212.624V221ZM131.133 220.688C130.605 220.976 130.013 221.12 129.357 221.12C126.957 221.12 125.757 219.896 125.757 217.448V210.368H123.813V208.832H125.757V205.808H127.653V208.832H131.013V210.368H127.653V217.496C127.653 218.792 128.261 219.44 129.477 219.44C130.101 219.44 130.653 219.256 131.133 218.888V220.688Z" fill="white"/>
<path d="M433.4 204H424.568V187.824H426.512V202.248H433.4V204ZM447.574 197.952C447.574 199.76 447.062 201.256 446.038 202.44C445.014 203.624 443.606 204.216 441.814 204.216C440.07 204.216 438.686 203.632 437.662 202.464C436.654 201.28 436.15 199.792 436.15 198C436.15 196.192 436.67 194.688 437.71 193.488C438.766 192.272 440.134 191.664 441.814 191.664C443.654 191.664 445.07 192.256 446.062 193.44C447.07 194.624 447.574 196.128 447.574 197.952ZM438.118 197.976C438.118 199.24 438.454 200.32 439.126 201.216C439.798 202.096 440.694 202.536 441.814 202.536C443.03 202.536 443.966 202.104 444.622 201.24C445.278 200.36 445.606 199.272 445.606 197.976C445.606 196.632 445.294 195.528 444.67 194.664C444.046 193.784 443.094 193.344 441.814 193.344C440.662 193.344 439.758 193.792 439.102 194.688C438.446 195.584 438.118 196.68 438.118 197.976ZM461.122 203.016C461.122 204.872 460.61 206.264 459.586 207.192C458.562 208.136 457.242 208.608 455.626 208.608C454.154 208.608 452.898 208.36 451.858 207.864V205.968C452.882 206.56 454.082 206.856 455.458 206.856C456.626 206.856 457.546 206.544 458.218 205.92C458.89 205.296 459.226 204.32 459.226 202.992V201.624C458.426 203 457.234 203.688 455.65 203.688C454.258 203.688 453.066 203.176 452.074 202.152C451.098 201.128 450.61 199.704 450.61 197.88C450.61 196.072 451.066 194.584 451.978 193.416C452.89 192.248 454.082 191.664 455.554 191.664C457.218 191.664 458.442 192.392 459.226 193.848V191.832H461.122V203.016ZM452.578 197.832C452.578 199.192 452.914 200.232 453.586 200.952C454.258 201.656 455.018 202.008 455.866 202.008C456.746 202.008 457.522 201.672 458.194 201C458.882 200.312 459.226 199.296 459.226 197.952C459.226 196.4 458.898 195.248 458.242 194.496C457.586 193.744 456.826 193.368 455.962 193.368C454.922 193.368 454.098 193.784 453.49 194.616C452.882 195.432 452.578 196.504 452.578 197.832ZM474.25 204H472.354V191.832H474.25V204ZM474.178 187.128C474.418 187.368 474.538 187.664 474.538 188.016C474.538 188.368 474.418 188.664 474.178 188.904C473.938 189.128 473.642 189.24 473.29 189.24C472.938 189.24 472.642 189.128 472.402 188.904C472.178 188.664 472.066 188.368 472.066 188.016C472.066 187.664 472.178 187.368 472.402 187.128C472.642 186.888 472.938 186.768 473.29 186.768C473.642 186.768 473.938 186.888 474.178 187.128ZM488.419 204H486.523V196.128C486.523 195.232 486.291 194.552 485.827 194.088C485.379 193.608 484.787 193.368 484.051 193.368C483.139 193.368 482.347 193.72 481.675 194.424C481.019 195.128 480.691 196.104 480.691 197.352V204H478.819V191.832H480.691V193.944C481.411 192.424 482.691 191.664 484.531 191.664C485.715 191.664 486.659 192.024 487.363 192.744C488.067 193.464 488.419 194.424 488.419 195.624V204Z" fill="white"/>
<path d="M394.304 404H392.36V396.68H384.512V404H382.568V387.824H384.512V394.928H392.36V387.824H394.304V404ZM409.558 397.952C409.558 399.76 409.046 401.256 408.022 402.44C406.998 403.624 405.59 404.216 403.798 404.216C402.054 404.216 400.67 403.632 399.646 402.464C398.638 401.28 398.134 399.792 398.134 398C398.134 396.192 398.654 394.688 399.694 393.488C400.75 392.272 402.118 391.664 403.798 391.664C405.638 391.664 407.054 392.256 408.046 393.44C409.054 394.624 409.558 396.128 409.558 397.952ZM400.102 397.976C400.102 399.24 400.438 400.32 401.11 401.216C401.782 402.096 402.678 402.536 403.798 402.536C405.014 402.536 405.95 402.104 406.606 401.24C407.262 400.36 407.59 399.272 407.59 397.976C407.59 396.632 407.278 395.528 406.654 394.664C406.03 393.784 405.078 393.344 403.798 393.344C402.646 393.344 401.742 393.792 401.086 394.688C400.43 395.584 400.102 396.68 400.102 397.976ZM429.563 404H427.667V396.128C427.667 394.288 426.891 393.368 425.339 393.368C424.571 393.368 423.883 393.72 423.275 394.424C422.667 395.112 422.363 396.088 422.363 397.352V404H420.467V396.128C420.467 394.288 419.691 393.368 418.139 393.368C417.371 393.368 416.683 393.72 416.075 394.424C415.467 395.112 415.163 396.088 415.163 397.352V404H413.291V391.832H415.163V393.8C415.835 392.376 416.979 391.664 418.595 391.664C420.467 391.664 421.651 392.456 422.147 394.04C422.499 393.272 422.987 392.688 423.611 392.288C424.251 391.872 424.963 391.664 425.747 391.664C427.011 391.664 427.963 392.024 428.603 392.744C429.243 393.464 429.563 394.432 429.563 395.648V404ZM442.771 403.376C441.827 403.872 440.675 404.12 439.315 404.12C437.475 404.12 435.987 403.56 434.851 402.44C433.731 401.304 433.171 399.808 433.171 397.952C433.171 396.016 433.675 394.488 434.683 393.368C435.691 392.248 436.987 391.688 438.571 391.688C440.091 391.688 441.299 392.176 442.195 393.152C443.091 394.128 443.539 395.512 443.539 397.304C443.539 397.816 443.499 398.288 443.419 398.72H435.115C435.259 399.92 435.715 400.84 436.483 401.48C437.251 402.12 438.259 402.44 439.507 402.44C440.867 402.44 441.955 402.16 442.771 401.6V403.376ZM438.571 393.344C437.659 393.344 436.883 393.672 436.243 394.328C435.603 394.984 435.227 395.92 435.115 397.136H441.643V396.656C441.643 395.648 441.371 394.848 440.827 394.256C440.283 393.648 439.531 393.344 438.571 393.344ZM461.53 400.76C461.53 401.8 461.162 402.624 460.426 403.232C459.706 403.84 458.714 404.144 457.45 404.144C455.978 404.144 454.786 403.896 453.874 403.4V401.552C454.946 402.192 456.098 402.512 457.33 402.512C458.066 402.512 458.626 402.368 459.01 402.08C459.394 401.792 459.586 401.4 459.586 400.904C459.586 400.328 459.37 399.88 458.938 399.56C458.522 399.24 457.818 398.88 456.826 398.48C455.914 398.128 455.178 397.688 454.618 397.16C454.074 396.632 453.802 395.92 453.802 395.024C453.802 394.016 454.178 393.216 454.93 392.624C455.698 392.016 456.65 391.712 457.786 391.712C459.05 391.712 460.066 391.888 460.834 392.24V394.04C460.098 393.592 459.09 393.368 457.81 393.368C457.17 393.368 456.658 393.52 456.274 393.824C455.906 394.112 455.722 394.488 455.722 394.952C455.722 395.24 455.778 395.496 455.89 395.72C456.002 395.928 456.218 396.136 456.538 396.344C456.874 396.552 457.114 396.696 457.258 396.776C457.418 396.84 457.754 396.984 458.266 397.208C459.29 397.624 460.09 398.096 460.666 398.624C461.242 399.152 461.53 399.864 461.53 400.76ZM473.94 403.376C472.996 403.872 471.844 404.12 470.484 404.12C468.644 404.12 467.156 403.56 466.02 402.44C464.9 401.304 464.34 399.808 464.34 397.952C464.34 396.016 464.844 394.488 465.852 393.368C466.86 392.248 468.156 391.688 469.74 391.688C471.26 391.688 472.468 392.176 473.364 393.152C474.26 394.128 474.708 395.512 474.708 397.304C474.708 397.816 474.668 398.288 474.588 398.72H466.284C466.428 399.92 466.884 400.84 467.652 401.48C468.42 402.12 469.428 402.44 470.676 402.44C472.036 402.44 473.124 402.16 473.94 401.6V403.376ZM469.74 393.344C468.828 393.344 468.052 393.672 467.412 394.328C466.772 394.984 466.396 395.92 466.284 397.136H472.812V396.656C472.812 395.648 472.54 394.848 471.996 394.256C471.452 393.648 470.7 393.344 469.74 393.344ZM482.279 402.536C483.143 402.536 483.831 402.296 484.343 401.816C484.855 401.32 485.111 400.696 485.111 399.944V398.384H482.999C481.975 398.384 481.207 398.584 480.695 398.984C480.183 399.384 479.927 399.888 479.927 400.496C479.927 401.104 480.127 401.6 480.527 401.984C480.927 402.352 481.511 402.536 482.279 402.536ZM485.135 402.56C484.511 403.6 483.375 404.12 481.727 404.12C480.591 404.12 479.671 403.784 478.967 403.112C478.279 402.44 477.935 401.592 477.935 400.568C477.935 399.4 478.375 398.496 479.255 397.856C480.151 397.2 481.367 396.872 482.903 396.872H485.111V396.248C485.111 395.288 484.895 394.568 484.463 394.088C484.031 393.592 483.303 393.344 482.279 393.344C480.983 393.344 479.831 393.688 478.823 394.376V392.48C479.735 391.92 480.935 391.64 482.423 391.64C485.479 391.64 487.007 393.192 487.007 396.296V404H485.135V402.56ZM493.204 404H491.308L491.332 391.832H493.204V393.968C493.844 392.464 494.948 391.712 496.516 391.712C496.804 391.712 497.028 391.728 497.188 391.76V393.632C496.852 393.52 496.508 393.464 496.156 393.464C495.308 393.464 494.604 393.856 494.044 394.64C493.484 395.424 493.204 396.328 493.204 397.352V404ZM508.496 403.568C507.728 404.032 506.784 404.264 505.664 404.264C503.744 404.264 502.216 403.656 501.08 402.44C499.96 401.208 499.4 399.712 499.4 397.952C499.4 396.224 499.96 394.736 501.08 393.488C502.216 392.24 503.76 391.616 505.712 391.616C506.752 391.616 507.68 391.84 508.496 392.288V394.088C507.76 393.592 506.896 393.344 505.904 393.344C504.528 393.344 503.424 393.792 502.592 394.688C501.776 395.568 501.368 396.664 501.368 397.976C501.384 399.288 501.784 400.384 502.568 401.264C503.352 402.128 504.464 402.56 505.904 402.56C506.832 402.56 507.696 402.296 508.496 401.768V403.568ZM521.977 404H520.081V396.128C520.081 395.248 519.849 394.568 519.385 394.088C518.937 393.608 518.345 393.368 517.609 393.368C516.713 393.368 515.929 393.712 515.257 394.4C514.585 395.088 514.249 396.072 514.249 397.352V404H512.377V387.032H514.249V393.944C514.969 392.424 516.249 391.664 518.089 391.664C519.257 391.664 520.193 392.024 520.897 392.744C521.617 393.464 521.977 394.44 521.977 395.672V404Z" fill="white"/>
<rect x="22.4702" y="533.75" width="171.401" height="83.8659" rx="19.25" fill="#467061" stroke="#292C33" stroke-width="1.5"/>
<path d="M66.4642 579H61.5682V562.824H66.3682C68.7522 562.824 70.7042 563.568 72.2242 565.056C73.7602 566.528 74.5282 568.44 74.5282 570.792C74.5282 573.128 73.8162 575.08 72.3922 576.648C70.9842 578.216 69.0082 579 66.4642 579ZM66.3442 564.552H63.5362V577.296H66.4402C68.4402 577.296 69.9522 576.68 70.9762 575.448C72.0002 574.2 72.5122 572.648 72.5122 570.792C72.5122 569.032 71.9362 567.552 70.7842 566.352C69.6482 565.152 68.1682 564.552 66.3442 564.552ZM80.2913 579H78.3953V566.832H80.2913V579ZM80.2193 562.128C80.4593 562.368 80.5793 562.664 80.5793 563.016C80.5793 563.368 80.4593 563.664 80.2193 563.904C79.9793 564.128 79.6833 564.24 79.3313 564.24C78.9793 564.24 78.6833 564.128 78.4433 563.904C78.2193 563.664 78.1073 563.368 78.1073 563.016C78.1073 562.664 78.2193 562.368 78.4433 562.128C78.6833 561.888 78.9793 561.768 79.3313 561.768C79.6833 561.768 79.9793 561.888 80.2193 562.128ZM92.1809 575.76C92.1809 576.8 91.8129 577.624 91.0769 578.232C90.3569 578.84 89.3649 579.144 88.1009 579.144C86.6289 579.144 85.4369 578.896 84.5249 578.4V576.552C85.5969 577.192 86.7489 577.512 87.9809 577.512C88.7169 577.512 89.2769 577.368 89.6609 577.08C90.0449 576.792 90.2369 576.4 90.2369 575.904C90.2369 575.328 90.0209 574.88 89.5889 574.56C89.1729 574.24 88.4689 573.88 87.4769 573.48C86.5649 573.128 85.8289 572.688 85.2689 572.16C84.7249 571.632 84.4529 570.92 84.4529 570.024C84.4529 569.016 84.8289 568.216 85.5809 567.624C86.3489 567.016 87.3009 566.712 88.4369 566.712C89.7009 566.712 90.7169 566.888 91.4849 567.24V569.04C90.7489 568.592 89.7409 568.368 88.4609 568.368C87.8209 568.368 87.3089 568.52 86.9249 568.824C86.5569 569.112 86.3729 569.488 86.3729 569.952C86.3729 570.24 86.4289 570.496 86.5409 570.72C86.6529 570.928 86.8689 571.136 87.1889 571.344C87.5249 571.552 87.7649 571.696 87.9089 571.776C88.0689 571.84 88.4049 571.984 88.9169 572.208C89.9409 572.624 90.7409 573.096 91.3169 573.624C91.8929 574.152 92.1809 574.864 92.1809 575.76ZM104.088 578.568C103.32 579.032 102.376 579.264 101.256 579.264C99.3355 579.264 97.8075 578.656 96.6715 577.44C95.5515 576.208 94.9915 574.712 94.9915 572.952C94.9915 571.224 95.5515 569.736 96.6715 568.488C97.8075 567.24 99.3515 566.616 101.304 566.616C102.344 566.616 103.272 566.84 104.088 567.288V569.088C103.352 568.592 102.488 568.344 101.496 568.344C100.12 568.344 99.0155 568.792 98.1835 569.688C97.3675 570.568 96.9595 571.664 96.9595 572.976C96.9755 574.288 97.3755 575.384 98.1595 576.264C98.9435 577.128 100.056 577.56 101.496 577.56C102.424 577.56 103.288 577.296 104.088 576.768V578.568ZM118.672 572.952C118.672 574.76 118.16 576.256 117.136 577.44C116.112 578.624 114.704 579.216 112.912 579.216C111.168 579.216 109.784 578.632 108.76 577.464C107.752 576.28 107.248 574.792 107.248 573C107.248 571.192 107.768 569.688 108.808 568.488C109.864 567.272 111.232 566.664 112.912 566.664C114.752 566.664 116.168 567.256 117.16 568.44C118.168 569.624 118.672 571.128 118.672 572.952ZM109.216 572.976C109.216 574.24 109.552 575.32 110.224 576.216C110.896 577.096 111.792 577.536 112.912 577.536C114.128 577.536 115.064 577.104 115.72 576.24C116.376 575.36 116.704 574.272 116.704 572.976C116.704 571.632 116.392 570.528 115.768 569.664C115.144 568.784 114.192 568.344 112.912 568.344C111.76 568.344 110.856 568.792 110.2 569.688C109.544 570.584 109.216 571.68 109.216 572.976ZM127.829 579H125.501L121.253 566.832H123.221L124.901 571.968L126.677 577.512C126.821 576.824 127.421 574.976 128.477 571.968L130.205 566.832H132.173L127.829 579ZM144.362 578.376C143.418 578.872 142.266 579.12 140.906 579.12C139.066 579.12 137.578 578.56 136.442 577.44C135.322 576.304 134.762 574.808 134.762 572.952C134.762 571.016 135.266 569.488 136.274 568.368C137.282 567.248 138.578 566.688 140.162 566.688C141.682 566.688 142.89 567.176 143.786 568.152C144.682 569.128 145.13 570.512 145.13 572.304C145.13 572.816 145.09 573.288 145.01 573.72H136.706C136.85 574.92 137.306 575.84 138.074 576.48C138.842 577.12 139.85 577.44 141.098 577.44C142.458 577.44 143.546 577.16 144.362 576.6V578.376ZM140.162 568.344C139.25 568.344 138.474 568.672 137.834 569.328C137.194 569.984 136.818 570.92 136.706 572.136H143.234V571.656C143.234 570.648 142.962 569.848 142.418 569.256C141.874 568.648 141.122 568.344 140.162 568.344ZM150.853 579H148.957L148.981 566.832H150.853V568.968C151.493 567.464 152.597 566.712 154.165 566.712C154.453 566.712 154.677 566.728 154.837 566.76V568.632C154.501 568.52 154.157 568.464 153.805 568.464C152.957 568.464 152.253 568.856 151.693 569.64C151.133 570.424 150.853 571.328 150.853 572.352V579Z" fill="white"/>
<path d="M281.744 566.504H279.512V572.96H281.96C283.064 572.96 283.904 572.664 284.48 572.072C285.072 571.464 285.368 570.688 285.368 569.744C285.368 567.584 284.16 566.504 281.744 566.504ZM281.84 574.616H279.512V581H277.568V564.824H281.624C283.496 564.824 284.912 565.264 285.872 566.144C286.848 567.024 287.336 568.24 287.336 569.792C287.304 570.912 287.008 571.864 286.448 572.648C285.888 573.432 285.096 573.984 284.072 574.304L288.32 581H285.992L282.032 574.616H281.84ZM300.461 580.376C299.517 580.872 298.365 581.12 297.005 581.12C295.165 581.12 293.677 580.56 292.541 579.44C291.421 578.304 290.861 576.808 290.861 574.952C290.861 573.016 291.365 571.488 292.373 570.368C293.381 569.248 294.677 568.688 296.261 568.688C297.781 568.688 298.989 569.176 299.885 570.152C300.781 571.128 301.229 572.512 301.229 574.304C301.229 574.816 301.189 575.288 301.109 575.72H292.805C292.949 576.92 293.405 577.84 294.173 578.48C294.941 579.12 295.949 579.44 297.197 579.44C298.557 579.44 299.645 579.16 300.461 578.6V580.376ZM296.261 570.344C295.349 570.344 294.573 570.672 293.933 571.328C293.293 571.984 292.917 572.92 292.805 574.136H299.333V573.656C299.333 572.648 299.061 571.848 298.517 571.256C297.973 570.648 297.221 570.344 296.261 570.344ZM313.456 580.568C312.688 581.032 311.744 581.264 310.624 581.264C308.704 581.264 307.176 580.656 306.04 579.44C304.92 578.208 304.36 576.712 304.36 574.952C304.36 573.224 304.92 571.736 306.04 570.488C307.176 569.24 308.72 568.616 310.672 568.616C311.712 568.616 312.64 568.84 313.456 569.288V571.088C312.72 570.592 311.856 570.344 310.864 570.344C309.488 570.344 308.384 570.792 307.552 571.688C306.736 572.568 306.328 573.664 306.328 574.976C306.344 576.288 306.744 577.384 307.528 578.264C308.312 579.128 309.424 579.56 310.864 579.56C311.792 579.56 312.656 579.296 313.456 578.768V580.568ZM319.329 581H317.433V568.832H319.329V581ZM319.257 564.128C319.497 564.368 319.617 564.664 319.617 565.016C319.617 565.368 319.497 565.664 319.257 565.904C319.017 566.128 318.721 566.24 318.369 566.24C318.017 566.24 317.721 566.128 317.481 565.904C317.257 565.664 317.145 565.368 317.145 565.016C317.145 564.664 317.257 564.368 317.481 564.128C317.721 563.888 318.017 563.768 318.369 563.768C318.721 563.768 319.017 563.888 319.257 564.128ZM325.77 585.728H323.898V568.832H325.77V570.68C326.618 569.32 327.874 568.64 329.538 568.64C331.154 568.64 332.418 569.232 333.33 570.416C334.258 571.584 334.722 573.048 334.722 574.808C334.722 576.68 334.234 578.216 333.258 579.416C332.298 580.6 331.042 581.192 329.49 581.192C327.89 581.192 326.65 580.512 325.77 579.152V585.728ZM325.77 574.928C325.77 576.48 326.13 577.624 326.85 578.36C327.57 579.096 328.37 579.464 329.25 579.464C330.274 579.464 331.114 579.064 331.77 578.264C332.426 577.448 332.754 576.296 332.754 574.808C332.754 573.48 332.434 572.408 331.794 571.592C331.154 570.776 330.346 570.368 329.37 570.368C328.394 570.368 327.546 570.728 326.826 571.448C326.122 572.152 325.77 573.312 325.77 574.928ZM347.355 580.376C346.411 580.872 345.259 581.12 343.899 581.12C342.059 581.12 340.571 580.56 339.435 579.44C338.315 578.304 337.755 576.808 337.755 574.952C337.755 573.016 338.259 571.488 339.267 570.368C340.275 569.248 341.571 568.688 343.155 568.688C344.675 568.688 345.883 569.176 346.779 570.152C347.675 571.128 348.123 572.512 348.123 574.304C348.123 574.816 348.083 575.288 348.003 575.72H339.699C339.843 576.92 340.299 577.84 341.067 578.48C341.835 579.12 342.843 579.44 344.091 579.44C345.451 579.44 346.539 579.16 347.355 578.6V580.376ZM343.155 570.344C342.243 570.344 341.467 570.672 340.827 571.328C340.187 571.984 339.811 572.92 339.699 574.136H346.227V573.656C346.227 572.648 345.955 571.848 345.411 571.256C344.867 570.648 344.115 570.344 343.155 570.344ZM360.786 581H358.89V564.032H360.786V581ZM367.347 581H365.451V568.832H367.347V581ZM367.275 564.128C367.515 564.368 367.635 564.664 367.635 565.016C367.635 565.368 367.515 565.664 367.275 565.904C367.035 566.128 366.739 566.24 366.387 566.24C366.035 566.24 365.739 566.128 365.499 565.904C365.275 565.664 365.163 565.368 365.163 565.016C365.163 564.664 365.275 564.368 365.499 564.128C365.739 563.888 366.035 563.768 366.387 563.768C366.739 563.768 367.035 563.888 367.275 564.128ZM379.237 577.76C379.237 578.8 378.869 579.624 378.133 580.232C377.413 580.84 376.421 581.144 375.157 581.144C373.685 581.144 372.493 580.896 371.581 580.4V578.552C372.653 579.192 373.805 579.512 375.037 579.512C375.773 579.512 376.333 579.368 376.717 579.08C377.101 578.792 377.293 578.4 377.293 577.904C377.293 577.328 377.077 576.88 376.645 576.56C376.229 576.24 375.525 575.88 374.533 575.48C373.621 575.128 372.885 574.688 372.325 574.16C371.781 573.632 371.509 572.92 371.509 572.024C371.509 571.016 371.885 570.216 372.637 569.624C373.405 569.016 374.357 568.712 375.493 568.712C376.757 568.712 377.773 568.888 378.541 569.24V571.04C377.805 570.592 376.797 570.368 375.517 570.368C374.877 570.368 374.365 570.52 373.981 570.824C373.613 571.112 373.429 571.488 373.429 571.952C373.429 572.24 373.485 572.496 373.597 572.72C373.709 572.928 373.925 573.136 374.245 573.344C374.581 573.552 374.821 573.696 374.965 573.776C375.125 573.84 375.461 573.984 375.973 574.208C376.997 574.624 377.797 575.096 378.373 575.624C378.949 576.152 379.237 576.864 379.237 577.76ZM388.863 580.688C388.335 580.976 387.743 581.12 387.087 581.12C384.687 581.12 383.487 579.896 383.487 577.448V570.368H381.543V568.832H383.487V565.808H385.383V568.832H388.743V570.368H385.383V577.496C385.383 578.792 385.991 579.44 387.207 579.44C387.831 579.44 388.383 579.256 388.863 578.888V580.688Z" fill="white"/>
<path d="M509.928 566.704C509.928 568.128 509.44 569.232 508.464 570.016C507.488 570.784 506.232 571.168 504.696 571.168C503 571.168 501.56 570.824 500.376 570.136V568.048C501.544 568.928 502.968 569.368 504.648 569.368C505.656 569.368 506.448 569.144 507.024 568.696C507.6 568.248 507.888 567.6 507.888 566.752C507.888 566.4 507.816 566.088 507.672 565.816C507.544 565.528 507.32 565.272 507 565.048C506.696 564.808 506.4 564.616 506.112 564.472C505.84 564.312 505.464 564.12 504.984 563.896C504.888 563.848 504.744 563.784 504.552 563.704C503.864 563.4 503.336 563.152 502.968 562.96C502.616 562.768 502.192 562.488 501.696 562.12C501.216 561.736 500.864 561.296 500.64 560.8C500.416 560.304 500.304 559.728 500.304 559.072C500.304 557.696 500.792 556.624 501.768 555.856C502.76 555.072 504 554.68 505.488 554.68C506.88 554.68 508.064 554.928 509.04 555.424V557.464C508.064 556.824 506.896 556.504 505.536 556.504C504.56 556.504 503.784 556.736 503.208 557.2C502.632 557.648 502.344 558.24 502.344 558.976C502.344 559.36 502.416 559.704 502.56 560.008C502.72 560.312 502.992 560.6 503.376 560.872C503.76 561.128 504.088 561.328 504.36 561.472C504.632 561.6 505.056 561.792 505.632 562.048C506.176 562.288 506.592 562.48 506.88 562.624C507.168 562.752 507.536 562.968 507.984 563.272C508.448 563.56 508.792 563.848 509.016 564.136C509.256 564.408 509.464 564.776 509.64 565.24C509.832 565.688 509.928 566.176 509.928 566.704ZM522.394 570.568C521.626 571.032 520.682 571.264 519.562 571.264C517.642 571.264 516.114 570.656 514.978 569.44C513.858 568.208 513.298 566.712 513.298 564.952C513.298 563.224 513.858 561.736 514.978 560.488C516.114 559.24 517.658 558.616 519.61 558.616C520.65 558.616 521.578 558.84 522.394 559.288V561.088C521.658 560.592 520.794 560.344 519.802 560.344C518.426 560.344 517.322 560.792 516.49 561.688C515.674 562.568 515.266 563.664 515.266 564.976C515.282 566.288 515.682 567.384 516.466 568.264C517.25 569.128 518.362 569.56 519.802 569.56C520.73 569.56 521.594 569.296 522.394 568.768V570.568ZM529.995 569.536C530.859 569.536 531.547 569.296 532.059 568.816C532.571 568.32 532.827 567.696 532.827 566.944V565.384H530.715C529.691 565.384 528.923 565.584 528.411 565.984C527.899 566.384 527.643 566.888 527.643 567.496C527.643 568.104 527.843 568.6 528.243 568.984C528.643 569.352 529.227 569.536 529.995 569.536ZM532.851 569.56C532.227 570.6 531.091 571.12 529.443 571.12C528.307 571.12 527.387 570.784 526.683 570.112C525.995 569.44 525.651 568.592 525.651 567.568C525.651 566.4 526.091 565.496 526.971 564.856C527.867 564.2 529.083 563.872 530.619 563.872H532.827V563.248C532.827 562.288 532.611 561.568 532.179 561.088C531.747 560.592 531.019 560.344 529.995 560.344C528.699 560.344 527.547 560.688 526.539 561.376V559.48C527.451 558.92 528.651 558.64 530.139 558.64C533.195 558.64 534.723 560.192 534.723 563.296V571H532.851V569.56ZM548.648 571H546.752V563.128C546.752 562.232 546.52 561.552 546.056 561.088C545.608 560.608 545.016 560.368 544.28 560.368C543.368 560.368 542.576 560.72 541.904 561.424C541.248 562.128 540.92 563.104 540.92 564.352V571H539.048V558.832H540.92V560.944C541.64 559.424 542.92 558.664 544.76 558.664C545.944 558.664 546.888 559.024 547.592 559.744C548.296 560.464 548.648 561.424 548.648 562.624V571ZM502.464 599H500.568V586.832H502.464V599ZM502.392 582.128C502.632 582.368 502.752 582.664 502.752 583.016C502.752 583.368 502.632 583.664 502.392 583.904C502.152 584.128 501.856 584.24 501.504 584.24C501.152 584.24 500.856 584.128 500.616 583.904C500.392 583.664 500.28 583.368 500.28 583.016C500.28 582.664 500.392 582.368 500.616 582.128C500.856 581.888 501.152 581.768 501.504 581.768C501.856 581.768 502.152 581.888 502.392 582.128ZM516.634 599H514.738V591.128C514.738 590.232 514.506 589.552 514.042 589.088C513.594 588.608 513.002 588.368 512.266 588.368C511.354 588.368 510.562 588.72 509.89 589.424C509.234 590.128 508.906 591.104 508.906 592.352V599H507.034V586.832H508.906V588.944C509.626 587.424 510.906 586.664 512.746 586.664C513.93 586.664 514.874 587.024 515.578 587.744C516.282 588.464 516.634 589.424 516.634 590.624V599ZM530.771 598.016C530.771 599.872 530.259 601.264 529.235 602.192C528.211 603.136 526.891 603.608 525.275 603.608C523.803 603.608 522.547 603.36 521.507 602.864V600.968C522.531 601.56 523.731 601.856 525.107 601.856C526.275 601.856 527.195 601.544 527.867 600.92C528.539 600.296 528.875 599.32 528.875 597.992V596.624C528.075 598 526.883 598.688 525.299 598.688C523.907 598.688 522.715 598.176 521.723 597.152C520.747 596.128 520.259 594.704 520.259 592.88C520.259 591.072 520.715 589.584 521.627 588.416C522.539 587.248 523.731 586.664 525.203 586.664C526.867 586.664 528.091 587.392 528.875 588.848V586.832H530.771V598.016ZM522.227 592.832C522.227 594.192 522.563 595.232 523.235 595.952C523.907 596.656 524.667 597.008 525.515 597.008C526.395 597.008 527.171 596.672 527.843 596C528.531 595.312 528.875 594.296 528.875 592.952C528.875 591.4 528.547 590.248 527.891 589.496C527.235 588.744 526.475 588.368 525.611 588.368C524.571 588.368 523.747 588.784 523.139 589.616C522.531 590.432 522.227 591.504 522.227 592.832ZM536.959 599H535.063L535.087 586.832H536.959V588.968C537.599 587.464 538.703 586.712 540.271 586.712C540.559 586.712 540.783 586.728 540.943 586.76V588.632C540.607 588.52 540.263 588.464 539.911 588.464C539.063 588.464 538.359 588.856 537.799 589.64C537.239 590.424 536.959 591.328 536.959 592.352V599ZM552.755 598.376C551.811 598.872 550.659 599.12 549.299 599.12C547.459 599.12 545.971 598.56 544.835 597.44C543.715 596.304 543.155 594.808 543.155 592.952C543.155 591.016 543.659 589.488 544.667 588.368C545.675 587.248 546.971 586.688 548.555 586.688C550.075 586.688 551.283 587.176 552.179 588.152C553.075 589.128 553.523 590.512 553.523 592.304C553.523 592.816 553.483 593.288 553.403 593.72H545.099C545.243 594.92 545.699 595.84 546.467 596.48C547.235 597.12 548.243 597.44 549.491 597.44C550.851 597.44 551.939 597.16 552.755 596.6V598.376ZM548.555 588.344C547.643 588.344 546.867 588.672 546.227 589.328C545.587 589.984 545.211 590.92 545.099 592.136H551.627V591.656C551.627 590.648 551.355 589.848 550.811 589.256C550.267 588.648 549.515 588.344 548.555 588.344ZM558.622 593.048C558.622 594.36 558.942 595.424 559.582 596.24C560.222 597.056 561.03 597.464 562.006 597.464C562.998 597.464 563.838 597.096 564.526 596.36C565.23 595.624 565.582 594.448 565.582 592.832C565.582 591.296 565.222 590.168 564.502 589.448C563.782 588.728 562.99 588.368 562.126 588.368C561.118 588.368 560.278 588.776 559.606 589.592C558.95 590.392 558.622 591.544 558.622 593.048ZM567.478 599H565.582V597.2C564.718 598.528 563.47 599.192 561.838 599.192C560.222 599.192 558.95 598.592 558.022 597.392C557.11 596.192 556.654 594.736 556.654 593.024C556.654 591.12 557.142 589.584 558.118 588.416C559.094 587.232 560.35 586.64 561.886 586.64C563.47 586.64 564.702 587.32 565.582 588.68V582.032H567.478V599ZM573.943 599H572.047V586.832H573.943V599ZM573.871 582.128C574.111 582.368 574.231 582.664 574.231 583.016C574.231 583.368 574.111 583.664 573.871 583.904C573.631 584.128 573.335 584.24 572.983 584.24C572.631 584.24 572.335 584.128 572.095 583.904C571.871 583.664 571.759 583.368 571.759 583.016C571.759 582.664 571.871 582.368 572.095 582.128C572.335 581.888 572.631 581.768 572.983 581.768C573.335 581.768 573.631 581.888 573.871 582.128ZM587.393 598.376C586.449 598.872 585.297 599.12 583.937 599.12C582.097 599.12 580.609 598.56 579.473 597.44C578.353 596.304 577.793 594.808 577.793 592.952C577.793 591.016 578.297 589.488 579.305 588.368C580.313 587.248 581.609 586.688 583.193 586.688C584.713 586.688 585.921 587.176 586.817 588.152C587.713 589.128 588.161 590.512 588.161 592.304C588.161 592.816 588.121 593.288 588.041 593.72H579.737C579.881 594.92 580.337 595.84 581.105 596.48C581.873 597.12 582.881 597.44 584.129 597.44C585.489 597.44 586.577 597.16 587.393 596.6V598.376ZM583.193 588.344C582.281 588.344 581.505 588.672 580.865 589.328C580.225 589.984 579.849 590.92 579.737 592.136H586.265V591.656C586.265 590.648 585.993 589.848 585.449 589.256C584.905 588.648 584.153 588.344 583.193 588.344ZM601.612 599H599.716V591.128C599.716 590.232 599.484 589.552 599.02 589.088C598.572 588.608 597.98 588.368 597.244 588.368C596.332 588.368 595.54 588.72 594.868 589.424C594.212 590.128 593.884 591.104 593.884 592.352V599H592.012V586.832H593.884V588.944C594.604 587.424 595.884 586.664 597.724 586.664C598.908 586.664 599.852 587.024 600.556 587.744C601.26 588.464 601.612 589.424 601.612 590.624V599ZM612.029 598.688C611.501 598.976 610.909 599.12 610.253 599.12C607.853 599.12 606.653 597.896 606.653 595.448V588.368H604.709V586.832H606.653V583.808H608.549V586.832H611.909V588.368H608.549V595.496C608.549 596.792 609.157 597.44 610.373 597.44C610.997 597.44 611.549 597.256 612.029 596.888V598.688ZM623.072 595.76C623.072 596.8 622.704 597.624 621.968 598.232C621.248 598.84 620.256 599.144 618.992 599.144C617.52 599.144 616.328 598.896 615.416 598.4V596.552C616.488 597.192 617.64 597.512 618.872 597.512C619.608 597.512 620.168 597.368 620.552 597.08C620.936 596.792 621.128 596.4 621.128 595.904C621.128 595.328 620.912 594.88 620.48 594.56C620.064 594.24 619.36 593.88 618.368 593.48C617.456 593.128 616.72 592.688 616.16 592.16C615.616 591.632 615.344 590.92 615.344 590.024C615.344 589.016 615.72 588.216 616.472 587.624C617.24 587.016 618.192 586.712 619.328 586.712C620.592 586.712 621.608 586.888 622.376 587.24V589.04C621.64 588.592 620.632 588.368 619.352 588.368C618.712 588.368 618.2 588.52 617.816 588.824C617.448 589.112 617.264 589.488 617.264 589.952C617.264 590.24 617.32 590.496 617.432 590.72C617.544 590.928 617.76 591.136 618.08 591.344C618.416 591.552 618.656 591.696 618.8 591.776C618.96 591.84 619.296 591.984 619.808 592.208C620.832 592.624 621.632 593.096 622.208 593.624C622.784 594.152 623.072 594.864 623.072 595.76Z" fill="white"/>
<path d="M770.952 575.184L770.64 576.096H776.376L776.064 575.16L773.544 567.384C773.352 568.072 772.488 570.672 770.952 575.184ZM768.648 582H766.56L772.2 565.824H774.888L780.432 582H778.344L776.928 577.752H770.088L768.648 582ZM792.371 581.568C791.603 582.032 790.659 582.264 789.539 582.264C787.619 582.264 786.091 581.656 784.955 580.44C783.835 579.208 783.275 577.712 783.275 575.952C783.275 574.224 783.835 572.736 784.955 571.488C786.091 570.24 787.635 569.616 789.587 569.616C790.627 569.616 791.555 569.84 792.371 570.288V572.088C791.635 571.592 790.771 571.344 789.779 571.344C788.403 571.344 787.299 571.792 786.467 572.688C785.651 573.568 785.243 574.664 785.243 575.976C785.259 577.288 785.659 578.384 786.443 579.264C787.227 580.128 788.339 580.56 789.779 580.56C790.707 580.56 791.571 580.296 792.371 579.768V581.568ZM804.628 581.568C803.86 582.032 802.916 582.264 801.796 582.264C799.876 582.264 798.348 581.656 797.212 580.44C796.092 579.208 795.532 577.712 795.532 575.952C795.532 574.224 796.092 572.736 797.212 571.488C798.348 570.24 799.892 569.616 801.844 569.616C802.884 569.616 803.812 569.84 804.628 570.288V572.088C803.892 571.592 803.028 571.344 802.036 571.344C800.66 571.344 799.556 571.792 798.724 572.688C797.908 573.568 797.5 574.664 797.5 575.976C797.516 577.288 797.916 578.384 798.7 579.264C799.484 580.128 800.596 580.56 802.036 580.56C802.964 580.56 803.828 580.296 804.628 579.768V581.568ZM819.212 575.952C819.212 577.76 818.7 579.256 817.676 580.44C816.652 581.624 815.244 582.216 813.452 582.216C811.708 582.216 810.324 581.632 809.3 580.464C808.292 579.28 807.788 577.792 807.788 576C807.788 574.192 808.308 572.688 809.348 571.488C810.404 570.272 811.772 569.664 813.452 569.664C815.292 569.664 816.708 570.256 817.7 571.44C818.708 572.624 819.212 574.128 819.212 575.952ZM809.756 575.976C809.756 577.24 810.092 578.32 810.764 579.216C811.436 580.096 812.332 580.536 813.452 580.536C814.668 580.536 815.604 580.104 816.26 579.24C816.916 578.36 817.244 577.272 817.244 575.976C817.244 574.632 816.932 573.528 816.308 572.664C815.684 571.784 814.732 571.344 813.452 571.344C812.3 571.344 811.396 571.792 810.74 572.688C810.084 573.584 809.756 574.68 809.756 575.976ZM832.401 582H830.505V579.888C829.865 581.392 828.593 582.144 826.689 582.144C825.489 582.144 824.537 581.792 823.833 581.088C823.145 580.368 822.801 579.408 822.801 578.208V569.832H824.697V577.728C824.697 578.608 824.921 579.28 825.369 579.744C825.817 580.208 826.425 580.44 827.193 580.44C828.201 580.44 829.001 580.088 829.593 579.384C830.201 578.68 830.505 577.728 830.505 576.528V569.832H832.401V582ZM846.466 582H844.57V574.128C844.57 573.232 844.338 572.552 843.874 572.088C843.426 571.608 842.834 571.368 842.098 571.368C841.186 571.368 840.394 571.72 839.722 572.424C839.066 573.128 838.738 574.104 838.738 575.352V582H836.866V569.832H838.738V571.944C839.458 570.424 840.738 569.664 842.578 569.664C843.762 569.664 844.706 570.024 845.41 570.744C846.114 571.464 846.466 572.424 846.466 573.624V582ZM856.883 581.688C856.355 581.976 855.763 582.12 855.107 582.12C852.707 582.12 851.507 580.896 851.507 578.448V571.368H849.563V569.832H851.507V566.808H853.403V569.832H856.763V571.368H853.403V578.496C853.403 579.792 854.011 580.44 855.227 580.44C855.851 580.44 856.403 580.256 856.883 579.888V581.688Z" fill="white"/>
<path d="M266.744 747.504H264.512V753.96H266.96C268.064 753.96 268.904 753.664 269.48 753.072C270.072 752.464 270.368 751.688 270.368 750.744C270.368 748.584 269.16 747.504 266.744 747.504ZM266.84 755.616H264.512V762H262.568V745.824H266.624C268.496 745.824 269.912 746.264 270.872 747.144C271.848 748.024 272.336 749.24 272.336 750.792C272.304 751.912 272.008 752.864 271.448 753.648C270.888 754.432 270.096 754.984 269.072 755.304L273.32 762H270.992L267.032 755.616H266.84ZM285.461 761.376C284.517 761.872 283.365 762.12 282.005 762.12C280.165 762.12 278.677 761.56 277.541 760.44C276.421 759.304 275.861 757.808 275.861 755.952C275.861 754.016 276.365 752.488 277.373 751.368C278.381 750.248 279.677 749.688 281.261 749.688C282.781 749.688 283.989 750.176 284.885 751.152C285.781 752.128 286.229 753.512 286.229 755.304C286.229 755.816 286.189 756.288 286.109 756.72H277.805C277.949 757.92 278.405 758.84 279.173 759.48C279.941 760.12 280.949 760.44 282.197 760.44C283.557 760.44 284.645 760.16 285.461 759.6V761.376ZM281.261 751.344C280.349 751.344 279.573 751.672 278.933 752.328C278.293 752.984 277.917 753.92 277.805 755.136H284.333V754.656C284.333 753.648 284.061 752.848 283.517 752.256C282.973 751.648 282.221 751.344 281.261 751.344ZM298.456 761.568C297.688 762.032 296.744 762.264 295.624 762.264C293.704 762.264 292.176 761.656 291.04 760.44C289.92 759.208 289.36 757.712 289.36 755.952C289.36 754.224 289.92 752.736 291.04 751.488C292.176 750.24 293.72 749.616 295.672 749.616C296.712 749.616 297.64 749.84 298.456 750.288V752.088C297.72 751.592 296.856 751.344 295.864 751.344C294.488 751.344 293.384 751.792 292.552 752.688C291.736 753.568 291.328 754.664 291.328 755.976C291.344 757.288 291.744 758.384 292.528 759.264C293.312 760.128 294.424 760.56 295.864 760.56C296.792 760.56 297.656 760.296 298.456 759.768V761.568ZM304.329 762H302.433V749.832H304.329V762ZM304.257 745.128C304.497 745.368 304.617 745.664 304.617 746.016C304.617 746.368 304.497 746.664 304.257 746.904C304.017 747.128 303.721 747.24 303.369 747.24C303.017 747.24 302.721 747.128 302.481 746.904C302.257 746.664 302.145 746.368 302.145 746.016C302.145 745.664 302.257 745.368 302.481 745.128C302.721 744.888 303.017 744.768 303.369 744.768C303.721 744.768 304.017 744.888 304.257 745.128ZM310.77 766.728H308.898V749.832H310.77V751.68C311.618 750.32 312.874 749.64 314.538 749.64C316.154 749.64 317.418 750.232 318.33 751.416C319.258 752.584 319.722 754.048 319.722 755.808C319.722 757.68 319.234 759.216 318.258 760.416C317.298 761.6 316.042 762.192 314.49 762.192C312.89 762.192 311.65 761.512 310.77 760.152V766.728ZM310.77 755.928C310.77 757.48 311.13 758.624 311.85 759.36C312.57 760.096 313.37 760.464 314.25 760.464C315.274 760.464 316.114 760.064 316.77 759.264C317.426 758.448 317.754 757.296 317.754 755.808C317.754 754.48 317.434 753.408 316.794 752.592C316.154 751.776 315.346 751.368 314.37 751.368C313.394 751.368 312.546 751.728 311.826 752.448C311.122 753.152 310.77 754.312 310.77 755.928ZM332.355 761.376C331.411 761.872 330.259 762.12 328.899 762.12C327.059 762.12 325.571 761.56 324.435 760.44C323.315 759.304 322.755 757.808 322.755 755.952C322.755 754.016 323.259 752.488 324.267 751.368C325.275 750.248 326.571 749.688 328.155 749.688C329.675 749.688 330.883 750.176 331.779 751.152C332.675 752.128 333.123 753.512 333.123 755.304C333.123 755.816 333.083 756.288 333.003 756.72H324.699C324.843 757.92 325.299 758.84 326.067 759.48C326.835 760.12 327.843 760.44 329.091 760.44C330.451 760.44 331.539 760.16 332.355 759.6V761.376ZM328.155 751.344C327.243 751.344 326.467 751.672 325.827 752.328C325.187 752.984 324.811 753.92 324.699 755.136H331.227V754.656C331.227 753.648 330.955 752.848 330.411 752.256C329.867 751.648 329.115 751.344 328.155 751.344ZM345.666 766.728H343.794V749.832H345.666V751.68C346.514 750.32 347.77 749.64 349.434 749.64C351.05 749.64 352.314 750.232 353.226 751.416C354.154 752.584 354.618 754.048 354.618 755.808C354.618 757.68 354.13 759.216 353.154 760.416C352.194 761.6 350.938 762.192 349.386 762.192C347.786 762.192 346.546 761.512 345.666 760.152V766.728ZM345.666 755.928C345.666 757.48 346.026 758.624 346.746 759.36C347.466 760.096 348.266 760.464 349.146 760.464C350.17 760.464 351.01 760.064 351.666 759.264C352.322 758.448 352.65 757.296 352.65 755.808C352.65 754.48 352.33 753.408 351.69 752.592C351.05 751.776 350.242 751.368 349.266 751.368C348.29 751.368 347.442 751.728 346.722 752.448C346.018 753.152 345.666 754.312 345.666 755.928ZM362.091 760.536C362.955 760.536 363.643 760.296 364.155 759.816C364.667 759.32 364.923 758.696 364.923 757.944V756.384H362.811C361.787 756.384 361.019 756.584 360.507 756.984C359.995 757.384 359.739 757.888 359.739 758.496C359.739 759.104 359.939 759.6 360.339 759.984C360.739 760.352 361.323 760.536 362.091 760.536ZM364.947 760.56C364.323 761.6 363.187 762.12 361.539 762.12C360.403 762.12 359.483 761.784 358.779 761.112C358.091 760.44 357.747 759.592 357.747 758.568C357.747 757.4 358.187 756.496 359.067 755.856C359.963 755.2 361.179 754.872 362.715 754.872H364.923V754.248C364.923 753.288 364.707 752.568 364.275 752.088C363.843 751.592 363.115 751.344 362.091 751.344C360.795 751.344 359.643 751.688 358.635 752.376V750.48C359.547 749.92 360.747 749.64 362.235 749.64C365.291 749.64 366.819 751.192 366.819 754.296V762H364.947V760.56ZM380.959 761.016C380.959 762.872 380.447 764.264 379.423 765.192C378.399 766.136 377.079 766.608 375.463 766.608C373.991 766.608 372.735 766.36 371.695 765.864V763.968C372.719 764.56 373.919 764.856 375.295 764.856C376.463 764.856 377.383 764.544 378.055 763.92C378.727 763.296 379.063 762.32 379.063 760.992V759.624C378.263 761 377.071 761.688 375.487 761.688C374.095 761.688 372.903 761.176 371.911 760.152C370.935 759.128 370.447 757.704 370.447 755.88C370.447 754.072 370.903 752.584 371.815 751.416C372.727 750.248 373.919 749.664 375.391 749.664C377.055 749.664 378.279 750.392 379.063 751.848V749.832H380.959V761.016ZM372.415 755.832C372.415 757.192 372.751 758.232 373.423 758.952C374.095 759.656 374.855 760.008 375.703 760.008C376.583 760.008 377.359 759.672 378.031 759C378.719 758.312 379.063 757.296 379.063 755.952C379.063 754.4 378.735 753.248 378.079 752.496C377.423 751.744 376.663 751.368 375.799 751.368C374.759 751.368 373.935 751.784 373.327 752.616C372.719 753.432 372.415 754.504 372.415 755.832ZM394.155 761.376C393.211 761.872 392.059 762.12 390.699 762.12C388.859 762.12 387.371 761.56 386.235 760.44C385.115 759.304 384.555 757.808 384.555 755.952C384.555 754.016 385.059 752.488 386.067 751.368C387.075 750.248 388.371 749.688 389.955 749.688C391.475 749.688 392.683 750.176 393.579 751.152C394.475 752.128 394.923 753.512 394.923 755.304C394.923 755.816 394.883 756.288 394.803 756.72H386.499C386.643 757.92 387.099 758.84 387.867 759.48C388.635 760.12 389.643 760.44 390.891 760.44C392.251 760.44 393.339 760.16 394.155 759.6V761.376ZM389.955 751.344C389.043 751.344 388.267 751.672 387.627 752.328C386.987 752.984 386.611 753.92 386.499 755.136H393.027V754.656C393.027 753.648 392.755 752.848 392.211 752.256C391.667 751.648 390.915 751.344 389.955 751.344Z" fill="white"/>
<path d="M599.928 757.704C599.928 759.128 599.44 760.232 598.464 761.016C597.488 761.784 596.232 762.168 594.696 762.168C593 762.168 591.56 761.824 590.376 761.136V759.048C591.544 759.928 592.968 760.368 594.648 760.368C595.656 760.368 596.448 760.144 597.024 759.696C597.6 759.248 597.888 758.6 597.888 757.752C597.888 757.4 597.816 757.088 597.672 756.816C597.544 756.528 597.32 756.272 597 756.048C596.696 755.808 596.4 755.616 596.112 755.472C595.84 755.312 595.464 755.12 594.984 754.896C594.888 754.848 594.744 754.784 594.552 754.704C593.864 754.4 593.336 754.152 592.968 753.96C592.616 753.768 592.192 753.488 591.696 753.12C591.216 752.736 590.864 752.296 590.64 751.8C590.416 751.304 590.304 750.728 590.304 750.072C590.304 748.696 590.792 747.624 591.768 746.856C592.76 746.072 594 745.68 595.488 745.68C596.88 745.68 598.064 745.928 599.04 746.424V748.464C598.064 747.824 596.896 747.504 595.536 747.504C594.56 747.504 593.784 747.736 593.208 748.2C592.632 748.648 592.344 749.24 592.344 749.976C592.344 750.36 592.416 750.704 592.56 751.008C592.72 751.312 592.992 751.6 593.376 751.872C593.76 752.128 594.088 752.328 594.36 752.472C594.632 752.6 595.056 752.792 595.632 753.048C596.176 753.288 596.592 753.48 596.88 753.624C597.168 753.752 597.536 753.968 597.984 754.272C598.448 754.56 598.792 754.848 599.016 755.136C599.256 755.408 599.464 755.776 599.64 756.24C599.832 756.688 599.928 757.176 599.928 757.704ZM607.738 760.536C608.602 760.536 609.29 760.296 609.802 759.816C610.314 759.32 610.57 758.696 610.57 757.944V756.384H608.458C607.434 756.384 606.666 756.584 606.154 756.984C605.642 757.384 605.386 757.888 605.386 758.496C605.386 759.104 605.586 759.6 605.986 759.984C606.386 760.352 606.97 760.536 607.738 760.536ZM610.594 760.56C609.97 761.6 608.834 762.12 607.186 762.12C606.05 762.12 605.13 761.784 604.426 761.112C603.738 760.44 603.394 759.592 603.394 758.568C603.394 757.4 603.834 756.496 604.714 755.856C605.61 755.2 606.826 754.872 608.362 754.872H610.57V754.248C610.57 753.288 610.354 752.568 609.922 752.088C609.49 751.592 608.762 751.344 607.738 751.344C606.442 751.344 605.29 751.688 604.282 752.376V750.48C605.194 749.92 606.394 749.64 607.882 749.64C610.938 749.64 612.466 751.192 612.466 754.296V762H610.594V760.56ZM622.215 762H619.887L615.639 749.832H617.607L619.287 754.968L621.063 760.512C621.207 759.824 621.807 757.976 622.863 754.968L624.591 749.832H626.559L622.215 762ZM638.748 761.376C637.804 761.872 636.652 762.12 635.292 762.12C633.452 762.12 631.964 761.56 630.828 760.44C629.708 759.304 629.148 757.808 629.148 755.952C629.148 754.016 629.652 752.488 630.66 751.368C631.668 750.248 632.964 749.688 634.548 749.688C636.068 749.688 637.276 750.176 638.172 751.152C639.068 752.128 639.516 753.512 639.516 755.304C639.516 755.816 639.476 756.288 639.396 756.72H631.092C631.236 757.92 631.692 758.84 632.46 759.48C633.228 760.12 634.236 760.44 635.484 760.44C636.844 760.44 637.932 760.16 638.748 759.6V761.376ZM634.548 751.344C633.636 751.344 632.86 751.672 632.22 752.328C631.58 752.984 631.204 753.92 631.092 755.136H637.62V754.656C637.62 753.648 637.348 752.848 636.804 752.256C636.26 751.648 635.508 751.344 634.548 751.344ZM644.615 756.048C644.615 757.36 644.935 758.424 645.575 759.24C646.215 760.056 647.023 760.464 647.999 760.464C648.991 760.464 649.831 760.096 650.519 759.36C651.223 758.624 651.575 757.448 651.575 755.832C651.575 754.296 651.215 753.168 650.495 752.448C649.775 751.728 648.983 751.368 648.119 751.368C647.111 751.368 646.271 751.776 645.599 752.592C644.943 753.392 644.615 754.544 644.615 756.048ZM653.471 762H651.575V760.2C650.711 761.528 649.463 762.192 647.831 762.192C646.215 762.192 644.943 761.592 644.015 760.392C643.103 759.192 642.647 757.736 642.647 756.024C642.647 754.12 643.135 752.584 644.111 751.416C645.087 750.232 646.343 749.64 647.879 749.64C649.463 749.64 650.695 750.32 651.575 751.68V745.032H653.471V762ZM666.635 762H664.739L664.763 749.832H666.635V751.968C667.275 750.464 668.379 749.712 669.947 749.712C670.235 749.712 670.459 749.728 670.619 749.76V751.632C670.283 751.52 669.939 751.464 669.587 751.464C668.739 751.464 668.035 751.856 667.475 752.64C666.915 753.424 666.635 754.328 666.635 755.352V762ZM682.432 761.376C681.488 761.872 680.336 762.12 678.976 762.12C677.136 762.12 675.648 761.56 674.512 760.44C673.392 759.304 672.832 757.808 672.832 755.952C672.832 754.016 673.336 752.488 674.344 751.368C675.352 750.248 676.648 749.688 678.232 749.688C679.752 749.688 680.96 750.176 681.856 751.152C682.752 752.128 683.2 753.512 683.2 755.304C683.2 755.816 683.16 756.288 683.08 756.72H674.776C674.92 757.92 675.376 758.84 676.144 759.48C676.912 760.12 677.92 760.44 679.168 760.44C680.528 760.44 681.616 760.16 682.432 759.6V761.376ZM678.232 751.344C677.32 751.344 676.544 751.672 675.904 752.328C675.264 752.984 674.888 753.92 674.776 755.136H681.304V754.656C681.304 753.648 681.032 752.848 680.488 752.256C679.944 751.648 679.192 751.344 678.232 751.344ZM695.427 761.568C694.659 762.032 693.715 762.264 692.595 762.264C690.675 762.264 689.147 761.656 688.011 760.44C686.891 759.208 686.331 757.712 686.331 755.952C686.331 754.224 686.891 752.736 688.011 751.488C689.147 750.24 690.691 749.616 692.643 749.616C693.683 749.616 694.611 749.84 695.427 750.288V752.088C694.691 751.592 693.827 751.344 692.835 751.344C691.459 751.344 690.355 751.792 689.523 752.688C688.707 753.568 688.299 754.664 688.299 755.976C688.315 757.288 688.715 758.384 689.499 759.264C690.283 760.128 691.395 760.56 692.835 760.56C693.763 760.56 694.627 760.296 695.427 759.768V761.568ZM701.3 762H699.404V749.832H701.3V762ZM701.228 745.128C701.468 745.368 701.588 745.664 701.588 746.016C701.588 746.368 701.468 746.664 701.228 746.904C700.988 747.128 700.692 747.24 700.34 747.24C699.988 747.24 699.692 747.128 699.452 746.904C699.228 746.664 699.116 746.368 699.116 746.016C699.116 745.664 699.228 745.368 699.452 745.128C699.692 744.888 699.988 744.768 700.34 744.768C700.692 744.768 700.988 744.888 701.228 745.128ZM707.741 766.728H705.869V749.832H707.741V751.68C708.589 750.32 709.845 749.64 711.509 749.64C713.125 749.64 714.389 750.232 715.301 751.416C716.229 752.584 716.693 754.048 716.693 755.808C716.693 757.68 716.205 759.216 715.229 760.416C714.269 761.6 713.013 762.192 711.461 762.192C709.861 762.192 708.621 761.512 707.741 760.152V766.728ZM707.741 755.928C707.741 757.48 708.101 758.624 708.821 759.36C709.541 760.096 710.341 760.464 711.221 760.464C712.245 760.464 713.085 760.064 713.741 759.264C714.397 758.448 714.725 757.296 714.725 755.808C714.725 754.48 714.405 753.408 713.765 752.592C713.125 751.776 712.317 751.368 711.341 751.368C710.365 751.368 709.517 751.728 708.797 752.448C708.093 753.152 707.741 754.312 707.741 755.928ZM729.326 761.376C728.382 761.872 727.23 762.12 725.87 762.12C724.03 762.12 722.542 761.56 721.406 760.44C720.286 759.304 719.726 757.808 719.726 755.952C719.726 754.016 720.23 752.488 721.238 751.368C722.246 750.248 723.542 749.688 725.126 749.688C726.646 749.688 727.854 750.176 728.75 751.152C729.646 752.128 730.094 753.512 730.094 755.304C730.094 755.816 730.054 756.288 729.974 756.72H721.67C721.814 757.92 722.27 758.84 723.038 759.48C723.806 760.12 724.814 760.44 726.062 760.44C727.422 760.44 728.51 760.16 729.326 759.6V761.376ZM725.126 751.344C724.214 751.344 723.438 751.672 722.798 752.328C722.158 752.984 721.782 753.92 721.67 755.136H728.198V754.656C728.198 753.648 727.926 752.848 727.382 752.256C726.838 751.648 726.086 751.344 725.126 751.344ZM741.265 758.76C741.265 759.8 740.897 760.624 740.161 761.232C739.441 761.84 738.449 762.144 737.185 762.144C735.713 762.144 734.521 761.896 733.609 761.4V759.552C734.681 760.192 735.833 760.512 737.065 760.512C737.801 760.512 738.361 760.368 738.745 760.08C739.129 759.792 739.321 759.4 739.321 758.904C739.321 758.328 739.105 757.88 738.673 757.56C738.257 757.24 737.553 756.88 736.561 756.48C735.649 756.128 734.913 755.688 734.353 755.16C733.809 754.632 733.537 753.92 733.537 753.024C733.537 752.016 733.913 751.216 734.665 750.624C735.433 750.016 736.385 749.712 737.521 749.712C738.785 749.712 739.801 749.888 740.569 750.24V752.04C739.833 751.592 738.825 751.368 737.545 751.368C736.905 751.368 736.393 751.52 736.009 751.824C735.641 752.112 735.457 752.488 735.457 752.952C735.457 753.24 735.513 753.496 735.625 753.72C735.737 753.928 735.953 754.136 736.273 754.344C736.609 754.552 736.849 754.696 736.993 754.776C737.153 754.84 737.489 754.984 738.001 755.208C739.025 755.624 739.825 756.096 740.401 756.624C740.977 757.152 741.265 757.864 741.265 758.76Z" fill="white"/>
<path d="M919.008 762.048H916.512V768H914.568V751.824H918.816C920.688 751.824 922.16 752.312 923.232 753.288C924.32 754.248 924.864 755.496 924.864 757.032C924.864 758.472 924.328 759.672 923.256 760.632C922.184 761.576 920.768 762.048 919.008 762.048ZM918.84 753.48H916.512V760.392H919.008C920.224 760.392 921.176 760.08 921.864 759.456C922.552 758.816 922.896 758.008 922.896 757.032C922.896 755.944 922.544 755.08 921.84 754.44C921.136 753.8 920.136 753.48 918.84 753.48ZM930.382 768H928.486L928.51 755.832H930.382V757.968C931.022 756.464 932.126 755.712 933.694 755.712C933.982 755.712 934.206 755.728 934.366 755.76V757.632C934.03 757.52 933.686 757.464 933.334 757.464C932.486 757.464 931.782 757.856 931.222 758.64C930.662 759.424 930.382 760.328 930.382 761.352V768ZM939.29 768H937.394V755.832H939.29V768ZM939.218 751.128C939.458 751.368 939.578 751.664 939.578 752.016C939.578 752.368 939.458 752.664 939.218 752.904C938.978 753.128 938.682 753.24 938.33 753.24C937.978 753.24 937.682 753.128 937.442 752.904C937.218 752.664 937.106 752.368 937.106 752.016C937.106 751.664 937.218 751.368 937.442 751.128C937.682 750.888 937.978 750.768 938.33 750.768C938.682 750.768 938.978 750.888 939.218 751.128ZM949.284 768H946.956L942.708 755.832H944.676L946.356 760.968L948.132 766.512C948.276 765.824 948.876 763.976 949.932 760.968L951.66 755.832H953.628L949.284 768ZM960.657 766.536C961.521 766.536 962.209 766.296 962.721 765.816C963.233 765.32 963.489 764.696 963.489 763.944V762.384H961.377C960.353 762.384 959.585 762.584 959.073 762.984C958.561 763.384 958.305 763.888 958.305 764.496C958.305 765.104 958.505 765.6 958.905 765.984C959.305 766.352 959.889 766.536 960.657 766.536ZM963.513 766.56C962.889 767.6 961.753 768.12 960.105 768.12C958.969 768.12 958.049 767.784 957.345 767.112C956.657 766.44 956.313 765.592 956.313 764.568C956.313 763.4 956.753 762.496 957.633 761.856C958.529 761.2 959.745 760.872 961.281 760.872H963.489V760.248C963.489 759.288 963.273 758.568 962.841 758.088C962.409 757.592 961.681 757.344 960.657 757.344C959.361 757.344 958.209 757.688 957.201 758.376V756.48C958.113 755.92 959.313 755.64 960.801 755.64C963.857 755.64 965.385 757.192 965.385 760.296V768H963.513V766.56ZM978.086 767.568C977.318 768.032 976.374 768.264 975.254 768.264C973.334 768.264 971.806 767.656 970.67 766.44C969.55 765.208 968.99 763.712 968.99 761.952C968.99 760.224 969.55 758.736 970.67 757.488C971.806 756.24 973.35 755.616 975.302 755.616C976.342 755.616 977.27 755.84 978.086 756.288V758.088C977.35 757.592 976.486 757.344 975.494 757.344C974.118 757.344 973.014 757.792 972.182 758.688C971.366 759.568 970.958 760.664 970.958 761.976C970.974 763.288 971.374 764.384 972.158 765.264C972.942 766.128 974.054 766.56 975.494 766.56C976.422 766.56 977.286 766.296 978.086 765.768V767.568ZM987.247 767.688C986.623 769.336 985.879 770.496 985.015 771.168C984.167 771.84 983.191 772.176 982.087 772.176C981.671 772.176 981.335 772.136 981.079 772.056V770.352C981.319 770.416 981.591 770.448 981.895 770.448C983.511 770.448 984.655 769.528 985.327 767.688L980.407 755.832H982.543L984.127 759.84L986.263 765.36C986.391 764.944 987.031 763.104 988.183 759.84L989.599 755.832H991.639L987.247 767.688ZM1003.45 772.728H1001.58V755.832H1003.45V757.68C1004.3 756.32 1005.56 755.64 1007.22 755.64C1008.84 755.64 1010.1 756.232 1011.01 757.416C1011.94 758.584 1012.41 760.048 1012.41 761.808C1012.41 763.68 1011.92 765.216 1010.94 766.416C1009.98 767.6 1008.73 768.192 1007.17 768.192C1005.57 768.192 1004.33 767.512 1003.45 766.152V772.728ZM1003.45 761.928C1003.45 763.48 1003.81 764.624 1004.53 765.36C1005.25 766.096 1006.05 766.464 1006.93 766.464C1007.96 766.464 1008.8 766.064 1009.45 765.264C1010.11 764.448 1010.44 763.296 1010.44 761.808C1010.44 760.48 1010.12 759.408 1009.48 758.592C1008.84 757.776 1008.03 757.368 1007.05 757.368C1006.08 757.368 1005.23 757.728 1004.51 758.448C1003.81 759.152 1003.45 760.312 1003.45 761.928ZM1026.86 761.952C1026.86 763.76 1026.35 765.256 1025.33 766.44C1024.3 767.624 1022.9 768.216 1021.1 768.216C1019.36 768.216 1017.98 767.632 1016.95 766.464C1015.94 765.28 1015.44 763.792 1015.44 762C1015.44 760.192 1015.96 758.688 1017 757.488C1018.06 756.272 1019.42 755.664 1021.1 755.664C1022.94 755.664 1024.36 756.256 1025.35 757.44C1026.36 758.624 1026.86 760.128 1026.86 761.952ZM1017.41 761.976C1017.41 763.24 1017.74 764.32 1018.42 765.216C1019.09 766.096 1019.98 766.536 1021.1 766.536C1022.32 766.536 1023.26 766.104 1023.91 765.24C1024.57 764.36 1024.9 763.272 1024.9 761.976C1024.9 760.632 1024.58 759.528 1023.96 758.664C1023.34 757.784 1022.38 757.344 1021.1 757.344C1019.95 757.344 1019.05 757.792 1018.39 758.688C1017.74 759.584 1017.41 760.68 1017.41 761.976ZM1032.59 768H1030.69V751.032H1032.59V768ZM1039.15 768H1037.25V755.832H1039.15V768ZM1039.08 751.128C1039.32 751.368 1039.44 751.664 1039.44 752.016C1039.44 752.368 1039.32 752.664 1039.08 752.904C1038.84 753.128 1038.54 753.24 1038.19 753.24C1037.84 753.24 1037.54 753.128 1037.3 752.904C1037.08 752.664 1036.97 752.368 1036.97 752.016C1036.97 751.664 1037.08 751.368 1037.3 751.128C1037.54 750.888 1037.84 750.768 1038.19 750.768C1038.54 750.768 1038.84 750.888 1039.08 751.128ZM1052.09 767.568C1051.33 768.032 1050.38 768.264 1049.26 768.264C1047.34 768.264 1045.81 767.656 1044.68 766.44C1043.56 765.208 1043 763.712 1043 761.952C1043 760.224 1043.56 758.736 1044.68 757.488C1045.81 756.24 1047.36 755.616 1049.31 755.616C1050.35 755.616 1051.28 755.84 1052.09 756.288V758.088C1051.36 757.592 1050.49 757.344 1049.5 757.344C1048.13 757.344 1047.02 757.792 1046.19 758.688C1045.37 759.568 1044.97 760.664 1044.97 761.976C1044.98 763.288 1045.38 764.384 1046.17 765.264C1046.95 766.128 1048.06 766.56 1049.5 766.56C1050.43 766.56 1051.29 766.296 1052.09 765.768V767.568ZM1061.26 767.688C1060.63 769.336 1059.89 770.496 1059.02 771.168C1058.18 771.84 1057.2 772.176 1056.1 772.176C1055.68 772.176 1055.34 772.136 1055.09 772.056V770.352C1055.33 770.416 1055.6 770.448 1055.9 770.448C1057.52 770.448 1058.66 769.528 1059.34 767.688L1054.42 755.832H1056.55L1058.14 759.84L1060.27 765.36C1060.4 764.944 1061.04 763.104 1062.19 759.84L1063.61 755.832H1065.65L1061.26 767.688Z" fill="white"/>
<path d="M194.621 200.683L207.09 188.661L190.444 183.873L194.621 200.683ZM199.852 187.763C200.572 168.759 196.928 132.348 194.488 100.912C193.264 85.1416 192.341 70.6128 192.398 60.0382C192.427 54.7362 192.703 50.5194 193.281 47.6621C193.573 46.2206 193.918 45.2487 194.266 44.6733C194.436 44.3942 194.57 44.2678 194.642 44.2167C194.697 44.1785 194.712 44.1826 194.72 44.1826V41.1826C193.303 41.1826 192.322 42.0931 191.7 43.1192C191.086 44.1332 190.657 45.5024 190.341 47.0672C189.702 50.2224 189.427 54.6794 189.398 60.022C189.34 70.7366 190.274 85.3804 191.497 101.144C193.953 132.775 197.566 168.876 196.854 187.649L199.852 187.763Z" fill="#113366"/>
<circle cx="194.72" cy="42.6826" r="4.5" fill="white" stroke="#113366" stroke-width="3"/>
<path d="M367.72 200.683L371.897 183.873L355.251 188.661L367.72 200.683ZM367.621 44.1826C367.629 44.1826 367.644 44.1785 367.699 44.2167C367.771 44.2678 367.906 44.3942 368.075 44.6733C368.423 45.2487 368.769 46.2206 369.06 47.6621C369.638 50.5194 369.914 54.7362 369.943 60.0382C370 70.6128 369.077 85.1416 367.853 100.912C365.413 132.348 361.769 168.759 362.489 187.763L365.487 187.649C364.775 168.876 368.389 132.775 370.844 101.144C372.067 85.3804 373.001 70.7366 372.943 60.022C372.914 54.6794 372.639 50.2224 372.001 47.0672C371.684 45.5024 371.255 44.1332 370.641 43.1192C370.019 42.0931 369.038 41.1826 367.621 41.1826V44.1826Z" fill="#113366"/>
<circle cx="367.621" cy="42.6826" r="4.5" fill="white" stroke="#113366" stroke-width="3"/>
<path d="M540.621 393.683L555.21 384.347L539.831 376.38L540.621 393.683ZM540.621 202.183C540.775 202.183 541.192 202.275 541.838 203.146C542.468 203.995 543.125 205.342 543.777 207.222C545.073 210.965 546.22 216.441 547.198 223.25C549.15 236.843 550.389 255.451 550.906 275.416C551.941 315.392 550.076 360.48 545.37 381.36L548.297 382.02C553.092 360.743 554.94 315.327 553.905 275.339C553.386 255.322 552.143 236.582 550.167 222.823C549.181 215.957 548.002 210.256 546.612 206.24C545.919 204.241 545.142 202.564 544.248 201.358C543.37 200.175 542.172 199.183 540.621 199.183V202.183Z" fill="#113366"/>
<circle cx="540.621" cy="200.683" r="4.5" fill="white" stroke="#113366" stroke-width="3"/>
<path d="M21.7202 575.683L24.6153 558.606L8.37875 564.637L21.7202 575.683ZM367.72 392.183C216.053 392.183 127.75 424.235 77.4603 461.669C27.169 499.104 14.9633 541.883 15.5178 563.061L18.5168 562.983C17.9904 542.88 29.6595 500.99 79.2516 464.075C128.845 427.16 216.434 395.183 367.72 395.183V392.183Z" fill="#113366"/>
<circle cx="367.72" cy="393.683" r="4.5" fill="white" stroke="#113366" stroke-width="3"/>
<path d="M254.72 574.683L256.383 557.442L240.621 564.623L254.72 574.683ZM367.72 392.183C313.108 392.183 281.458 424.698 264.328 462.139C247.236 499.497 244.474 541.971 247.638 562.618L250.603 562.164C247.526 542.081 250.214 500.201 267.056 463.387C283.861 426.656 314.631 395.183 367.72 395.183V392.183Z" fill="#113366"/>
<circle cx="367.72" cy="393.683" r="4.5" fill="white" stroke="#113366" stroke-width="3"/>
<path d="M643.621 575.683L657.769 565.691L642.042 558.434L643.621 575.683ZM540.621 395.183C589.507 395.183 617.888 426.794 633.31 463.812C648.754 500.884 651.024 543.038 647.797 563.186L650.759 563.66C654.075 542.962 651.738 500.245 636.079 462.659C620.398 425.018 591.178 392.183 540.621 392.183V395.183Z" fill="#113366"/>
<circle cx="540.621" cy="393.683" r="4.5" fill="white" stroke="#113366" stroke-width="3"/>
<path d="M894.621 575.683L907.937 564.606L891.686 558.613L894.621 575.683ZM540.621 395.183C695.268 395.183 784.81 427.162 835.537 464.085C886.26 501.005 898.232 542.896 897.791 562.989L900.79 563.055C901.255 541.867 888.725 499.088 837.302 461.659C785.883 424.232 695.637 392.183 540.621 392.183V395.183Z" fill="#113366"/>
<circle cx="540.621" cy="393.683" r="4.5" fill="white" stroke="#113366" stroke-width="3"/>
<path d="M427.72 758.5L442.19 748.981L426.712 741.209L427.72 758.5ZM427.621 576.183C427.743 576.183 428.124 576.253 428.732 577.063C429.325 577.853 429.948 579.113 430.569 580.881C431.804 584.401 432.899 589.559 433.835 595.983C435.704 608.805 436.898 626.373 437.409 645.259C438.433 683.073 436.713 725.853 432.314 746.114L435.246 746.75C439.728 726.108 441.433 683.013 440.408 645.178C439.896 626.24 438.697 608.54 436.804 595.55C435.859 589.068 434.731 583.684 433.4 579.888C432.737 577.999 431.992 576.408 431.131 575.261C430.284 574.134 429.125 573.183 427.621 573.183V576.183Z" fill="#113366"/>
<circle cx="427.621" cy="574.683" r="4.5" fill="white" stroke="#113366" stroke-width="3"/>
<circle cx="721.72" cy="575.683" r="4.5" fill="white" stroke="#113366" stroke-width="3"/>
<path d="M575.72 755.683L577.588 738.463L561.741 745.456L575.72 755.683ZM721.72 574.183C653.525 574.183 613.835 606.255 591.952 643.506C570.136 680.644 566.028 722.897 568.783 743.53L571.757 743.133C569.085 723.122 573.082 681.551 594.539 645.025C615.928 608.613 654.677 577.183 721.72 577.183V574.183Z" fill="#113366"/>
<circle cx="721.72" cy="575.683" r="4.5" fill="white" stroke="#113366" stroke-width="3"/>
<path d="M1076.62 761.683L1090.6 751.458L1074.76 744.463L1076.62 761.683ZM894.621 577.183C977.378 577.183 1025.06 609.99 1051.47 647.783C1077.95 685.679 1083.12 728.714 1080.59 749.143L1083.56 749.512C1086.19 728.39 1080.86 684.603 1053.93 646.064C1026.93 607.423 978.302 574.183 894.621 574.183V577.183Z" fill="#113366"/>
<circle cx="894.621" cy="575.683" r="4.5" fill="white" stroke="#113366" stroke-width="3"/>
</g>
<defs>
<clipPath id="clip0_353_23">
<rect width="1097" height="804" fill="white"/>
</clipPath>
</defs>
</svg>
