<svg width="907" height="605" viewBox="0 0 907 605" fill="none" xmlns="http://www.w3.org/2000/svg">
<rect width="1440" height="21739" transform="translate(-152 -9399)" fill="white"/>
<ellipse cx="636.118" cy="502.498" rx="99.8462" ry="94.1103" fill="#D9D9D9"/>
<ellipse cx="160.613" cy="502.498" rx="99.8462" ry="94.1103" fill="#E3EAD4"/>
<ellipse cx="135" cy="472.199" rx="101" ry="95" fill="#E3EAD4" fill-opacity="0.48"/>
<ellipse cx="617" cy="472.199" rx="101" ry="95" fill="#D9D9D9" fill-opacity="0.56"/>
<ellipse cx="608" cy="95" rx="101" ry="95" fill="#829B69" fill-opacity="0.5"/>
<ellipse cx="125" cy="101" rx="101" ry="95" fill="#467061" fill-opacity="0.51"/>
<ellipse cx="638" cy="127" rx="101" ry="95" fill="#829B69"/>
<ellipse cx="153" cy="127" rx="101" ry="95" fill="#467061"/>
<g filter="url(#filter0_b_125_60)">
<path d="M684.667 129C684.667 123.109 679.891 118.333 674 118.333C668.109 118.333 663.333 123.109 663.333 129C663.333 134.891 668.109 139.667 674 139.667C679.891 139.667 684.667 134.891 684.667 129ZM909.5 127L674 127L674 131L909.5 131L909.5 127Z" fill="black"/>
</g>
<g filter="url(#filter1_b_125_60)">
<path d="M186.667 133C186.667 127.109 181.891 122.333 176 122.333C170.109 122.333 165.333 127.109 165.333 133C165.333 138.891 170.109 143.667 176 143.667C181.891 143.667 186.667 138.891 186.667 133ZM411.5 131L176 131L176 135L411.5 135L411.5 131Z" fill="black"/>
</g>
<path d="M264.12 95.04C263.747 95.04 263.56 94.9267 263.56 94.7C263.56 94.6467 263.573 94.5333 263.6 94.36C263.64 94.1733 263.707 93.8267 263.8 93.32C263.893 92.8133 264.027 92.0667 264.2 91.08H262.68C262.413 91.08 262.28 90.88 262.28 90.48V90.14C262.28 89.74 262.413 89.54 262.68 89.54H264.5L265.02 86.6H263.4C263.133 86.6 263 86.4 263 86V85.66C263 85.26 263.133 85.06 263.4 85.06H265.28L265.9 81.72C265.927 81.5733 265.987 81.4667 266.08 81.4C266.173 81.32 266.407 81.28 266.78 81.28H266.86C267.233 81.28 267.42 81.38 267.42 81.58L266.76 85.06H269.14L269.74 81.72C269.767 81.5733 269.827 81.4667 269.92 81.4C270.013 81.32 270.247 81.28 270.62 81.28H270.72C271.093 81.28 271.28 81.38 271.28 81.58L270.66 85.06H272.02C272.287 85.06 272.42 85.26 272.42 85.66V86C272.42 86.4 272.287 86.6 272.02 86.6H270.36L269.86 89.54H271.38C271.647 89.54 271.78 89.74 271.78 90.14V90.48C271.78 90.88 271.647 91.08 271.38 91.08H269.54L268.92 94.6C268.907 94.7333 268.847 94.84 268.74 94.92C268.633 95 268.407 95.04 268.06 95.04H267.98C267.607 95.04 267.42 94.9267 267.42 94.7C267.42 94.6467 267.433 94.5333 267.46 94.36C267.5 94.1733 267.567 93.8267 267.66 93.32C267.753 92.8133 267.887 92.0667 268.06 91.08H265.7L265.06 94.6C265.033 94.7333 264.973 94.84 264.88 94.92C264.787 95 264.56 95.04 264.2 95.04H264.12ZM266 89.54H268.36L268.88 86.6H266.52L266 89.54ZM281.004 95.04C280.604 95.04 280.404 94.8933 280.404 94.6V91.66H274.324C274.257 91.66 274.184 91.6 274.104 91.48C274.024 91.36 273.957 91.22 273.904 91.06C273.864 90.9 273.844 90.76 273.844 90.64C273.844 90.52 273.857 90.4467 273.884 90.42L280.464 81.24C280.53 81.1467 280.624 81.08 280.744 81.04C280.877 80.9867 281.01 80.96 281.144 80.96H281.464C281.864 80.96 282.064 81.1067 282.064 81.4V90.22H283.404C283.67 90.22 283.804 90.42 283.804 90.82V91.06C283.804 91.46 283.67 91.66 283.404 91.66H282.064V94.6C282.064 94.8933 281.864 95.04 281.464 95.04H281.004ZM275.824 90.22H280.404V85.26C280.404 85.0333 280.41 84.7733 280.424 84.48C280.437 84.1867 280.464 83.9333 280.504 83.72L280.424 83.68L275.824 90.22ZM290.267 95.1C289.56 95.1 288.94 94.9867 288.407 94.76C287.873 94.5333 287.427 94.2067 287.067 93.78C286.72 93.34 286.453 92.8133 286.267 92.2C286.093 91.5733 286.007 90.86 286.007 90.06C286.007 89.1 286.133 88.2067 286.387 87.38C286.64 86.5533 286.973 85.8067 287.387 85.14C287.8 84.46 288.253 83.86 288.747 83.34C289.24 82.82 289.733 82.3867 290.227 82.04C290.72 81.68 291.167 81.4133 291.567 81.24C291.967 81.0533 292.28 80.96 292.507 80.96C292.653 80.96 292.773 81.0333 292.867 81.18C292.96 81.3133 293.033 81.4667 293.087 81.64C293.14 81.8133 293.167 81.94 293.167 82.02C293.167 82.0467 293.153 82.0867 293.127 82.14C293.113 82.18 293.073 82.2133 293.007 82.24C291.647 82.8 290.56 83.5467 289.747 84.48C288.947 85.4133 288.387 86.44 288.067 87.56C288.373 87.3733 288.747 87.22 289.187 87.1C289.627 86.9667 290.153 86.9 290.767 86.9C291.3 86.9 291.793 86.9933 292.247 87.18C292.713 87.3667 293.12 87.64 293.467 88C293.813 88.3467 294.087 88.7733 294.287 89.28C294.487 89.7733 294.587 90.3267 294.587 90.94C294.587 91.58 294.473 92.1533 294.247 92.66C294.033 93.1667 293.727 93.6067 293.327 93.98C292.94 94.34 292.48 94.62 291.947 94.82C291.427 95.0067 290.867 95.1 290.267 95.1ZM290.367 93.66C290.727 93.66 291.1 93.5667 291.487 93.38C291.873 93.1933 292.2 92.9067 292.467 92.52C292.747 92.1333 292.887 91.6333 292.887 91.02C292.887 90.3667 292.76 89.8467 292.507 89.46C292.253 89.06 291.927 88.7733 291.527 88.6C291.127 88.4267 290.707 88.34 290.267 88.34C289.733 88.34 289.253 88.4133 288.827 88.56C288.4 88.7067 288.047 88.86 287.767 89.02C287.753 89.22 287.733 89.4267 287.707 89.64C287.693 89.84 287.687 90.0333 287.687 90.22C287.687 91.1533 287.82 91.8667 288.087 92.36C288.367 92.8533 288.713 93.1933 289.127 93.38C289.54 93.5667 289.953 93.66 290.367 93.66ZM299.29 95.04C298.717 95.04 298.43 94.92 298.43 94.68C298.43 94.6533 298.437 94.62 298.45 94.58C298.477 94.54 298.497 94.4933 298.51 94.44L304.29 82.44H297.99C297.723 82.44 297.59 82.24 297.59 81.84V81.6C297.59 81.2 297.723 81 297.99 81H305.89C305.943 81 305.997 81.06 306.05 81.18C306.117 81.2867 306.17 81.42 306.21 81.58C306.263 81.74 306.29 81.8867 306.29 82.02C306.29 82.0867 306.277 82.16 306.25 82.24L300.33 94.72C300.277 94.8133 300.177 94.8933 300.03 94.96C299.897 95.0133 299.73 95.04 299.53 95.04H299.29ZM313.333 95.12C312.533 95.12 311.786 94.8733 311.093 94.38C310.413 93.8867 309.86 93.1133 309.433 92.06C309.006 91.0067 308.793 89.6533 308.793 88C308.793 86.3333 309.006 84.98 309.433 83.94C309.86 82.8867 310.413 82.1133 311.093 81.62C311.786 81.1267 312.533 80.88 313.333 80.88C314.146 80.88 314.9 81.1267 315.593 81.62C316.286 82.1133 316.846 82.8867 317.273 83.94C317.7 84.98 317.913 86.3333 317.913 88C317.913 89.6533 317.7 91.0067 317.273 92.06C316.846 93.1133 316.286 93.8867 315.593 94.38C314.9 94.8733 314.146 95.12 313.333 95.12ZM313.333 93.68C313.813 93.68 314.273 93.5 314.713 93.14C315.153 92.7667 315.513 92.1667 315.793 91.34C316.073 90.5133 316.213 89.4 316.213 88C316.213 86.6 316.073 85.4867 315.793 84.66C315.513 83.8333 315.153 83.24 314.713 82.88C314.273 82.5067 313.813 82.32 313.333 82.32C312.853 82.32 312.393 82.5067 311.953 82.88C311.526 83.24 311.173 83.8333 310.893 84.66C310.626 85.4867 310.493 86.6 310.493 88C310.493 89.4 310.626 90.5133 310.893 91.34C311.173 92.1667 311.526 92.7667 311.953 93.14C312.393 93.5 312.853 93.68 313.333 93.68ZM324.776 95.1C324.069 95.1 323.449 94.9867 322.916 94.76C322.383 94.5333 321.936 94.2067 321.576 93.78C321.229 93.34 320.963 92.8133 320.776 92.2C320.603 91.5733 320.516 90.86 320.516 90.06C320.516 89.1 320.643 88.2067 320.896 87.38C321.149 86.5533 321.483 85.8067 321.896 85.14C322.309 84.46 322.763 83.86 323.256 83.34C323.749 82.82 324.243 82.3867 324.736 82.04C325.229 81.68 325.676 81.4133 326.076 81.24C326.476 81.0533 326.789 80.96 327.016 80.96C327.163 80.96 327.283 81.0333 327.376 81.18C327.469 81.3133 327.543 81.4667 327.596 81.64C327.649 81.8133 327.676 81.94 327.676 82.02C327.676 82.0467 327.663 82.0867 327.636 82.14C327.623 82.18 327.583 82.2133 327.516 82.24C326.156 82.8 325.069 83.5467 324.256 84.48C323.456 85.4133 322.896 86.44 322.576 87.56C322.883 87.3733 323.256 87.22 323.696 87.1C324.136 86.9667 324.663 86.9 325.276 86.9C325.809 86.9 326.303 86.9933 326.756 87.18C327.223 87.3667 327.629 87.64 327.976 88C328.323 88.3467 328.596 88.7733 328.796 89.28C328.996 89.7733 329.096 90.3267 329.096 90.94C329.096 91.58 328.983 92.1533 328.756 92.66C328.543 93.1667 328.236 93.6067 327.836 93.98C327.449 94.34 326.989 94.62 326.456 94.82C325.936 95.0067 325.376 95.1 324.776 95.1ZM324.876 93.66C325.236 93.66 325.609 93.5667 325.996 93.38C326.383 93.1933 326.709 92.9067 326.976 92.52C327.256 92.1333 327.396 91.6333 327.396 91.02C327.396 90.3667 327.269 89.8467 327.016 89.46C326.763 89.06 326.436 88.7733 326.036 88.6C325.636 88.4267 325.216 88.34 324.776 88.34C324.243 88.34 323.763 88.4133 323.336 88.56C322.909 88.7067 322.556 88.86 322.276 89.02C322.263 89.22 322.243 89.4267 322.216 89.64C322.203 89.84 322.196 90.0333 322.196 90.22C322.196 91.1533 322.329 91.8667 322.596 92.36C322.876 92.8533 323.223 93.1933 323.636 93.38C324.049 93.5667 324.463 93.66 324.876 93.66ZM332.599 95C332.333 95 332.199 94.8 332.199 94.4V94.16C332.199 93.76 332.333 93.56 332.599 93.56H336.079V82.78L332.539 83.38C332.446 83.38 332.366 83.32 332.299 83.2C332.246 83.08 332.206 82.94 332.179 82.78C332.153 82.62 332.139 82.48 332.139 82.36C332.139 82.16 332.259 82.0333 332.499 81.98L337.139 80.96C337.286 80.96 337.426 81 337.559 81.08C337.693 81.16 337.759 81.26 337.759 81.38V93.56H340.719C340.986 93.56 341.119 93.76 341.119 94.16V94.4C341.119 94.8 340.986 95 340.719 95H332.599ZM269.58 118.12C267.393 118.12 265.773 117.547 264.72 116.4C263.667 115.24 263.14 113.44 263.14 111C263.14 106.253 265.3 103.88 269.62 103.88C270.073 103.88 270.513 103.913 270.94 103.98C271.367 104.047 271.753 104.133 272.1 104.24C272.447 104.347 272.733 104.467 272.96 104.6C273.28 104.787 273.44 104.96 273.44 105.12C273.44 105.227 273.4 105.373 273.32 105.56C273.24 105.747 273.147 105.913 273.04 106.06C272.947 106.207 272.853 106.28 272.76 106.28C272.693 106.28 272.533 106.207 272.28 106.06C272.04 105.913 271.7 105.767 271.26 105.62C270.833 105.473 270.3 105.4 269.66 105.4C268.06 105.4 266.873 105.847 266.1 106.74C265.34 107.62 264.96 109.047 264.96 111.02C264.96 112.94 265.333 114.353 266.08 115.26C266.84 116.153 268.007 116.6 269.58 116.6C270.273 116.6 270.853 116.52 271.32 116.36C271.8 116.187 272.18 116.02 272.46 115.86C272.753 115.687 272.94 115.6 273.02 115.6C273.113 115.6 273.213 115.673 273.32 115.82C273.427 115.967 273.52 116.127 273.6 116.3C273.68 116.473 273.72 116.6 273.72 116.68C273.72 116.773 273.66 116.88 273.54 117C273.433 117.12 273.28 117.233 273.08 117.34C272.84 117.473 272.54 117.6 272.18 117.72C271.833 117.84 271.44 117.933 271 118C270.56 118.08 270.087 118.12 269.58 118.12ZM279.583 118.12C278.609 118.12 277.796 117.88 277.143 117.4C276.489 116.907 276.163 116.147 276.163 115.12C276.163 114.28 276.363 113.62 276.763 113.14C277.163 112.647 277.689 112.287 278.343 112.06C278.996 111.82 279.709 111.667 280.483 111.6C281.269 111.533 282.043 111.493 282.803 111.48V110.54C282.803 110.087 282.643 109.693 282.323 109.36C282.003 109.027 281.429 108.86 280.603 108.86C280.003 108.86 279.476 108.933 279.023 109.08C278.583 109.213 278.229 109.353 277.963 109.5C277.709 109.633 277.549 109.7 277.483 109.7C277.389 109.7 277.289 109.633 277.183 109.5C277.076 109.367 276.983 109.22 276.903 109.06C276.823 108.887 276.783 108.767 276.783 108.7C276.783 108.527 276.956 108.34 277.303 108.14C277.649 107.94 278.109 107.773 278.683 107.64C279.256 107.493 279.876 107.42 280.543 107.42C281.369 107.42 282.076 107.547 282.663 107.8C283.249 108.04 283.696 108.393 284.003 108.86C284.323 109.327 284.483 109.893 284.483 110.56V115.04C284.483 115.587 284.503 116.04 284.543 116.4C284.583 116.76 284.623 117.033 284.663 117.22C284.703 117.407 284.723 117.52 284.723 117.56C284.723 117.653 284.676 117.733 284.583 117.8C284.503 117.853 284.403 117.9 284.283 117.94C284.163 117.967 284.043 117.987 283.923 118C283.803 118.013 283.709 118.02 283.643 118.02C283.483 118.02 283.356 117.947 283.263 117.8C283.183 117.64 283.116 117.453 283.063 117.24C283.023 117.013 282.983 116.807 282.943 116.62C282.689 116.9 282.396 117.153 282.063 117.38C281.729 117.607 281.356 117.787 280.943 117.92C280.543 118.053 280.089 118.12 279.583 118.12ZM279.663 116.66C280.396 116.66 281.003 116.52 281.483 116.24C281.963 115.96 282.403 115.64 282.803 115.28V112.92C282.283 112.92 281.743 112.94 281.183 112.98C280.623 113.007 280.096 113.08 279.603 113.2C279.109 113.32 278.709 113.527 278.403 113.82C278.109 114.1 277.963 114.5 277.963 115.02C277.963 115.553 278.103 115.96 278.383 116.24C278.676 116.52 279.103 116.66 279.663 116.66ZM290.841 118.18C290.241 118.18 289.701 118.107 289.221 117.96C288.741 117.813 288.361 117.64 288.081 117.44C287.801 117.24 287.661 117.067 287.661 116.92C287.661 116.84 287.701 116.72 287.781 116.56C287.861 116.4 287.955 116.253 288.061 116.12C288.168 115.987 288.268 115.92 288.361 115.92C288.415 115.92 288.535 115.987 288.721 116.12C288.908 116.253 289.168 116.387 289.501 116.52C289.848 116.653 290.255 116.72 290.721 116.72C292.028 116.72 292.681 116.227 292.681 115.24C292.681 114.707 292.488 114.32 292.101 114.08C291.728 113.827 291.255 113.607 290.681 113.42C290.215 113.26 289.768 113.073 289.341 112.86C288.915 112.633 288.568 112.32 288.301 111.92C288.035 111.52 287.901 110.98 287.901 110.3C287.901 109.74 288.041 109.24 288.321 108.8C288.615 108.36 289.008 108.02 289.501 107.78C290.008 107.527 290.581 107.4 291.221 107.4C291.675 107.4 292.101 107.44 292.501 107.52C292.901 107.6 293.228 107.707 293.481 107.84C293.735 107.973 293.861 108.113 293.861 108.26C293.861 108.367 293.821 108.507 293.741 108.68C293.675 108.853 293.595 109.007 293.501 109.14C293.408 109.273 293.315 109.34 293.221 109.34C293.168 109.34 292.988 109.253 292.681 109.08C292.375 108.907 291.948 108.82 291.401 108.82C290.908 108.82 290.488 108.94 290.141 109.18C289.795 109.407 289.621 109.733 289.621 110.16C289.621 110.533 289.728 110.833 289.941 111.06C290.155 111.273 290.568 111.48 291.181 111.68C291.795 111.88 292.341 112.12 292.821 112.4C293.301 112.667 293.681 113.013 293.961 113.44C294.241 113.853 294.381 114.393 294.381 115.06C294.381 115.66 294.221 116.193 293.901 116.66C293.595 117.127 293.175 117.5 292.641 117.78C292.108 118.047 291.508 118.18 290.841 118.18ZM300.663 118.12C300.41 118.12 300.136 118.08 299.843 118C299.55 117.933 299.27 117.807 299.003 117.62C298.736 117.42 298.516 117.14 298.343 116.78C298.17 116.407 298.083 115.933 298.083 115.36V108.98H297.083C296.816 108.98 296.683 108.78 296.683 108.38V108.14C296.683 107.74 296.816 107.54 297.083 107.54H298.083L298.323 105.44C298.35 105.147 298.563 105 298.963 105H299.163C299.563 105 299.763 105.147 299.763 105.44V107.54H301.443C301.71 107.54 301.843 107.74 301.843 108.14V108.38C301.843 108.78 301.71 108.98 301.443 108.98H299.763V115.2C299.763 115.8 299.87 116.2 300.083 116.4C300.296 116.587 300.55 116.68 300.843 116.68C301.136 116.68 301.33 116.667 301.423 116.64C301.516 116.6 301.61 116.58 301.703 116.58C301.796 116.58 301.87 116.647 301.923 116.78C301.99 116.913 302.036 117.06 302.063 117.22C302.103 117.367 302.123 117.467 302.123 117.52C302.123 117.693 302.036 117.827 301.863 117.92C301.703 118 301.51 118.053 301.283 118.08C301.056 118.107 300.85 118.12 300.663 118.12ZM307.799 118.12C307.546 118.12 307.272 118.08 306.979 118C306.686 117.933 306.406 117.807 306.139 117.62C305.872 117.42 305.652 117.14 305.479 116.78C305.306 116.407 305.219 115.933 305.219 115.36V103.4C305.219 103.107 305.486 102.96 306.019 102.96H306.099C306.632 102.96 306.899 103.107 306.899 103.4V115.2C306.899 115.8 307.006 116.2 307.219 116.4C307.432 116.587 307.686 116.68 307.979 116.68C308.272 116.68 308.466 116.667 308.559 116.64C308.652 116.6 308.746 116.58 308.839 116.58C308.932 116.58 309.006 116.647 309.059 116.78C309.126 116.913 309.172 117.06 309.199 117.22C309.239 117.367 309.259 117.467 309.259 117.52C309.259 117.693 309.172 117.827 308.999 117.92C308.839 118 308.646 118.053 308.419 118.08C308.192 118.107 307.986 118.12 307.799 118.12ZM315.652 118.12C313.999 118.12 312.766 117.687 311.952 116.82C311.152 115.953 310.752 114.627 310.752 112.84C310.752 111.653 310.926 110.66 311.272 109.86C311.632 109.06 312.159 108.453 312.852 108.04C313.546 107.627 314.399 107.42 315.412 107.42C316.332 107.42 317.092 107.62 317.692 108.02C318.306 108.42 318.766 109.007 319.072 109.78C319.379 110.553 319.532 111.507 319.532 112.64C319.532 112.72 319.492 112.827 319.412 112.96C319.346 113.08 319.259 113.193 319.152 113.3C319.046 113.407 318.952 113.46 318.872 113.46H312.552C312.632 114.567 312.919 115.38 313.412 115.9C313.906 116.42 314.646 116.68 315.632 116.68C316.219 116.68 316.712 116.613 317.112 116.48C317.526 116.333 317.852 116.193 318.092 116.06C318.332 115.913 318.486 115.84 318.552 115.84C318.646 115.84 318.746 115.907 318.852 116.04C318.959 116.173 319.052 116.32 319.132 116.48C319.212 116.64 319.252 116.76 319.252 116.84C319.252 116.96 319.159 117.093 318.972 117.24C318.786 117.387 318.526 117.527 318.192 117.66C317.872 117.793 317.492 117.907 317.052 118C316.626 118.08 316.159 118.12 315.652 118.12ZM312.552 112.02H317.752C317.752 110.967 317.552 110.18 317.152 109.66C316.752 109.127 316.152 108.86 315.352 108.86C314.486 108.86 313.819 109.127 313.352 109.66C312.886 110.18 312.619 110.967 312.552 112.02ZM325.954 118.12C325.7 118.12 325.427 118.08 325.134 118C324.84 117.933 324.56 117.807 324.294 117.62C324.027 117.42 323.807 117.14 323.634 116.78C323.46 116.407 323.374 115.933 323.374 115.36V108.98H322.374C322.107 108.98 321.974 108.78 321.974 108.38V108.14C321.974 107.74 322.107 107.54 322.374 107.54H323.374L323.614 105.44C323.64 105.147 323.854 105 324.254 105H324.454C324.854 105 325.054 105.147 325.054 105.44V107.54H326.734C327 107.54 327.134 107.74 327.134 108.14V108.38C327.134 108.78 327 108.98 326.734 108.98H325.054V115.2C325.054 115.8 325.16 116.2 325.374 116.4C325.587 116.587 325.84 116.68 326.134 116.68C326.427 116.68 326.62 116.667 326.714 116.64C326.807 116.6 326.9 116.58 326.994 116.58C327.087 116.58 327.16 116.647 327.214 116.78C327.28 116.913 327.327 117.06 327.354 117.22C327.394 117.367 327.414 117.467 327.414 117.52C327.414 117.693 327.327 117.827 327.154 117.92C326.994 118 326.8 118.053 326.574 118.08C326.347 118.107 326.14 118.12 325.954 118.12ZM334.61 118.12C333.103 118.12 331.95 117.667 331.15 116.76C330.363 115.853 329.97 114.54 329.97 112.82C329.97 111.087 330.37 109.753 331.17 108.82C331.97 107.887 333.116 107.42 334.61 107.42C336.076 107.42 337.196 107.887 337.97 108.82C338.756 109.74 339.15 111.073 339.15 112.82C339.15 114.553 338.763 115.873 337.99 116.78C337.23 117.673 336.103 118.12 334.61 118.12ZM334.55 116.68C335.536 116.68 336.256 116.367 336.71 115.74C337.176 115.1 337.41 114.113 337.41 112.78C337.41 111.447 337.176 110.46 336.71 109.82C336.256 109.18 335.536 108.86 334.55 108.86C333.576 108.86 332.863 109.18 332.41 109.82C331.956 110.447 331.73 111.433 331.73 112.78C331.73 114.113 331.956 115.1 332.41 115.74C332.863 116.367 333.576 116.68 334.55 116.68ZM343.576 118.04C343.043 118.04 342.776 117.893 342.776 117.6V110.58C342.776 110.033 342.756 109.58 342.716 109.22C342.676 108.86 342.636 108.587 342.596 108.4C342.556 108.2 342.536 108.087 342.536 108.06C342.536 107.967 342.576 107.893 342.656 107.84C342.75 107.773 342.856 107.727 342.976 107.7C343.096 107.66 343.216 107.633 343.336 107.62C343.456 107.607 343.55 107.6 343.616 107.6C343.776 107.6 343.896 107.673 343.976 107.82C344.07 107.967 344.136 108.147 344.176 108.36C344.23 108.56 344.276 108.747 344.316 108.92C344.743 108.453 345.23 108.087 345.776 107.82C346.323 107.553 346.876 107.42 347.436 107.42C348.463 107.42 349.263 107.707 349.836 108.28C350.41 108.853 350.696 109.647 350.696 110.66V117.6C350.696 117.893 350.43 118.04 349.896 118.04H349.816C349.283 118.04 349.016 117.893 349.016 117.6V110.82C349.016 110.207 348.836 109.733 348.476 109.4C348.13 109.053 347.63 108.88 346.976 108.88C346.523 108.88 346.07 109.007 345.616 109.26C345.176 109.513 344.79 109.853 344.456 110.28V117.6C344.456 117.893 344.19 118.04 343.656 118.04H343.576ZM365.914 118.12C363.927 118.12 362.4 117.547 361.334 116.4C360.267 115.253 359.734 113.493 359.734 111.12C359.734 108.627 360.287 106.8 361.394 105.64C362.514 104.467 364.12 103.88 366.214 103.88C366.707 103.88 367.18 103.92 367.634 104C368.1 104.08 368.514 104.18 368.874 104.3C369.234 104.42 369.514 104.553 369.714 104.7C369.927 104.847 370.034 104.987 370.034 105.12C370.034 105.227 369.994 105.373 369.914 105.56C369.834 105.747 369.74 105.913 369.634 106.06C369.54 106.207 369.447 106.28 369.354 106.28C369.287 106.28 369.127 106.207 368.874 106.06C368.634 105.913 368.294 105.767 367.854 105.62C367.427 105.473 366.894 105.4 366.254 105.4C365.08 105.4 364.147 105.62 363.454 106.06C362.774 106.5 362.287 107.133 361.994 107.96C361.7 108.787 361.554 109.78 361.554 110.94C361.554 111.7 361.62 112.427 361.754 113.12C361.887 113.8 362.12 114.4 362.454 114.92C362.787 115.44 363.24 115.853 363.814 116.16C364.4 116.453 365.14 116.6 366.034 116.6C366.647 116.6 367.214 116.567 367.734 116.5C368.267 116.42 368.64 116.34 368.854 116.26L368.614 117.02V112.3H366.274C366.007 112.3 365.874 112.1 365.874 111.7V111.38C365.874 110.98 366.007 110.78 366.274 110.78H369.774C370.174 110.78 370.374 110.98 370.374 111.38V116.68C370.374 116.96 370.247 117.193 369.994 117.38C369.754 117.567 369.42 117.713 368.994 117.82C368.58 117.927 368.107 118 367.574 118.04C367.04 118.093 366.487 118.12 365.914 118.12ZM375.431 118.04C374.898 118.04 374.631 117.893 374.631 117.6V110.58C374.631 110.033 374.611 109.58 374.571 109.22C374.531 108.86 374.491 108.587 374.451 108.4C374.411 108.2 374.391 108.087 374.391 108.06C374.391 107.967 374.431 107.893 374.511 107.84C374.605 107.773 374.711 107.727 374.831 107.7C374.951 107.66 375.071 107.633 375.191 107.62C375.311 107.607 375.405 107.6 375.471 107.6C375.631 107.6 375.751 107.673 375.831 107.82C375.925 107.967 375.991 108.147 376.031 108.36C376.085 108.56 376.131 108.747 376.171 108.92C376.518 108.44 376.885 108.073 377.271 107.82C377.671 107.553 378.078 107.42 378.491 107.42C378.878 107.42 379.165 107.487 379.351 107.62C379.551 107.74 379.651 107.933 379.651 108.2C379.651 108.32 379.631 108.467 379.591 108.64C379.565 108.813 379.518 108.967 379.451 109.1C379.398 109.22 379.331 109.28 379.251 109.28C379.118 109.28 378.985 109.247 378.851 109.18C378.731 109.1 378.498 109.06 378.151 109.06C377.805 109.06 377.491 109.16 377.211 109.36C376.931 109.56 376.711 109.767 376.551 109.98C376.391 110.18 376.311 110.28 376.311 110.28V117.6C376.311 117.893 376.045 118.04 375.511 118.04H375.431ZM386.565 118.12C384.912 118.12 383.678 117.687 382.865 116.82C382.065 115.953 381.665 114.627 381.665 112.84C381.665 111.653 381.838 110.66 382.185 109.86C382.545 109.06 383.072 108.453 383.765 108.04C384.458 107.627 385.312 107.42 386.325 107.42C387.245 107.42 388.005 107.62 388.605 108.02C389.218 108.42 389.678 109.007 389.985 109.78C390.292 110.553 390.445 111.507 390.445 112.64C390.445 112.72 390.405 112.827 390.325 112.96C390.258 113.08 390.172 113.193 390.065 113.3C389.958 113.407 389.865 113.46 389.785 113.46H383.465C383.545 114.567 383.832 115.38 384.325 115.9C384.818 116.42 385.558 116.68 386.545 116.68C387.132 116.68 387.625 116.613 388.025 116.48C388.438 116.333 388.765 116.193 389.005 116.06C389.245 115.913 389.398 115.84 389.465 115.84C389.558 115.84 389.658 115.907 389.765 116.04C389.872 116.173 389.965 116.32 390.045 116.48C390.125 116.64 390.165 116.76 390.165 116.84C390.165 116.96 390.072 117.093 389.885 117.24C389.698 117.387 389.438 117.527 389.105 117.66C388.785 117.793 388.405 117.907 387.965 118C387.538 118.08 387.072 118.12 386.565 118.12ZM383.465 112.02H388.665C388.665 110.967 388.465 110.18 388.065 109.66C387.665 109.127 387.065 108.86 386.265 108.86C385.398 108.86 384.732 109.127 384.265 109.66C383.798 110.18 383.532 110.967 383.465 112.02ZM397.951 118.12C396.297 118.12 395.064 117.687 394.251 116.82C393.451 115.953 393.051 114.627 393.051 112.84C393.051 111.653 393.224 110.66 393.571 109.86C393.931 109.06 394.457 108.453 395.151 108.04C395.844 107.627 396.697 107.42 397.711 107.42C398.631 107.42 399.391 107.62 399.991 108.02C400.604 108.42 401.064 109.007 401.371 109.78C401.677 110.553 401.831 111.507 401.831 112.64C401.831 112.72 401.791 112.827 401.711 112.96C401.644 113.08 401.557 113.193 401.451 113.3C401.344 113.407 401.251 113.46 401.171 113.46H394.851C394.931 114.567 395.217 115.38 395.711 115.9C396.204 116.42 396.944 116.68 397.931 116.68C398.517 116.68 399.011 116.613 399.411 116.48C399.824 116.333 400.151 116.193 400.391 116.06C400.631 115.913 400.784 115.84 400.851 115.84C400.944 115.84 401.044 115.907 401.151 116.04C401.257 116.173 401.351 116.32 401.431 116.48C401.511 116.64 401.551 116.76 401.551 116.84C401.551 116.96 401.457 117.093 401.271 117.24C401.084 117.387 400.824 117.527 400.491 117.66C400.171 117.793 399.791 117.907 399.351 118C398.924 118.08 398.457 118.12 397.951 118.12ZM394.851 112.02H400.051C400.051 110.967 399.851 110.18 399.451 109.66C399.051 109.127 398.451 108.86 397.651 108.86C396.784 108.86 396.117 109.127 395.651 109.66C395.184 110.18 394.917 110.967 394.851 112.02ZM406.052 118.04C405.519 118.04 405.252 117.893 405.252 117.6V110.58C405.252 110.033 405.232 109.58 405.192 109.22C405.152 108.86 405.112 108.587 405.072 108.4C405.032 108.2 405.012 108.087 405.012 108.06C405.012 107.967 405.052 107.893 405.132 107.84C405.225 107.773 405.332 107.727 405.452 107.7C405.572 107.66 405.692 107.633 405.812 107.62C405.932 107.607 406.025 107.6 406.092 107.6C406.252 107.6 406.372 107.673 406.452 107.82C406.545 107.967 406.612 108.147 406.652 108.36C406.705 108.56 406.752 108.747 406.792 108.92C407.219 108.453 407.705 108.087 408.252 107.82C408.799 107.553 409.352 107.42 409.912 107.42C410.939 107.42 411.739 107.707 412.312 108.28C412.885 108.853 413.172 109.647 413.172 110.66V117.6C413.172 117.893 412.905 118.04 412.372 118.04H412.292C411.759 118.04 411.492 117.893 411.492 117.6V110.82C411.492 110.207 411.312 109.733 410.952 109.4C410.605 109.053 410.105 108.88 409.452 108.88C408.999 108.88 408.545 109.007 408.092 109.26C407.652 109.513 407.265 109.853 406.932 110.28V117.6C406.932 117.893 406.665 118.04 406.132 118.04H406.052Z" fill="black"/>
<path d="M752.12 95.04C751.747 95.04 751.56 94.9267 751.56 94.7C751.56 94.6467 751.573 94.5333 751.6 94.36C751.64 94.1733 751.707 93.8267 751.8 93.32C751.893 92.8133 752.027 92.0667 752.2 91.08H750.68C750.413 91.08 750.28 90.88 750.28 90.48V90.14C750.28 89.74 750.413 89.54 750.68 89.54H752.5L753.02 86.6H751.4C751.133 86.6 751 86.4 751 86V85.66C751 85.26 751.133 85.06 751.4 85.06H753.28L753.9 81.72C753.927 81.5733 753.987 81.4667 754.08 81.4C754.173 81.32 754.407 81.28 754.78 81.28H754.86C755.233 81.28 755.42 81.38 755.42 81.58L754.76 85.06H757.14L757.74 81.72C757.767 81.5733 757.827 81.4667 757.92 81.4C758.013 81.32 758.247 81.28 758.62 81.28H758.72C759.093 81.28 759.28 81.38 759.28 81.58L758.66 85.06H760.02C760.287 85.06 760.42 85.26 760.42 85.66V86C760.42 86.4 760.287 86.6 760.02 86.6H758.36L757.86 89.54H759.38C759.647 89.54 759.78 89.74 759.78 90.14V90.48C759.78 90.88 759.647 91.08 759.38 91.08H757.54L756.92 94.6C756.907 94.7333 756.847 94.84 756.74 94.92C756.633 95 756.407 95.04 756.06 95.04H755.98C755.607 95.04 755.42 94.9267 755.42 94.7C755.42 94.6467 755.433 94.5333 755.46 94.36C755.5 94.1733 755.567 93.8267 755.66 93.32C755.753 92.8133 755.887 92.0667 756.06 91.08H753.7L753.06 94.6C753.033 94.7333 752.973 94.84 752.88 94.92C752.787 95 752.56 95.04 752.2 95.04H752.12ZM754 89.54H756.36L756.88 86.6H754.52L754 89.54ZM766.824 95.12C766.024 95.12 765.297 94.9733 764.644 94.68C763.99 94.3867 763.47 93.9333 763.084 93.32C762.697 92.6933 762.504 91.9067 762.504 90.96C762.504 90.2533 762.604 89.6733 762.804 89.22C763.004 88.7667 763.27 88.4 763.604 88.12C763.95 87.8267 764.324 87.5867 764.724 87.4C764.257 87.12 763.864 86.7333 763.544 86.24C763.224 85.7333 763.064 85.1 763.064 84.34C763.064 83.58 763.23 82.9467 763.564 82.44C763.91 81.92 764.37 81.5333 764.944 81.28C765.53 81.0133 766.17 80.88 766.864 80.88C767.57 80.88 768.21 81.0133 768.784 81.28C769.37 81.5333 769.837 81.92 770.184 82.44C770.53 82.9467 770.704 83.58 770.704 84.34C770.704 85.1533 770.517 85.8 770.144 86.28C769.77 86.76 769.31 87.1267 768.764 87.38C769.204 87.5667 769.604 87.8 769.964 88.08C770.324 88.36 770.61 88.7267 770.824 89.18C771.05 89.6333 771.164 90.2267 771.164 90.96C771.164 91.68 771.05 92.3 770.824 92.82C770.597 93.34 770.284 93.7733 769.884 94.12C769.497 94.4533 769.037 94.7067 768.504 94.88C767.984 95.04 767.424 95.12 766.824 95.12ZM766.824 93.68C767.304 93.68 767.737 93.58 768.124 93.38C768.524 93.18 768.844 92.88 769.084 92.48C769.324 92.0667 769.444 91.56 769.444 90.96C769.444 90.4533 769.344 90.0467 769.144 89.74C768.944 89.42 768.677 89.16 768.344 88.96C768.024 88.76 767.664 88.5933 767.264 88.46C766.864 88.3133 766.464 88.16 766.064 88C765.557 88.2933 765.124 88.6667 764.764 89.12C764.404 89.5733 764.224 90.1867 764.224 90.96C764.224 91.8667 764.477 92.5467 764.984 93C765.504 93.4533 766.117 93.68 766.824 93.68ZM767.304 86.84C767.784 86.56 768.19 86.22 768.524 85.82C768.857 85.42 769.024 84.9267 769.024 84.34C769.024 83.6333 768.81 83.12 768.384 82.8C767.957 82.48 767.45 82.32 766.864 82.32C766.277 82.32 765.777 82.48 765.364 82.8C764.95 83.12 764.744 83.6333 764.744 84.34C764.744 84.8733 764.864 85.2933 765.104 85.6C765.344 85.9067 765.657 86.1533 766.044 86.34C766.43 86.5133 766.85 86.68 767.304 86.84ZM774.407 95C774.327 95 774.253 94.9533 774.187 94.86C774.133 94.7667 774.087 94.6533 774.047 94.52C774.02 94.3733 774.007 94.24 774.007 94.12C774.007 93.9467 774.033 93.8333 774.087 93.78L779.247 87.3C779.673 86.74 779.98 86.3 780.167 85.98C780.353 85.66 780.473 85.3867 780.527 85.16C780.58 84.9333 780.607 84.68 780.607 84.4C780.607 83.76 780.38 83.2533 779.927 82.88C779.487 82.5067 778.88 82.32 778.107 82.32C777.507 82.32 777 82.4067 776.587 82.58C776.187 82.7533 775.867 82.9267 775.627 83.1C775.4 83.26 775.227 83.34 775.107 83.34C775.04 83.34 774.953 83.28 774.847 83.16C774.753 83.0267 774.667 82.88 774.587 82.72C774.507 82.56 774.467 82.4333 774.467 82.34C774.467 82.1267 774.593 81.9333 774.847 81.76C775.1 81.5867 775.42 81.4333 775.807 81.3C776.193 81.1667 776.587 81.0667 776.987 81C777.4 80.92 777.76 80.88 778.067 80.88C779.373 80.88 780.407 81.1867 781.167 81.8C781.94 82.4 782.327 83.2267 782.327 84.28C782.327 84.6667 782.293 85.02 782.227 85.34C782.173 85.66 782.06 85.9933 781.887 86.34C781.713 86.6867 781.453 87.1 781.107 87.58C780.773 88.0467 780.333 88.62 779.787 89.3C779.24 89.98 778.56 90.8133 777.747 91.8L776.287 93.58H782.047C782.313 93.58 782.447 93.78 782.447 94.18V94.4C782.447 94.8 782.313 95 782.047 95H774.407ZM787.67 95.04C787.537 95.04 787.417 94.9733 787.31 94.84C787.217 94.6933 787.143 94.5333 787.09 94.36C787.037 94.1867 787.01 94.06 787.01 93.98C787.01 93.9533 787.017 93.92 787.03 93.88C787.057 93.8267 787.103 93.7867 787.17 93.76C788.53 93.2 789.61 92.4533 790.41 91.52C791.223 90.5867 791.79 89.56 792.11 88.44C791.803 88.6133 791.43 88.7667 790.99 88.9C790.55 89.0333 790.023 89.1 789.41 89.1C788.877 89.1 788.377 89.0067 787.91 88.82C787.457 88.6333 787.057 88.3667 786.71 88.02C786.363 87.66 786.09 87.2333 785.89 86.74C785.69 86.2333 785.59 85.6733 785.59 85.06C785.59 84.42 785.697 83.8467 785.91 83.34C786.137 82.8333 786.443 82.4 786.83 82.04C787.23 81.6667 787.69 81.3867 788.21 81.2C788.743 81 789.31 80.9 789.91 80.9C790.617 80.9 791.237 81.0133 791.77 81.24C792.303 81.4667 792.743 81.8 793.09 82.24C793.45 82.6667 793.717 83.1933 793.89 83.82C794.077 84.4333 794.17 85.14 794.17 85.94C794.17 86.9 794.043 87.7933 793.79 88.62C793.537 89.4467 793.203 90.2 792.79 90.88C792.377 91.5467 791.923 92.14 791.43 92.66C790.937 93.18 790.443 93.62 789.95 93.98C789.457 94.3267 789.01 94.5933 788.61 94.78C788.21 94.9533 787.897 95.04 787.67 95.04ZM789.91 87.66C790.443 87.66 790.923 87.5867 791.35 87.44C791.777 87.2933 792.13 87.14 792.41 86.98C792.437 86.78 792.457 86.58 792.47 86.38C792.483 86.1667 792.49 85.9667 792.49 85.78C792.49 84.8467 792.35 84.1333 792.07 83.64C791.803 83.1467 791.463 82.8067 791.05 82.62C790.65 82.4333 790.237 82.34 789.81 82.34C789.45 82.34 789.07 82.4333 788.67 82.62C788.283 82.8067 787.957 83.0933 787.69 83.48C787.423 83.8667 787.29 84.3667 787.29 84.98C787.29 85.6333 787.417 86.16 787.67 86.56C787.923 86.9467 788.25 87.2267 788.65 87.4C789.05 87.5733 789.47 87.66 789.91 87.66ZM798.533 95C798.133 95 797.933 94.8 797.933 94.4V81.6C797.933 81.2 798.133 81 798.533 81H802.113C803.606 81 804.726 81.3267 805.473 81.98C806.22 82.6333 806.593 83.4867 806.593 84.54C806.593 84.98 806.486 85.4133 806.273 85.84C806.073 86.2667 805.806 86.64 805.473 86.96C805.14 87.2667 804.78 87.4733 804.393 87.58V87.66C804.393 87.66 804.486 87.6933 804.673 87.76C804.86 87.8133 805.093 87.92 805.373 88.08C805.653 88.2267 805.933 88.4267 806.213 88.68C806.493 88.9333 806.726 89.2467 806.913 89.62C807.1 89.9933 807.193 90.4467 807.193 90.98C807.193 92.3667 806.74 93.3867 805.833 94.04C804.94 94.68 803.653 95 801.973 95H798.533ZM799.693 93.48H802.613C803.506 93.48 804.186 93.2467 804.653 92.78C805.133 92.3133 805.373 91.6867 805.373 90.9C805.373 90.1667 805.113 89.5933 804.593 89.18C804.073 88.7667 803.3 88.56 802.273 88.56H799.693V93.48ZM799.693 87.04H802.013C802.826 87.04 803.486 86.8133 803.993 86.36C804.513 85.9067 804.773 85.3533 804.773 84.7C804.773 83.9533 804.546 83.4067 804.093 83.06C803.653 82.7 802.933 82.52 801.933 82.52H799.693V87.04ZM813.928 95.1C813.222 95.1 812.602 94.9867 812.068 94.76C811.535 94.5333 811.088 94.2067 810.728 93.78C810.382 93.34 810.115 92.8133 809.928 92.2C809.755 91.5733 809.668 90.86 809.668 90.06C809.668 89.1 809.795 88.2067 810.048 87.38C810.302 86.5533 810.635 85.8067 811.048 85.14C811.462 84.46 811.915 83.86 812.408 83.34C812.902 82.82 813.395 82.3867 813.888 82.04C814.382 81.68 814.828 81.4133 815.228 81.24C815.628 81.0533 815.942 80.96 816.168 80.96C816.315 80.96 816.435 81.0333 816.528 81.18C816.622 81.3133 816.695 81.4667 816.748 81.64C816.802 81.8133 816.828 81.94 816.828 82.02C816.828 82.0467 816.815 82.0867 816.788 82.14C816.775 82.18 816.735 82.2133 816.668 82.24C815.308 82.8 814.222 83.5467 813.408 84.48C812.608 85.4133 812.048 86.44 811.728 87.56C812.035 87.3733 812.408 87.22 812.848 87.1C813.288 86.9667 813.815 86.9 814.428 86.9C814.962 86.9 815.455 86.9933 815.908 87.18C816.375 87.3667 816.782 87.64 817.128 88C817.475 88.3467 817.748 88.7733 817.948 89.28C818.148 89.7733 818.248 90.3267 818.248 90.94C818.248 91.58 818.135 92.1533 817.908 92.66C817.695 93.1667 817.388 93.6067 816.988 93.98C816.602 94.34 816.142 94.62 815.608 94.82C815.088 95.0067 814.528 95.1 813.928 95.1ZM814.028 93.66C814.388 93.66 814.762 93.5667 815.148 93.38C815.535 93.1933 815.862 92.9067 816.128 92.52C816.408 92.1333 816.548 91.6333 816.548 91.02C816.548 90.3667 816.422 89.8467 816.168 89.46C815.915 89.06 815.588 88.7733 815.188 88.6C814.788 88.4267 814.368 88.34 813.928 88.34C813.395 88.34 812.915 88.4133 812.488 88.56C812.062 88.7067 811.708 88.86 811.428 89.02C811.415 89.22 811.395 89.4267 811.368 89.64C811.355 89.84 811.348 90.0333 811.348 90.22C811.348 91.1533 811.482 91.8667 811.748 92.36C812.028 92.8533 812.375 93.1933 812.788 93.38C813.202 93.5667 813.615 93.66 814.028 93.66ZM823.332 95.04C823.198 95.04 823.078 94.9733 822.972 94.84C822.878 94.6933 822.805 94.5333 822.752 94.36C822.698 94.1867 822.672 94.06 822.672 93.98C822.672 93.9533 822.678 93.92 822.692 93.88C822.718 93.8267 822.765 93.7867 822.832 93.76C824.192 93.2 825.272 92.4533 826.072 91.52C826.885 90.5867 827.452 89.56 827.772 88.44C827.465 88.6133 827.092 88.7667 826.652 88.9C826.212 89.0333 825.685 89.1 825.072 89.1C824.538 89.1 824.038 89.0067 823.572 88.82C823.118 88.6333 822.718 88.3667 822.372 88.02C822.025 87.66 821.752 87.2333 821.552 86.74C821.352 86.2333 821.252 85.6733 821.252 85.06C821.252 84.42 821.358 83.8467 821.572 83.34C821.798 82.8333 822.105 82.4 822.492 82.04C822.892 81.6667 823.352 81.3867 823.872 81.2C824.405 81 824.972 80.9 825.572 80.9C826.278 80.9 826.898 81.0133 827.432 81.24C827.965 81.4667 828.405 81.8 828.752 82.24C829.112 82.6667 829.378 83.1933 829.552 83.82C829.738 84.4333 829.832 85.14 829.832 85.94C829.832 86.9 829.705 87.7933 829.452 88.62C829.198 89.4467 828.865 90.2 828.452 90.88C828.038 91.5467 827.585 92.14 827.092 92.66C826.598 93.18 826.105 93.62 825.612 93.98C825.118 94.3267 824.672 94.5933 824.272 94.78C823.872 94.9533 823.558 95.04 823.332 95.04ZM825.572 87.66C826.105 87.66 826.585 87.5867 827.012 87.44C827.438 87.2933 827.792 87.14 828.072 86.98C828.098 86.78 828.118 86.58 828.132 86.38C828.145 86.1667 828.152 85.9667 828.152 85.78C828.152 84.8467 828.012 84.1333 827.732 83.64C827.465 83.1467 827.125 82.8067 826.712 82.62C826.312 82.4333 825.898 82.34 825.472 82.34C825.112 82.34 824.732 82.4333 824.332 82.62C823.945 82.8067 823.618 83.0933 823.352 83.48C823.085 83.8667 822.952 84.3667 822.952 84.98C822.952 85.6333 823.078 86.16 823.332 86.56C823.585 86.9467 823.912 87.2267 824.312 87.4C824.712 87.5733 825.132 87.66 825.572 87.66ZM751.1 118.04C750.527 118.04 750.24 117.927 750.24 117.7C750.24 117.66 750.247 117.62 750.26 117.58C750.273 117.527 750.287 117.473 750.3 117.42L755.04 104.28C755.107 104.067 755.373 103.96 755.84 103.96H756.42C756.887 103.96 757.153 104.067 757.22 104.28L761.96 117.44C762 117.533 762.02 117.62 762.02 117.7C762.02 117.927 761.733 118.04 761.16 118.04H761C760.8 118.04 760.627 118.02 760.48 117.98C760.333 117.927 760.24 117.84 760.2 117.72L759.02 114.44H753.14L752 117.72C751.96 117.84 751.867 117.927 751.72 117.98C751.573 118.02 751.4 118.04 751.2 118.04H751.1ZM753.7 112.92H758.48L756.38 106.96C756.327 106.773 756.28 106.58 756.24 106.38C756.2 106.18 756.167 105.987 756.14 105.8H756.1C756.06 105.987 756.013 106.18 755.96 106.38C755.92 106.58 755.867 106.773 755.8 106.96L753.7 112.92ZM765.666 118.04C765.132 118.04 764.866 117.893 764.866 117.6V110.58C764.866 110.033 764.846 109.58 764.806 109.22C764.766 108.86 764.726 108.587 764.686 108.4C764.646 108.2 764.626 108.087 764.626 108.06C764.626 107.967 764.666 107.893 764.746 107.84C764.839 107.773 764.946 107.727 765.066 107.7C765.186 107.66 765.306 107.633 765.426 107.62C765.546 107.607 765.639 107.6 765.706 107.6C765.866 107.6 765.986 107.673 766.066 107.82C766.159 107.967 766.226 108.147 766.266 108.36C766.319 108.56 766.366 108.747 766.406 108.92C766.752 108.44 767.119 108.073 767.506 107.82C767.906 107.553 768.312 107.42 768.726 107.42C769.112 107.42 769.399 107.487 769.586 107.62C769.786 107.74 769.886 107.933 769.886 108.2C769.886 108.32 769.866 108.467 769.826 108.64C769.799 108.813 769.752 108.967 769.686 109.1C769.632 109.22 769.566 109.28 769.486 109.28C769.352 109.28 769.219 109.247 769.086 109.18C768.966 109.1 768.732 109.06 768.386 109.06C768.039 109.06 767.726 109.16 767.446 109.36C767.166 109.56 766.946 109.767 766.786 109.98C766.626 110.18 766.546 110.28 766.546 110.28V117.6C766.546 117.893 766.279 118.04 765.746 118.04H765.666ZM775.715 118.12C775.461 118.12 775.188 118.08 774.895 118C774.601 117.933 774.321 117.807 774.055 117.62C773.788 117.42 773.568 117.14 773.395 116.78C773.221 116.407 773.135 115.933 773.135 115.36V108.98H772.135C771.868 108.98 771.735 108.78 771.735 108.38V108.14C771.735 107.74 771.868 107.54 772.135 107.54H773.135L773.375 105.44C773.401 105.147 773.615 105 774.015 105H774.215C774.615 105 774.815 105.147 774.815 105.44V107.54H776.495C776.761 107.54 776.895 107.74 776.895 108.14V108.38C776.895 108.78 776.761 108.98 776.495 108.98H774.815V115.2C774.815 115.8 774.921 116.2 775.135 116.4C775.348 116.587 775.601 116.68 775.895 116.68C776.188 116.68 776.381 116.667 776.475 116.64C776.568 116.6 776.661 116.58 776.755 116.58C776.848 116.58 776.921 116.647 776.975 116.78C777.041 116.913 777.088 117.06 777.115 117.22C777.155 117.367 777.175 117.467 777.175 117.52C777.175 117.693 777.088 117.827 776.915 117.92C776.755 118 776.561 118.053 776.335 118.08C776.108 118.107 775.901 118.12 775.715 118.12ZM781.25 118.04C780.717 118.04 780.45 117.893 780.45 117.6V107.94C780.45 107.647 780.717 107.5 781.25 107.5H781.33C781.864 107.5 782.13 107.647 782.13 107.94V117.6C782.13 117.893 781.864 118.04 781.33 118.04H781.25ZM781.29 106.1C780.97 106.1 780.744 106.06 780.61 105.98C780.477 105.9 780.41 105.793 780.41 105.66V104.46C780.41 104.327 780.477 104.22 780.61 104.14C780.744 104.06 780.97 104.02 781.29 104.02C781.61 104.02 781.837 104.06 781.97 104.14C782.104 104.207 782.17 104.313 782.17 104.46V105.66C782.17 105.793 782.104 105.9 781.97 105.98C781.837 106.06 781.61 106.1 781.29 106.1ZM790.683 118.12C789.07 118.12 787.843 117.707 787.003 116.88C786.177 116.04 785.763 114.653 785.763 112.72C785.763 111.68 785.897 110.82 786.163 110.14C786.443 109.447 786.81 108.907 787.263 108.52C787.73 108.12 788.243 107.84 788.803 107.68C789.363 107.507 789.93 107.42 790.503 107.42C791.023 107.42 791.51 107.467 791.963 107.56C792.417 107.64 792.783 107.753 793.063 107.9C793.357 108.033 793.503 108.18 793.503 108.34C793.503 108.447 793.463 108.587 793.383 108.76C793.317 108.933 793.237 109.087 793.143 109.22C793.05 109.353 792.957 109.42 792.863 109.42C792.85 109.42 792.823 109.413 792.783 109.4C792.757 109.387 792.71 109.367 792.643 109.34C792.47 109.26 792.197 109.16 791.823 109.04C791.463 108.92 791.01 108.86 790.463 108.86C789.583 108.86 788.877 109.153 788.343 109.74C787.823 110.313 787.563 111.293 787.563 112.68C787.563 114.08 787.797 115.1 788.263 115.74C788.73 116.367 789.53 116.68 790.663 116.68C791.223 116.68 791.697 116.62 792.083 116.5C792.47 116.367 792.75 116.253 792.923 116.16C792.99 116.133 793.037 116.113 793.063 116.1C793.103 116.087 793.13 116.08 793.143 116.08C793.237 116.08 793.337 116.147 793.443 116.28C793.55 116.413 793.637 116.56 793.703 116.72C793.783 116.88 793.823 117.007 793.823 117.1C793.823 117.22 793.743 117.34 793.583 117.46C793.423 117.58 793.197 117.693 792.903 117.8C792.623 117.893 792.29 117.967 791.903 118.02C791.53 118.087 791.123 118.12 790.683 118.12ZM797.87 118.04C797.337 118.04 797.07 117.893 797.07 117.6V103.4C797.07 103.107 797.337 102.96 797.87 102.96H797.95C798.484 102.96 798.75 103.107 798.75 103.4V108.8C799.097 108.453 799.53 108.14 800.05 107.86C800.584 107.567 801.17 107.42 801.81 107.42C802.13 107.42 802.47 107.467 802.83 107.56C803.204 107.64 803.55 107.793 803.87 108.02C804.204 108.247 804.47 108.573 804.67 109C804.884 109.427 804.99 109.98 804.99 110.66V117.6C804.99 117.893 804.724 118.04 804.19 118.04H804.11C803.577 118.04 803.31 117.893 803.31 117.6V110.82C803.31 110.233 803.137 109.767 802.79 109.42C802.457 109.06 801.95 108.88 801.27 108.88C800.897 108.88 800.557 108.953 800.25 109.1C799.944 109.233 799.677 109.393 799.45 109.58C799.224 109.767 799.05 109.933 798.93 110.08C798.81 110.213 798.75 110.28 798.75 110.28V117.6C798.75 117.893 798.484 118.04 797.95 118.04H797.87ZM813.079 118.12C811.572 118.12 810.419 117.667 809.619 116.76C808.832 115.853 808.439 114.54 808.439 112.82C808.439 111.087 808.839 109.753 809.639 108.82C810.439 107.887 811.586 107.42 813.079 107.42C814.546 107.42 815.666 107.887 816.439 108.82C817.226 109.74 817.619 111.073 817.619 112.82C817.619 114.553 817.232 115.873 816.459 116.78C815.699 117.673 814.572 118.12 813.079 118.12ZM813.019 116.68C814.006 116.68 814.726 116.367 815.179 115.74C815.646 115.1 815.879 114.113 815.879 112.78C815.879 111.447 815.646 110.46 815.179 109.82C814.726 109.18 814.006 108.86 813.019 108.86C812.046 108.86 811.332 109.18 810.879 109.82C810.426 110.447 810.199 111.433 810.199 112.78C810.199 114.113 810.426 115.1 810.879 115.74C811.332 116.367 812.046 116.68 813.019 116.68ZM822.206 118.04C821.672 118.04 821.406 117.893 821.406 117.6V103.4C821.406 103.107 821.672 102.96 822.206 102.96H822.286C822.819 102.96 823.086 103.107 823.086 103.4V112.34H823.166L826.986 107.78C827.079 107.673 827.226 107.6 827.426 107.56C827.626 107.52 827.832 107.5 828.046 107.5H828.126C828.592 107.5 828.826 107.587 828.826 107.76C828.826 107.88 828.759 108.013 828.626 108.16L824.466 113.08V112.04L829.026 117.44C829.146 117.573 829.206 117.68 829.206 117.76C829.206 117.947 828.912 118.04 828.326 118.04H828.246C828.032 118.04 827.826 118.027 827.626 118C827.426 117.973 827.272 117.9 827.166 117.78L823.166 113.04H823.086V117.6C823.086 117.893 822.819 118.04 822.286 118.04H822.206ZM836.15 118.12C834.497 118.12 833.263 117.687 832.45 116.82C831.65 115.953 831.25 114.627 831.25 112.84C831.25 111.653 831.423 110.66 831.77 109.86C832.13 109.06 832.657 108.453 833.35 108.04C834.043 107.627 834.897 107.42 835.91 107.42C836.83 107.42 837.59 107.62 838.19 108.02C838.803 108.42 839.263 109.007 839.57 109.78C839.877 110.553 840.03 111.507 840.03 112.64C840.03 112.72 839.99 112.827 839.91 112.96C839.843 113.08 839.757 113.193 839.65 113.3C839.543 113.407 839.45 113.46 839.37 113.46H833.05C833.13 114.567 833.417 115.38 833.91 115.9C834.403 116.42 835.143 116.68 836.13 116.68C836.717 116.68 837.21 116.613 837.61 116.48C838.023 116.333 838.35 116.193 838.59 116.06C838.83 115.913 838.983 115.84 839.05 115.84C839.143 115.84 839.243 115.907 839.35 116.04C839.457 116.173 839.55 116.32 839.63 116.48C839.71 116.64 839.75 116.76 839.75 116.84C839.75 116.96 839.657 117.093 839.47 117.24C839.283 117.387 839.023 117.527 838.69 117.66C838.37 117.793 837.99 117.907 837.55 118C837.123 118.08 836.657 118.12 836.15 118.12ZM833.05 112.02H838.25C838.25 110.967 838.05 110.18 837.65 109.66C837.25 109.127 836.65 108.86 835.85 108.86C834.983 108.86 834.317 109.127 833.85 109.66C833.383 110.18 833.117 110.967 833.05 112.02ZM854.656 118.12C852.669 118.12 851.143 117.547 850.076 116.4C849.009 115.253 848.476 113.493 848.476 111.12C848.476 108.627 849.029 106.8 850.136 105.64C851.256 104.467 852.863 103.88 854.956 103.88C855.449 103.88 855.923 103.92 856.376 104C856.843 104.08 857.256 104.18 857.616 104.3C857.976 104.42 858.256 104.553 858.456 104.7C858.669 104.847 858.776 104.987 858.776 105.12C858.776 105.227 858.736 105.373 858.656 105.56C858.576 105.747 858.483 105.913 858.376 106.06C858.283 106.207 858.189 106.28 858.096 106.28C858.029 106.28 857.869 106.207 857.616 106.06C857.376 105.913 857.036 105.767 856.596 105.62C856.169 105.473 855.636 105.4 854.996 105.4C853.823 105.4 852.889 105.62 852.196 106.06C851.516 106.5 851.029 107.133 850.736 107.96C850.443 108.787 850.296 109.78 850.296 110.94C850.296 111.7 850.363 112.427 850.496 113.12C850.629 113.8 850.863 114.4 851.196 114.92C851.529 115.44 851.983 115.853 852.556 116.16C853.143 116.453 853.883 116.6 854.776 116.6C855.389 116.6 855.956 116.567 856.476 116.5C857.009 116.42 857.383 116.34 857.596 116.26L857.356 117.02V112.3H855.016C854.749 112.3 854.616 112.1 854.616 111.7V111.38C854.616 110.98 854.749 110.78 855.016 110.78H858.516C858.916 110.78 859.116 110.98 859.116 111.38V116.68C859.116 116.96 858.989 117.193 858.736 117.38C858.496 117.567 858.163 117.713 857.736 117.82C857.323 117.927 856.849 118 856.316 118.04C855.783 118.093 855.229 118.12 854.656 118.12ZM864.173 118.04C863.64 118.04 863.373 117.893 863.373 117.6V110.58C863.373 110.033 863.353 109.58 863.313 109.22C863.273 108.86 863.233 108.587 863.193 108.4C863.153 108.2 863.133 108.087 863.133 108.06C863.133 107.967 863.173 107.893 863.253 107.84C863.347 107.773 863.453 107.727 863.573 107.7C863.693 107.66 863.813 107.633 863.933 107.62C864.053 107.607 864.147 107.6 864.213 107.6C864.373 107.6 864.493 107.673 864.573 107.82C864.667 107.967 864.733 108.147 864.773 108.36C864.827 108.56 864.873 108.747 864.913 108.92C865.26 108.44 865.627 108.073 866.013 107.82C866.413 107.553 866.82 107.42 867.233 107.42C867.62 107.42 867.907 107.487 868.093 107.62C868.293 107.74 868.393 107.933 868.393 108.2C868.393 108.32 868.373 108.467 868.333 108.64C868.307 108.813 868.26 108.967 868.193 109.1C868.14 109.22 868.073 109.28 867.993 109.28C867.86 109.28 867.727 109.247 867.593 109.18C867.473 109.1 867.24 109.06 866.893 109.06C866.547 109.06 866.233 109.16 865.953 109.36C865.673 109.56 865.453 109.767 865.293 109.98C865.133 110.18 865.053 110.28 865.053 110.28V117.6C865.053 117.893 864.787 118.04 864.253 118.04H864.173ZM875.307 118.12C873.654 118.12 872.42 117.687 871.607 116.82C870.807 115.953 870.407 114.627 870.407 112.84C870.407 111.653 870.58 110.66 870.927 109.86C871.287 109.06 871.814 108.453 872.507 108.04C873.2 107.627 874.054 107.42 875.067 107.42C875.987 107.42 876.747 107.62 877.347 108.02C877.96 108.42 878.42 109.007 878.727 109.78C879.034 110.553 879.187 111.507 879.187 112.64C879.187 112.72 879.147 112.827 879.067 112.96C879 113.08 878.914 113.193 878.807 113.3C878.7 113.407 878.607 113.46 878.527 113.46H872.207C872.287 114.567 872.574 115.38 873.067 115.9C873.56 116.42 874.3 116.68 875.287 116.68C875.874 116.68 876.367 116.613 876.767 116.48C877.18 116.333 877.507 116.193 877.747 116.06C877.987 115.913 878.14 115.84 878.207 115.84C878.3 115.84 878.4 115.907 878.507 116.04C878.614 116.173 878.707 116.32 878.787 116.48C878.867 116.64 878.907 116.76 878.907 116.84C878.907 116.96 878.814 117.093 878.627 117.24C878.44 117.387 878.18 117.527 877.847 117.66C877.527 117.793 877.147 117.907 876.707 118C876.28 118.08 875.814 118.12 875.307 118.12ZM872.207 112.02H877.407C877.407 110.967 877.207 110.18 876.807 109.66C876.407 109.127 875.807 108.86 875.007 108.86C874.14 108.86 873.474 109.127 873.007 109.66C872.54 110.18 872.274 110.967 872.207 112.02ZM886.693 118.12C885.04 118.12 883.806 117.687 882.993 116.82C882.193 115.953 881.793 114.627 881.793 112.84C881.793 111.653 881.966 110.66 882.313 109.86C882.673 109.06 883.2 108.453 883.893 108.04C884.586 107.627 885.44 107.42 886.453 107.42C887.373 107.42 888.133 107.62 888.733 108.02C889.346 108.42 889.806 109.007 890.113 109.78C890.42 110.553 890.573 111.507 890.573 112.64C890.573 112.72 890.533 112.827 890.453 112.96C890.386 113.08 890.3 113.193 890.193 113.3C890.086 113.407 889.993 113.46 889.913 113.46H883.593C883.673 114.567 883.96 115.38 884.453 115.9C884.946 116.42 885.686 116.68 886.673 116.68C887.26 116.68 887.753 116.613 888.153 116.48C888.566 116.333 888.893 116.193 889.133 116.06C889.373 115.913 889.526 115.84 889.593 115.84C889.686 115.84 889.786 115.907 889.893 116.04C890 116.173 890.093 116.32 890.173 116.48C890.253 116.64 890.293 116.76 890.293 116.84C890.293 116.96 890.2 117.093 890.013 117.24C889.826 117.387 889.566 117.527 889.233 117.66C888.913 117.793 888.533 117.907 888.093 118C887.666 118.08 887.2 118.12 886.693 118.12ZM883.593 112.02H888.793C888.793 110.967 888.593 110.18 888.193 109.66C887.793 109.127 887.193 108.86 886.393 108.86C885.526 108.86 884.86 109.127 884.393 109.66C883.926 110.18 883.66 110.967 883.593 112.02ZM894.794 118.04C894.261 118.04 893.994 117.893 893.994 117.6V110.58C893.994 110.033 893.974 109.58 893.934 109.22C893.894 108.86 893.854 108.587 893.814 108.4C893.774 108.2 893.754 108.087 893.754 108.06C893.754 107.967 893.794 107.893 893.874 107.84C893.968 107.773 894.074 107.727 894.194 107.7C894.314 107.66 894.434 107.633 894.554 107.62C894.674 107.607 894.768 107.6 894.834 107.6C894.994 107.6 895.114 107.673 895.194 107.82C895.288 107.967 895.354 108.147 895.394 108.36C895.448 108.56 895.494 108.747 895.534 108.92C895.961 108.453 896.448 108.087 896.994 107.82C897.541 107.553 898.094 107.42 898.654 107.42C899.681 107.42 900.481 107.707 901.054 108.28C901.628 108.853 901.914 109.647 901.914 110.66V117.6C901.914 117.893 901.648 118.04 901.114 118.04H901.034C900.501 118.04 900.234 117.893 900.234 117.6V110.82C900.234 110.207 900.054 109.733 899.694 109.4C899.348 109.053 898.848 108.88 898.194 108.88C897.741 108.88 897.288 109.007 896.834 109.26C896.394 109.513 896.008 109.853 895.674 110.28V117.6C895.674 117.893 895.408 118.04 894.874 118.04H894.794Z" fill="black"/>
<g filter="url(#filter2_b_125_60)">
<path d="M196.982 511.414C196.982 505.523 192.207 500.747 186.315 500.747C180.424 500.747 175.649 505.523 175.649 511.414C175.649 517.305 180.424 522.081 186.315 522.081C192.207 522.081 196.982 517.305 196.982 511.414ZM419.125 509.414L186.315 509.414L186.315 513.414L419.125 513.414L419.125 509.414Z" fill="black"/>
</g>
<path d="M265.544 469.035C265.171 469.035 264.984 468.922 264.984 468.695C264.984 468.642 264.998 468.528 265.024 468.355C265.064 468.168 265.131 467.822 265.224 467.315C265.318 466.808 265.451 466.062 265.624 465.075H264.104C263.838 465.075 263.704 464.875 263.704 464.475V464.135C263.704 463.735 263.838 463.535 264.104 463.535H265.924L266.444 460.595H264.824C264.558 460.595 264.424 460.395 264.424 459.995V459.655C264.424 459.255 264.558 459.055 264.824 459.055H266.704L267.324 455.715C267.351 455.568 267.411 455.462 267.504 455.395C267.598 455.315 267.831 455.275 268.204 455.275H268.284C268.658 455.275 268.844 455.375 268.844 455.575L268.184 459.055H270.564L271.164 455.715C271.191 455.568 271.251 455.462 271.344 455.395C271.438 455.315 271.671 455.275 272.044 455.275H272.144C272.518 455.275 272.704 455.375 272.704 455.575L272.084 459.055H273.444C273.711 459.055 273.844 459.255 273.844 459.655V459.995C273.844 460.395 273.711 460.595 273.444 460.595H271.784L271.284 463.535H272.804C273.071 463.535 273.204 463.735 273.204 464.135V464.475C273.204 464.875 273.071 465.075 272.804 465.075H270.964L270.344 468.595C270.331 468.728 270.271 468.835 270.164 468.915C270.058 468.995 269.831 469.035 269.484 469.035H269.404C269.031 469.035 268.844 468.922 268.844 468.695C268.844 468.642 268.858 468.528 268.884 468.355C268.924 468.168 268.991 467.822 269.084 467.315C269.178 466.808 269.311 466.062 269.484 465.075H267.124L266.484 468.595C266.458 468.728 266.398 468.835 266.304 468.915C266.211 468.995 265.984 469.035 265.624 469.035H265.544ZM267.424 463.535H269.784L270.304 460.595H267.944L267.424 463.535ZM277.468 468.995C277.068 468.995 276.868 468.795 276.868 468.395V455.595C276.868 455.195 277.068 454.995 277.468 454.995H284.448C284.715 454.995 284.848 455.195 284.848 455.595V455.915C284.848 456.315 284.715 456.515 284.448 456.515H278.628V461.075H283.848C284.115 461.075 284.248 461.275 284.248 461.675V461.995C284.248 462.395 284.115 462.595 283.848 462.595H278.628V467.475H284.468C284.735 467.475 284.868 467.675 284.868 468.075V468.395C284.868 468.795 284.735 468.995 284.468 468.995H277.468ZM291.546 469.115C290.959 469.115 290.419 469.075 289.926 468.995C289.446 468.928 289.026 468.842 288.666 468.735C288.306 468.615 288.026 468.488 287.826 468.355C287.626 468.222 287.526 468.095 287.526 467.975C287.526 467.842 287.566 467.702 287.646 467.555C287.739 467.395 287.839 467.262 287.946 467.155C288.066 467.035 288.159 466.975 288.226 466.975C288.359 466.975 288.559 467.035 288.826 467.155C289.093 467.262 289.439 467.375 289.866 467.495C290.293 467.615 290.799 467.675 291.386 467.675C291.786 467.675 292.206 467.595 292.646 467.435C293.099 467.275 293.479 466.995 293.786 466.595C294.106 466.195 294.266 465.635 294.266 464.915C294.266 463.888 293.993 463.195 293.446 462.835C292.899 462.462 292.173 462.275 291.266 462.275H290.606C290.339 462.275 290.206 462.075 290.206 461.675V461.455C290.206 461.055 290.339 460.855 290.606 460.855H291.186C291.879 460.855 292.413 460.702 292.786 460.395C293.173 460.088 293.446 459.735 293.606 459.335C293.766 458.922 293.846 458.555 293.846 458.235C293.846 457.982 293.779 457.708 293.646 457.415C293.526 457.108 293.293 456.848 292.946 456.635C292.613 456.422 292.119 456.315 291.466 456.315C290.866 456.315 290.373 456.368 289.986 456.475C289.599 456.582 289.299 456.695 289.086 456.815C288.873 456.922 288.706 456.975 288.586 456.975C288.519 456.975 288.433 456.908 288.326 456.775C288.219 456.642 288.126 456.495 288.046 456.335C287.966 456.162 287.926 456.028 287.926 455.935C287.926 455.788 288.053 455.648 288.306 455.515C288.559 455.382 288.873 455.268 289.246 455.175C289.633 455.082 290.026 455.008 290.426 454.955C290.839 454.902 291.199 454.875 291.506 454.875C292.693 454.875 293.659 455.168 294.406 455.755C295.166 456.342 295.546 457.228 295.546 458.415C295.546 459.108 295.333 459.688 294.906 460.155C294.493 460.622 294.019 460.962 293.486 461.175V461.255C293.886 461.362 294.279 461.575 294.666 461.895C295.053 462.202 295.373 462.608 295.626 463.115C295.879 463.622 296.006 464.228 296.006 464.935C296.006 465.708 295.866 466.362 295.586 466.895C295.319 467.428 294.959 467.862 294.506 468.195C294.066 468.515 293.586 468.748 293.066 468.895C292.546 469.042 292.039 469.115 291.546 469.115ZM300.689 468.995C300.289 468.995 300.089 468.795 300.089 468.395V455.595C300.089 455.195 300.289 454.995 300.689 454.995H307.669C307.936 454.995 308.069 455.195 308.069 455.595V455.915C308.069 456.315 307.936 456.515 307.669 456.515H301.849V461.075H307.069C307.336 461.075 307.469 461.275 307.469 461.675V461.995C307.469 462.395 307.336 462.595 307.069 462.595H301.849V467.475H307.689C307.956 467.475 308.089 467.675 308.089 468.075V468.395C308.089 468.795 307.956 468.995 307.689 468.995H300.689ZM310.947 469.035C310.374 469.035 310.087 468.922 310.087 468.695C310.087 468.655 310.094 468.615 310.107 468.575C310.12 468.522 310.134 468.468 310.147 468.415L314.887 455.275C314.954 455.062 315.22 454.955 315.687 454.955H316.267C316.734 454.955 317 455.062 317.067 455.275L321.807 468.435C321.847 468.528 321.867 468.615 321.867 468.695C321.867 468.922 321.58 469.035 321.007 469.035H320.847C320.647 469.035 320.474 469.015 320.327 468.975C320.18 468.922 320.087 468.835 320.047 468.715L318.867 465.435H312.987L311.847 468.715C311.807 468.835 311.714 468.922 311.567 468.975C311.42 469.015 311.247 469.035 311.047 469.035H310.947ZM313.547 463.915H318.327L316.227 457.955C316.174 457.768 316.127 457.575 316.087 457.375C316.047 457.175 316.014 456.982 315.987 456.795H315.947C315.907 456.982 315.86 457.175 315.807 457.375C315.767 457.575 315.714 457.768 315.647 457.955L313.547 463.915ZM325.453 468.995C325.053 468.995 324.853 468.795 324.853 468.395V455.595C324.853 455.195 325.053 454.995 325.453 454.995H329.493C330.639 454.995 331.679 455.222 332.613 455.675C333.546 456.115 334.286 456.848 334.833 457.875C335.393 458.888 335.673 460.262 335.673 461.995C335.673 463.288 335.513 464.388 335.193 465.295C334.873 466.188 334.433 466.908 333.873 467.455C333.313 467.988 332.659 468.382 331.913 468.635C331.166 468.875 330.359 468.995 329.493 468.995H325.453ZM326.613 467.475H329.353C330.193 467.475 330.953 467.295 331.633 466.935C332.313 466.575 332.853 465.995 333.253 465.195C333.653 464.395 333.853 463.328 333.853 461.995C333.853 460.662 333.653 459.595 333.253 458.795C332.853 457.995 332.313 457.415 331.633 457.055C330.953 456.695 330.193 456.515 329.353 456.515H326.613V467.475ZM345.139 469.035C344.739 469.035 344.539 468.888 344.539 468.595V465.655H338.459C338.392 465.655 338.319 465.595 338.239 465.475C338.159 465.355 338.092 465.215 338.039 465.055C337.999 464.895 337.979 464.755 337.979 464.635C337.979 464.515 337.992 464.442 338.019 464.415L344.599 455.235C344.666 455.142 344.759 455.075 344.879 455.035C345.012 454.982 345.146 454.955 345.279 454.955H345.599C345.999 454.955 346.199 455.102 346.199 455.395V464.215H347.539C347.806 464.215 347.939 464.415 347.939 464.815V465.055C347.939 465.455 347.806 465.655 347.539 465.655H346.199V468.595C346.199 468.888 345.999 469.035 345.599 469.035H345.139ZM339.959 464.215H344.539V459.255C344.539 459.028 344.546 458.768 344.559 458.475C344.572 458.182 344.599 457.928 344.639 457.715L344.559 457.675L339.959 464.215ZM268.864 492.035C268.331 492.035 268.064 491.888 268.064 491.595V479.515H264.224C263.958 479.515 263.824 479.315 263.824 478.915V478.595C263.824 478.195 263.958 477.995 264.224 477.995H273.604C273.871 477.995 274.004 478.195 274.004 478.595V478.915C274.004 479.315 273.871 479.515 273.604 479.515H269.824V491.595C269.824 491.888 269.558 492.035 269.024 492.035H268.864ZM279.795 492.115C278.141 492.115 276.908 491.682 276.095 490.815C275.295 489.948 274.895 488.622 274.895 486.835C274.895 485.648 275.068 484.655 275.415 483.855C275.775 483.055 276.301 482.448 276.995 482.035C277.688 481.622 278.541 481.415 279.555 481.415C280.475 481.415 281.235 481.615 281.835 482.015C282.448 482.415 282.908 483.002 283.215 483.775C283.521 484.548 283.675 485.502 283.675 486.635C283.675 486.715 283.635 486.822 283.555 486.955C283.488 487.075 283.401 487.188 283.295 487.295C283.188 487.402 283.095 487.455 283.015 487.455H276.695C276.775 488.562 277.061 489.375 277.555 489.895C278.048 490.415 278.788 490.675 279.775 490.675C280.361 490.675 280.855 490.608 281.255 490.475C281.668 490.328 281.995 490.188 282.235 490.055C282.475 489.908 282.628 489.835 282.695 489.835C282.788 489.835 282.888 489.902 282.995 490.035C283.101 490.168 283.195 490.315 283.275 490.475C283.355 490.635 283.395 490.755 283.395 490.835C283.395 490.955 283.301 491.088 283.115 491.235C282.928 491.382 282.668 491.522 282.335 491.655C282.015 491.788 281.635 491.902 281.195 491.995C280.768 492.075 280.301 492.115 279.795 492.115ZM276.695 486.015H281.895C281.895 484.962 281.695 484.175 281.295 483.655C280.895 483.122 280.295 482.855 279.495 482.855C278.628 482.855 277.961 483.122 277.495 483.655C277.028 484.175 276.761 484.962 276.695 486.015ZM289.776 492.115C288.803 492.115 287.989 491.875 287.336 491.395C286.683 490.902 286.356 490.142 286.356 489.115C286.356 488.275 286.556 487.615 286.956 487.135C287.356 486.642 287.883 486.282 288.536 486.055C289.189 485.815 289.903 485.662 290.676 485.595C291.463 485.528 292.236 485.488 292.996 485.475V484.535C292.996 484.082 292.836 483.688 292.516 483.355C292.196 483.022 291.623 482.855 290.796 482.855C290.196 482.855 289.669 482.928 289.216 483.075C288.776 483.208 288.423 483.348 288.156 483.495C287.903 483.628 287.743 483.695 287.676 483.695C287.583 483.695 287.483 483.628 287.376 483.495C287.269 483.362 287.176 483.215 287.096 483.055C287.016 482.882 286.976 482.762 286.976 482.695C286.976 482.522 287.149 482.335 287.496 482.135C287.843 481.935 288.303 481.768 288.876 481.635C289.449 481.488 290.069 481.415 290.736 481.415C291.563 481.415 292.269 481.542 292.856 481.795C293.443 482.035 293.889 482.388 294.196 482.855C294.516 483.322 294.676 483.888 294.676 484.555V489.035C294.676 489.582 294.696 490.035 294.736 490.395C294.776 490.755 294.816 491.028 294.856 491.215C294.896 491.402 294.916 491.515 294.916 491.555C294.916 491.648 294.869 491.728 294.776 491.795C294.696 491.848 294.596 491.895 294.476 491.935C294.356 491.962 294.236 491.982 294.116 491.995C293.996 492.008 293.903 492.015 293.836 492.015C293.676 492.015 293.549 491.942 293.456 491.795C293.376 491.635 293.309 491.448 293.256 491.235C293.216 491.008 293.176 490.802 293.136 490.615C292.883 490.895 292.589 491.148 292.256 491.375C291.923 491.602 291.549 491.782 291.136 491.915C290.736 492.048 290.283 492.115 289.776 492.115ZM289.856 490.655C290.589 490.655 291.196 490.515 291.676 490.235C292.156 489.955 292.596 489.635 292.996 489.275V486.915C292.476 486.915 291.936 486.935 291.376 486.975C290.816 487.002 290.289 487.075 289.796 487.195C289.303 487.315 288.903 487.522 288.596 487.815C288.303 488.095 288.156 488.495 288.156 489.015C288.156 489.548 288.296 489.955 288.576 490.235C288.869 490.515 289.296 490.655 289.856 490.655ZM309.999 492.115C308.012 492.115 306.486 491.542 305.419 490.395C304.352 489.248 303.819 487.488 303.819 485.115C303.819 482.622 304.372 480.795 305.479 479.635C306.599 478.462 308.206 477.875 310.299 477.875C310.792 477.875 311.266 477.915 311.719 477.995C312.186 478.075 312.599 478.175 312.959 478.295C313.319 478.415 313.599 478.548 313.799 478.695C314.012 478.842 314.119 478.982 314.119 479.115C314.119 479.222 314.079 479.368 313.999 479.555C313.919 479.742 313.826 479.908 313.719 480.055C313.626 480.202 313.532 480.275 313.439 480.275C313.372 480.275 313.212 480.202 312.959 480.055C312.719 479.908 312.379 479.762 311.939 479.615C311.512 479.468 310.979 479.395 310.339 479.395C309.166 479.395 308.232 479.615 307.539 480.055C306.859 480.495 306.372 481.128 306.079 481.955C305.786 482.782 305.639 483.775 305.639 484.935C305.639 485.695 305.706 486.422 305.839 487.115C305.972 487.795 306.206 488.395 306.539 488.915C306.872 489.435 307.326 489.848 307.899 490.155C308.486 490.448 309.226 490.595 310.119 490.595C310.732 490.595 311.299 490.562 311.819 490.495C312.352 490.415 312.726 490.335 312.939 490.255L312.699 491.015V486.295H310.359C310.092 486.295 309.959 486.095 309.959 485.695V485.375C309.959 484.975 310.092 484.775 310.359 484.775H313.859C314.259 484.775 314.459 484.975 314.459 485.375V490.675C314.459 490.955 314.332 491.188 314.079 491.375C313.839 491.562 313.506 491.708 313.079 491.815C312.666 491.922 312.192 491.995 311.659 492.035C311.126 492.088 310.572 492.115 309.999 492.115ZM319.517 492.035C318.983 492.035 318.717 491.888 318.717 491.595V484.575C318.717 484.028 318.697 483.575 318.657 483.215C318.617 482.855 318.577 482.582 318.537 482.395C318.497 482.195 318.477 482.082 318.477 482.055C318.477 481.962 318.517 481.888 318.597 481.835C318.69 481.768 318.797 481.722 318.917 481.695C319.037 481.655 319.157 481.628 319.277 481.615C319.397 481.602 319.49 481.595 319.557 481.595C319.717 481.595 319.837 481.668 319.917 481.815C320.01 481.962 320.077 482.142 320.117 482.355C320.17 482.555 320.217 482.742 320.257 482.915C320.603 482.435 320.97 482.068 321.357 481.815C321.757 481.548 322.163 481.415 322.577 481.415C322.963 481.415 323.25 481.482 323.437 481.615C323.637 481.735 323.737 481.928 323.737 482.195C323.737 482.315 323.717 482.462 323.677 482.635C323.65 482.808 323.603 482.962 323.537 483.095C323.483 483.215 323.417 483.275 323.337 483.275C323.203 483.275 323.07 483.242 322.937 483.175C322.817 483.095 322.583 483.055 322.237 483.055C321.89 483.055 321.577 483.155 321.297 483.355C321.017 483.555 320.797 483.762 320.637 483.975C320.477 484.175 320.397 484.275 320.397 484.275V491.595C320.397 491.888 320.13 492.035 319.597 492.035H319.517ZM330.65 492.115C328.997 492.115 327.764 491.682 326.95 490.815C326.15 489.948 325.75 488.622 325.75 486.835C325.75 485.648 325.924 484.655 326.27 483.855C326.63 483.055 327.157 482.448 327.85 482.035C328.544 481.622 329.397 481.415 330.41 481.415C331.33 481.415 332.09 481.615 332.69 482.015C333.304 482.415 333.764 483.002 334.07 483.775C334.377 484.548 334.53 485.502 334.53 486.635C334.53 486.715 334.49 486.822 334.41 486.955C334.344 487.075 334.257 487.188 334.15 487.295C334.044 487.402 333.95 487.455 333.87 487.455H327.55C327.63 488.562 327.917 489.375 328.41 489.895C328.904 490.415 329.644 490.675 330.63 490.675C331.217 490.675 331.71 490.608 332.11 490.475C332.524 490.328 332.85 490.188 333.09 490.055C333.33 489.908 333.484 489.835 333.55 489.835C333.644 489.835 333.744 489.902 333.85 490.035C333.957 490.168 334.05 490.315 334.13 490.475C334.21 490.635 334.25 490.755 334.25 490.835C334.25 490.955 334.157 491.088 333.97 491.235C333.784 491.382 333.524 491.522 333.19 491.655C332.87 491.788 332.49 491.902 332.05 491.995C331.624 492.075 331.157 492.115 330.65 492.115ZM327.55 486.015H332.75C332.75 484.962 332.55 484.175 332.15 483.655C331.75 483.122 331.15 482.855 330.35 482.855C329.484 482.855 328.817 483.122 328.35 483.655C327.884 484.175 327.617 484.962 327.55 486.015ZM342.036 492.115C340.383 492.115 339.149 491.682 338.336 490.815C337.536 489.948 337.136 488.622 337.136 486.835C337.136 485.648 337.309 484.655 337.656 483.855C338.016 483.055 338.543 482.448 339.236 482.035C339.929 481.622 340.783 481.415 341.796 481.415C342.716 481.415 343.476 481.615 344.076 482.015C344.689 482.415 345.149 483.002 345.456 483.775C345.763 484.548 345.916 485.502 345.916 486.635C345.916 486.715 345.876 486.822 345.796 486.955C345.729 487.075 345.643 487.188 345.536 487.295C345.429 487.402 345.336 487.455 345.256 487.455H338.936C339.016 488.562 339.303 489.375 339.796 489.895C340.289 490.415 341.029 490.675 342.016 490.675C342.603 490.675 343.096 490.608 343.496 490.475C343.909 490.328 344.236 490.188 344.476 490.055C344.716 489.908 344.869 489.835 344.936 489.835C345.029 489.835 345.129 489.902 345.236 490.035C345.343 490.168 345.436 490.315 345.516 490.475C345.596 490.635 345.636 490.755 345.636 490.835C345.636 490.955 345.543 491.088 345.356 491.235C345.169 491.382 344.909 491.522 344.576 491.655C344.256 491.788 343.876 491.902 343.436 491.995C343.009 492.075 342.543 492.115 342.036 492.115ZM338.936 486.015H344.136C344.136 484.962 343.936 484.175 343.536 483.655C343.136 483.122 342.536 482.855 341.736 482.855C340.869 482.855 340.203 483.122 339.736 483.655C339.269 484.175 339.003 484.962 338.936 486.015ZM350.137 492.035C349.604 492.035 349.337 491.888 349.337 491.595V484.575C349.337 484.028 349.317 483.575 349.277 483.215C349.237 482.855 349.197 482.582 349.157 482.395C349.117 482.195 349.097 482.082 349.097 482.055C349.097 481.962 349.137 481.888 349.217 481.835C349.311 481.768 349.417 481.722 349.537 481.695C349.657 481.655 349.777 481.628 349.897 481.615C350.017 481.602 350.111 481.595 350.177 481.595C350.337 481.595 350.457 481.668 350.537 481.815C350.631 481.962 350.697 482.142 350.737 482.355C350.791 482.555 350.837 482.742 350.877 482.915C351.304 482.448 351.791 482.082 352.337 481.815C352.884 481.548 353.437 481.415 353.997 481.415C355.024 481.415 355.824 481.702 356.397 482.275C356.971 482.848 357.257 483.642 357.257 484.655V491.595C357.257 491.888 356.991 492.035 356.457 492.035H356.377C355.844 492.035 355.577 491.888 355.577 491.595V484.815C355.577 484.202 355.397 483.728 355.037 483.395C354.691 483.048 354.191 482.875 353.537 482.875C353.084 482.875 352.631 483.002 352.177 483.255C351.737 483.508 351.351 483.848 351.017 484.275V491.595C351.017 491.888 350.751 492.035 350.217 492.035H350.137Z" fill="black"/>
<path d="M752.913 469.035C752.539 469.035 752.353 468.922 752.353 468.695C752.353 468.642 752.366 468.528 752.393 468.355C752.433 468.168 752.499 467.822 752.593 467.315C752.686 466.808 752.819 466.062 752.993 465.075H751.473C751.206 465.075 751.073 464.875 751.073 464.475V464.135C751.073 463.735 751.206 463.535 751.473 463.535H753.293L753.813 460.595H752.193C751.926 460.595 751.793 460.395 751.793 459.995V459.655C751.793 459.255 751.926 459.055 752.193 459.055H754.073L754.693 455.715C754.719 455.568 754.779 455.462 754.873 455.395C754.966 455.315 755.199 455.275 755.573 455.275H755.653C756.026 455.275 756.213 455.375 756.213 455.575L755.553 459.055H757.933L758.533 455.715C758.559 455.568 758.619 455.462 758.713 455.395C758.806 455.315 759.039 455.275 759.413 455.275H759.513C759.886 455.275 760.073 455.375 760.073 455.575L759.453 459.055H760.813C761.079 459.055 761.213 459.255 761.213 459.655V459.995C761.213 460.395 761.079 460.595 760.813 460.595H759.153L758.653 463.535H760.173C760.439 463.535 760.573 463.735 760.573 464.135V464.475C760.573 464.875 760.439 465.075 760.173 465.075H758.333L757.713 468.595C757.699 468.728 757.639 468.835 757.533 468.915C757.426 468.995 757.199 469.035 756.853 469.035H756.773C756.399 469.035 756.213 468.922 756.213 468.695C756.213 468.642 756.226 468.528 756.253 468.355C756.293 468.168 756.359 467.822 756.453 467.315C756.546 466.808 756.679 466.062 756.853 465.075H754.493L753.853 468.595C753.826 468.728 753.766 468.835 753.673 468.915C753.579 468.995 753.353 469.035 752.993 469.035H752.913ZM754.793 463.535H757.153L757.673 460.595H755.313L754.793 463.535ZM764.816 468.995C764.416 468.995 764.216 468.795 764.216 468.395V455.595C764.216 455.195 764.416 454.995 764.816 454.995H768.856C770.003 454.995 771.043 455.222 771.976 455.675C772.91 456.115 773.65 456.848 774.196 457.875C774.756 458.888 775.036 460.262 775.036 461.995C775.036 463.288 774.876 464.388 774.556 465.295C774.236 466.188 773.796 466.908 773.236 467.455C772.676 467.988 772.023 468.382 771.276 468.635C770.53 468.875 769.723 468.995 768.856 468.995H764.816ZM765.976 467.475H768.716C769.556 467.475 770.316 467.295 770.996 466.935C771.676 466.575 772.216 465.995 772.616 465.195C773.016 464.395 773.216 463.328 773.216 461.995C773.216 460.662 773.016 459.595 772.616 458.795C772.216 457.995 771.676 457.415 770.996 457.055C770.316 456.695 769.556 456.515 768.716 456.515H765.976V467.475ZM780.163 469.035C780.029 469.035 779.909 468.968 779.803 468.835C779.709 468.688 779.636 468.528 779.583 468.355C779.529 468.182 779.503 468.055 779.503 467.975C779.503 467.948 779.509 467.915 779.523 467.875C779.549 467.822 779.596 467.782 779.663 467.755C781.023 467.195 782.103 466.448 782.903 465.515C783.716 464.582 784.283 463.555 784.603 462.435C784.296 462.608 783.923 462.762 783.483 462.895C783.043 463.028 782.516 463.095 781.903 463.095C781.369 463.095 780.869 463.002 780.403 462.815C779.949 462.628 779.549 462.362 779.203 462.015C778.856 461.655 778.583 461.228 778.383 460.735C778.183 460.228 778.083 459.668 778.083 459.055C778.083 458.415 778.189 457.842 778.403 457.335C778.629 456.828 778.936 456.395 779.323 456.035C779.723 455.662 780.183 455.382 780.703 455.195C781.236 454.995 781.803 454.895 782.403 454.895C783.109 454.895 783.729 455.008 784.263 455.235C784.796 455.462 785.236 455.795 785.583 456.235C785.943 456.662 786.209 457.188 786.383 457.815C786.569 458.428 786.663 459.135 786.663 459.935C786.663 460.895 786.536 461.788 786.283 462.615C786.029 463.442 785.696 464.195 785.283 464.875C784.869 465.542 784.416 466.135 783.923 466.655C783.429 467.175 782.936 467.615 782.443 467.975C781.949 468.322 781.503 468.588 781.103 468.775C780.703 468.948 780.389 469.035 780.163 469.035ZM782.403 461.655C782.936 461.655 783.416 461.582 783.843 461.435C784.269 461.288 784.623 461.135 784.903 460.975C784.929 460.775 784.949 460.575 784.963 460.375C784.976 460.162 784.983 459.962 784.983 459.775C784.983 458.842 784.843 458.128 784.563 457.635C784.296 457.142 783.956 456.802 783.543 456.615C783.143 456.428 782.729 456.335 782.303 456.335C781.943 456.335 781.563 456.428 781.163 456.615C780.776 456.802 780.449 457.088 780.183 457.475C779.916 457.862 779.783 458.362 779.783 458.975C779.783 459.628 779.909 460.155 780.163 460.555C780.416 460.942 780.743 461.222 781.143 461.395C781.543 461.568 781.963 461.655 782.403 461.655ZM791.026 468.995C790.626 468.995 790.426 468.795 790.426 468.395V455.595C790.426 455.195 790.626 454.995 791.026 454.995H795.066C796.212 454.995 797.252 455.222 798.186 455.675C799.119 456.115 799.859 456.848 800.406 457.875C800.966 458.888 801.246 460.262 801.246 461.995C801.246 463.288 801.086 464.388 800.766 465.295C800.446 466.188 800.006 466.908 799.446 467.455C798.886 467.988 798.232 468.382 797.486 468.635C796.739 468.875 795.932 468.995 795.066 468.995H791.026ZM792.186 467.475H794.926C795.766 467.475 796.526 467.295 797.206 466.935C797.886 466.575 798.426 465.995 798.826 465.195C799.226 464.395 799.426 463.328 799.426 461.995C799.426 460.662 799.226 459.595 798.826 458.795C798.426 457.995 797.886 457.415 797.206 457.055C796.526 456.695 795.766 456.515 794.926 456.515H792.186V467.475ZM806.372 469.035C806.239 469.035 806.119 468.968 806.012 468.835C805.919 468.688 805.845 468.528 805.792 468.355C805.739 468.182 805.712 468.055 805.712 467.975C805.712 467.948 805.719 467.915 805.732 467.875C805.759 467.822 805.805 467.782 805.872 467.755C807.232 467.195 808.312 466.448 809.112 465.515C809.925 464.582 810.492 463.555 810.812 462.435C810.505 462.608 810.132 462.762 809.692 462.895C809.252 463.028 808.725 463.095 808.112 463.095C807.579 463.095 807.079 463.002 806.612 462.815C806.159 462.628 805.759 462.362 805.412 462.015C805.065 461.655 804.792 461.228 804.592 460.735C804.392 460.228 804.292 459.668 804.292 459.055C804.292 458.415 804.399 457.842 804.612 457.335C804.839 456.828 805.145 456.395 805.532 456.035C805.932 455.662 806.392 455.382 806.912 455.195C807.445 454.995 808.012 454.895 808.612 454.895C809.319 454.895 809.939 455.008 810.472 455.235C811.005 455.462 811.445 455.795 811.792 456.235C812.152 456.662 812.419 457.188 812.592 457.815C812.779 458.428 812.872 459.135 812.872 459.935C812.872 460.895 812.745 461.788 812.492 462.615C812.239 463.442 811.905 464.195 811.492 464.875C811.079 465.542 810.625 466.135 810.132 466.655C809.639 467.175 809.145 467.615 808.652 467.975C808.159 468.322 807.712 468.588 807.312 468.775C806.912 468.948 806.599 469.035 806.372 469.035ZM808.612 461.655C809.145 461.655 809.625 461.582 810.052 461.435C810.479 461.288 810.832 461.135 811.112 460.975C811.139 460.775 811.159 460.575 811.172 460.375C811.185 460.162 811.192 459.962 811.192 459.775C811.192 458.842 811.052 458.128 810.772 457.635C810.505 457.142 810.165 456.802 809.752 456.615C809.352 456.428 808.939 456.335 808.512 456.335C808.152 456.335 807.772 456.428 807.372 456.615C806.985 456.802 806.659 457.088 806.392 457.475C806.125 457.862 805.992 458.362 805.992 458.975C805.992 459.628 806.119 460.155 806.372 460.555C806.625 460.942 806.952 461.222 807.352 461.395C807.752 461.568 808.172 461.655 808.612 461.655ZM817.235 468.995C816.835 468.995 816.635 468.795 816.635 468.395V455.595C816.635 455.195 816.835 454.995 817.235 454.995H821.275C822.422 454.995 823.462 455.222 824.395 455.675C825.328 456.115 826.068 456.848 826.615 457.875C827.175 458.888 827.455 460.262 827.455 461.995C827.455 463.288 827.295 464.388 826.975 465.295C826.655 466.188 826.215 466.908 825.655 467.455C825.095 467.988 824.442 468.382 823.695 468.635C822.948 468.875 822.142 468.995 821.275 468.995H817.235ZM818.395 467.475H821.135C821.975 467.475 822.735 467.295 823.415 466.935C824.095 466.575 824.635 465.995 825.035 465.195C825.435 464.395 825.635 463.328 825.635 461.995C825.635 460.662 825.435 459.595 825.035 458.795C824.635 457.995 824.095 457.415 823.415 457.055C822.735 456.695 821.975 456.515 821.135 456.515H818.395V467.475ZM832.581 469.035C832.448 469.035 832.328 468.968 832.221 468.835C832.128 468.688 832.055 468.528 832.001 468.355C831.948 468.182 831.921 468.055 831.921 467.975C831.921 467.948 831.928 467.915 831.941 467.875C831.968 467.822 832.015 467.782 832.081 467.755C833.441 467.195 834.521 466.448 835.321 465.515C836.135 464.582 836.701 463.555 837.021 462.435C836.715 462.608 836.341 462.762 835.901 462.895C835.461 463.028 834.935 463.095 834.321 463.095C833.788 463.095 833.288 463.002 832.821 462.815C832.368 462.628 831.968 462.362 831.621 462.015C831.275 461.655 831.001 461.228 830.801 460.735C830.601 460.228 830.501 459.668 830.501 459.055C830.501 458.415 830.608 457.842 830.821 457.335C831.048 456.828 831.355 456.395 831.741 456.035C832.141 455.662 832.601 455.382 833.121 455.195C833.655 454.995 834.221 454.895 834.821 454.895C835.528 454.895 836.148 455.008 836.681 455.235C837.215 455.462 837.655 455.795 838.001 456.235C838.361 456.662 838.628 457.188 838.801 457.815C838.988 458.428 839.081 459.135 839.081 459.935C839.081 460.895 838.955 461.788 838.701 462.615C838.448 463.442 838.115 464.195 837.701 464.875C837.288 465.542 836.835 466.135 836.341 466.655C835.848 467.175 835.355 467.615 834.861 467.975C834.368 468.322 833.921 468.588 833.521 468.775C833.121 468.948 832.808 469.035 832.581 469.035ZM834.821 461.655C835.355 461.655 835.835 461.582 836.261 461.435C836.688 461.288 837.041 461.135 837.321 460.975C837.348 460.775 837.368 460.575 837.381 460.375C837.395 460.162 837.401 459.962 837.401 459.775C837.401 458.842 837.261 458.128 836.981 457.635C836.715 457.142 836.375 456.802 835.961 456.615C835.561 456.428 835.148 456.335 834.721 456.335C834.361 456.335 833.981 456.428 833.581 456.615C833.195 456.802 832.868 457.088 832.601 457.475C832.335 457.862 832.201 458.362 832.201 458.975C832.201 459.628 832.328 460.155 832.581 460.555C832.835 460.942 833.161 461.222 833.561 461.395C833.961 461.568 834.381 461.655 834.821 461.655ZM758.373 492.115C756.186 492.115 754.566 491.542 753.513 490.395C752.459 489.235 751.933 487.435 751.933 484.995C751.933 480.248 754.093 477.875 758.413 477.875C758.866 477.875 759.306 477.908 759.733 477.975C760.159 478.042 760.546 478.128 760.893 478.235C761.239 478.342 761.526 478.462 761.753 478.595C762.073 478.782 762.233 478.955 762.233 479.115C762.233 479.222 762.193 479.368 762.113 479.555C762.033 479.742 761.939 479.908 761.833 480.055C761.739 480.202 761.646 480.275 761.553 480.275C761.486 480.275 761.326 480.202 761.073 480.055C760.833 479.908 760.493 479.762 760.053 479.615C759.626 479.468 759.093 479.395 758.453 479.395C756.853 479.395 755.666 479.842 754.893 480.735C754.133 481.615 753.753 483.042 753.753 485.015C753.753 486.935 754.126 488.348 754.873 489.255C755.633 490.148 756.799 490.595 758.373 490.595C759.066 490.595 759.646 490.515 760.113 490.355C760.593 490.182 760.973 490.015 761.253 489.855C761.546 489.682 761.733 489.595 761.813 489.595C761.906 489.595 762.006 489.668 762.113 489.815C762.219 489.962 762.313 490.122 762.393 490.295C762.473 490.468 762.513 490.595 762.513 490.675C762.513 490.768 762.453 490.875 762.333 490.995C762.226 491.115 762.073 491.228 761.873 491.335C761.633 491.468 761.333 491.595 760.973 491.715C760.626 491.835 760.233 491.928 759.793 491.995C759.353 492.075 758.879 492.115 758.373 492.115ZM768.196 492.115C767.942 492.115 767.669 492.075 767.376 491.995C767.082 491.928 766.802 491.802 766.536 491.615C766.269 491.415 766.049 491.135 765.876 490.775C765.702 490.402 765.616 489.928 765.616 489.355V477.395C765.616 477.102 765.882 476.955 766.416 476.955H766.496C767.029 476.955 767.296 477.102 767.296 477.395V489.195C767.296 489.795 767.402 490.195 767.616 490.395C767.829 490.582 768.082 490.675 768.376 490.675C768.669 490.675 768.862 490.662 768.956 490.635C769.049 490.595 769.142 490.575 769.236 490.575C769.329 490.575 769.402 490.642 769.456 490.775C769.522 490.908 769.569 491.055 769.596 491.215C769.636 491.362 769.656 491.462 769.656 491.515C769.656 491.688 769.569 491.822 769.396 491.915C769.236 491.995 769.042 492.048 768.816 492.075C768.589 492.102 768.382 492.115 768.196 492.115ZM775.789 492.115C774.282 492.115 773.129 491.662 772.329 490.755C771.542 489.848 771.149 488.535 771.149 486.815C771.149 485.082 771.549 483.748 772.349 482.815C773.149 481.882 774.296 481.415 775.789 481.415C777.256 481.415 778.376 481.882 779.149 482.815C779.936 483.735 780.329 485.068 780.329 486.815C780.329 488.548 779.942 489.868 779.169 490.775C778.409 491.668 777.282 492.115 775.789 492.115ZM775.729 490.675C776.716 490.675 777.436 490.362 777.889 489.735C778.356 489.095 778.589 488.108 778.589 486.775C778.589 485.442 778.356 484.455 777.889 483.815C777.436 483.175 776.716 482.855 775.729 482.855C774.756 482.855 774.042 483.175 773.589 483.815C773.136 484.442 772.909 485.428 772.909 486.775C772.909 488.108 773.136 489.095 773.589 489.735C774.042 490.362 774.756 490.675 775.729 490.675ZM786.996 492.115C785.982 492.115 785.182 491.828 784.596 491.255C784.022 490.682 783.736 489.888 783.736 488.875V481.935C783.736 481.642 784.002 481.495 784.536 481.495H784.616C785.149 481.495 785.416 481.642 785.416 481.935V488.715C785.416 489.328 785.589 489.808 785.936 490.155C786.296 490.488 786.802 490.655 787.456 490.655C787.909 490.655 788.356 490.528 788.796 490.275C789.249 490.022 789.642 489.682 789.976 489.255V481.935C789.976 481.642 790.242 481.495 790.776 481.495H790.856C791.389 481.495 791.656 481.642 791.656 481.935V489.035C791.656 489.582 791.676 490.035 791.716 490.395C791.756 490.755 791.796 491.028 791.836 491.215C791.876 491.402 791.896 491.515 791.896 491.555C791.896 491.648 791.849 491.728 791.756 491.795C791.676 491.848 791.576 491.895 791.456 491.935C791.336 491.962 791.216 491.982 791.096 491.995C790.976 492.008 790.882 492.015 790.816 492.015C790.656 492.015 790.529 491.942 790.436 491.795C790.356 491.635 790.289 491.448 790.236 491.235C790.196 491.008 790.156 490.802 790.116 490.615C789.702 491.082 789.216 491.448 788.656 491.715C788.109 491.982 787.556 492.115 786.996 492.115ZM799.089 492.115C798.289 492.115 797.595 491.888 797.009 491.435C796.435 490.968 795.989 490.335 795.669 489.535C795.362 488.722 795.209 487.802 795.209 486.775C795.209 485.028 795.589 483.702 796.349 482.795C797.109 481.875 798.082 481.415 799.269 481.415C799.895 481.415 800.429 481.508 800.869 481.695C801.322 481.882 801.742 482.128 802.129 482.435V477.395C802.129 477.102 802.395 476.955 802.929 476.955H803.009C803.542 476.955 803.809 477.102 803.809 477.395V489.035C803.809 489.582 803.829 490.035 803.869 490.395C803.909 490.755 803.949 491.028 803.989 491.215C804.029 491.402 804.049 491.515 804.049 491.555C804.049 491.648 804.002 491.728 803.909 491.795C803.829 491.848 803.729 491.895 803.609 491.935C803.489 491.962 803.369 491.982 803.249 491.995C803.129 492.008 803.035 492.015 802.969 492.015C802.809 492.015 802.682 491.942 802.589 491.795C802.509 491.635 802.442 491.448 802.389 491.235C802.349 491.008 802.309 490.802 802.269 490.615C801.775 491.122 801.262 491.502 800.729 491.755C800.209 491.995 799.662 492.115 799.089 492.115ZM799.429 490.655C799.869 490.655 800.322 490.542 800.789 490.315C801.269 490.075 801.715 489.728 802.129 489.275V483.795C801.769 483.488 801.382 483.262 800.969 483.115C800.555 482.968 800.122 482.895 799.669 482.895C798.775 482.895 798.102 483.222 797.649 483.875C797.195 484.515 796.969 485.428 796.969 486.615C796.969 487.908 797.182 488.908 797.609 489.615C798.035 490.308 798.642 490.655 799.429 490.655Z" fill="black"/>
<g filter="url(#filter3_b_125_60)">
<path d="M689.293 511.414C689.293 505.523 684.518 500.747 678.627 500.747C672.735 500.747 667.96 505.523 667.96 511.414C667.96 517.305 672.735 522.081 678.627 522.081C684.518 522.081 689.293 517.305 689.293 511.414ZM911.436 509.414L678.627 509.414L678.627 513.414L911.436 513.414L911.436 509.414Z" fill="black"/>
</g>
<defs>
<filter id="filter0_b_125_60" x="659.333" y="114.333" width="254.167" height="29.334" filterUnits="userSpaceOnUse" color-interpolation-filters="sRGB">
<feFlood flood-opacity="0" result="BackgroundImageFix"/>
<feGaussianBlur in="BackgroundImageFix" stdDeviation="2"/>
<feComposite in2="SourceAlpha" operator="in" result="effect1_backgroundBlur_125_60"/>
<feBlend mode="normal" in="SourceGraphic" in2="effect1_backgroundBlur_125_60" result="shape"/>
</filter>
<filter id="filter1_b_125_60" x="161.333" y="118.333" width="254.167" height="29.334" filterUnits="userSpaceOnUse" color-interpolation-filters="sRGB">
<feFlood flood-opacity="0" result="BackgroundImageFix"/>
<feGaussianBlur in="BackgroundImageFix" stdDeviation="2"/>
<feComposite in2="SourceAlpha" operator="in" result="effect1_backgroundBlur_125_60"/>
<feBlend mode="normal" in="SourceGraphic" in2="effect1_backgroundBlur_125_60" result="shape"/>
</filter>
<filter id="filter2_b_125_60" x="171.649" y="496.747" width="251.476" height="29.334" filterUnits="userSpaceOnUse" color-interpolation-filters="sRGB">
<feFlood flood-opacity="0" result="BackgroundImageFix"/>
<feGaussianBlur in="BackgroundImageFix" stdDeviation="2"/>
<feComposite in2="SourceAlpha" operator="in" result="effect1_backgroundBlur_125_60"/>
<feBlend mode="normal" in="SourceGraphic" in2="effect1_backgroundBlur_125_60" result="shape"/>
</filter>
<filter id="filter3_b_125_60" x="663.96" y="496.747" width="251.476" height="29.334" filterUnits="userSpaceOnUse" color-interpolation-filters="sRGB">
<feFlood flood-opacity="0" result="BackgroundImageFix"/>
<feGaussianBlur in="BackgroundImageFix" stdDeviation="2"/>
<feComposite in2="SourceAlpha" operator="in" result="effect1_backgroundBlur_125_60"/>
<feBlend mode="normal" in="SourceGraphic" in2="effect1_backgroundBlur_125_60" result="shape"/>
</filter>
</defs>
</svg>
