<svg width="1170" height="521" viewBox="0 0 1170 521" fill="none" xmlns="http://www.w3.org/2000/svg">
<rect width="1440" height="21739" transform="translate(-135 -3192)" fill="white"/>
<path d="M981.586 378.569C980.391 378.569 979.314 378.473 978.354 378.281C977.415 378.068 976.669 377.791 976.114 377.449C975.581 377.087 975.314 376.692 975.314 376.265C975.314 376.073 975.399 375.775 975.57 375.369C975.762 374.964 975.997 374.591 976.274 374.249C976.551 373.908 976.807 373.737 977.042 373.737C977.17 373.737 977.426 373.833 977.81 374.025C978.194 374.196 978.695 374.377 979.314 374.569C979.954 374.74 980.701 374.825 981.554 374.825C982.258 374.825 982.866 374.697 983.378 374.441C983.89 374.185 984.285 373.812 984.562 373.321C984.839 372.809 984.978 372.212 984.978 371.529C984.978 370.399 984.679 369.524 984.082 368.905C983.485 368.287 982.45 367.977 980.978 367.977H977.49C977.021 367.977 976.701 367.881 976.53 367.689C976.381 367.476 976.306 367.145 976.306 366.697L976.914 357.193C976.957 356.745 977.074 356.425 977.266 356.233C977.458 356.02 977.789 355.913 978.258 355.913H987.698C988.338 355.913 988.658 356.447 988.658 357.513V358.377C988.658 359.231 988.338 359.657 987.698 359.657H981.234L980.914 364.233H981.746C982.962 364.233 984.061 364.351 985.042 364.585C986.023 364.82 986.866 365.215 987.57 365.769C988.274 366.303 988.818 367.028 989.202 367.945C989.586 368.863 989.778 370.015 989.778 371.401C989.778 372.745 989.533 373.887 989.042 374.825C988.573 375.743 987.933 376.479 987.122 377.033C986.333 377.567 985.447 377.961 984.466 378.217C983.506 378.452 982.546 378.569 981.586 378.569ZM996.791 378.377C995.532 378.377 994.903 378.175 994.903 377.769C994.903 377.684 994.914 377.599 994.935 377.513C994.978 377.407 995.031 377.289 995.095 377.161L1003.03 359.657H994.679C994.039 359.657 993.719 359.124 993.719 358.057V357.513C993.719 356.447 994.039 355.913 994.679 355.913H1007.35C1007.48 355.913 1007.62 356.084 1007.77 356.425C1007.92 356.767 1008.04 357.161 1008.15 357.609C1008.26 358.057 1008.31 358.452 1008.31 358.793C1008.31 358.943 1008.29 359.081 1008.25 359.209L999.831 377.737C999.724 377.993 999.5 378.164 999.159 378.249C998.839 378.335 998.444 378.377 997.975 378.377H996.791ZM1012.92 378.377C1011.64 378.377 1011 378.036 1011 377.353V374.409C1011 373.727 1011.64 373.385 1012.92 373.385H1013.95C1015.23 373.385 1015.87 373.727 1015.87 374.409V377.353C1015.87 378.036 1015.23 378.377 1013.95 378.377H1012.92ZM1020.26 378.313C1019.62 378.313 1019.3 377.78 1019.3 376.713V376.169C1019.3 375.103 1019.62 374.569 1020.26 374.569H1024.52V360.201L1020.16 360.841C1019.89 360.841 1019.67 360.681 1019.52 360.361C1019.37 360.041 1019.27 359.668 1019.2 359.241C1019.16 358.815 1019.14 358.452 1019.14 358.153C1019.14 357.663 1019.42 357.364 1019.97 357.257L1027.94 355.785C1028.2 355.785 1028.47 355.871 1028.77 356.041C1029.09 356.191 1029.25 356.361 1029.25 356.553V374.569H1032.36C1033 374.569 1033.32 375.103 1033.32 376.169V376.713C1033.32 377.78 1033 378.313 1032.36 378.313H1020.26ZM1041.03 378.377C1040.58 378.377 1040.36 378.239 1040.36 377.961C1040.36 377.855 1040.41 377.695 1040.52 377.481L1051.94 356.745C1052.12 356.447 1052.31 356.223 1052.52 356.073C1052.73 355.924 1053.01 355.849 1053.35 355.849H1054.76C1055.21 355.849 1055.43 355.999 1055.43 356.297C1055.43 356.34 1055.41 356.404 1055.37 356.489C1055.35 356.553 1055.32 356.639 1055.27 356.745L1043.85 377.481C1043.7 377.759 1043.51 377.983 1043.27 378.153C1043.06 378.303 1042.78 378.377 1042.44 378.377H1041.03ZM1054.09 378.569C1053.34 378.569 1052.6 378.431 1051.85 378.153C1051.12 377.876 1050.52 377.353 1050.02 376.585C1049.53 375.796 1049.29 374.665 1049.29 373.193C1049.29 371.7 1049.53 370.569 1050.02 369.801C1050.52 369.033 1051.12 368.511 1051.85 368.233C1052.6 367.956 1053.34 367.817 1054.09 367.817C1054.84 367.817 1055.57 367.956 1056.3 368.233C1057.04 368.511 1057.66 369.033 1058.15 369.801C1058.64 370.569 1058.89 371.7 1058.89 373.193C1058.89 374.665 1058.64 375.796 1058.15 376.585C1057.66 377.353 1057.04 377.876 1056.3 378.153C1055.57 378.431 1054.84 378.569 1054.09 378.569ZM1054.09 375.945C1054.52 375.945 1054.84 375.807 1055.05 375.529C1055.26 375.231 1055.4 374.868 1055.46 374.441C1055.55 374.015 1055.59 373.599 1055.59 373.193C1055.59 372.767 1055.55 372.361 1055.46 371.977C1055.4 371.572 1055.26 371.241 1055.05 370.985C1054.84 370.708 1054.52 370.569 1054.09 370.569C1053.68 370.569 1053.36 370.708 1053.13 370.985C1052.92 371.241 1052.77 371.572 1052.68 371.977C1052.6 372.361 1052.55 372.767 1052.55 373.193C1052.55 373.599 1052.6 374.015 1052.68 374.441C1052.77 374.868 1052.92 375.231 1053.13 375.529C1053.36 375.807 1053.68 375.945 1054.09 375.945ZM1041.7 366.409C1040.96 366.409 1040.21 366.271 1039.46 365.993C1038.74 365.716 1038.13 365.193 1037.64 364.425C1037.15 363.636 1036.9 362.505 1036.9 361.033C1036.9 359.54 1037.15 358.409 1037.64 357.641C1038.13 356.873 1038.74 356.351 1039.46 356.073C1040.21 355.796 1040.96 355.657 1041.7 355.657C1042.45 355.657 1043.19 355.796 1043.91 356.073C1044.66 356.351 1045.28 356.873 1045.77 357.641C1046.26 358.409 1046.5 359.54 1046.5 361.033C1046.5 362.505 1046.26 363.636 1045.77 364.425C1045.28 365.193 1044.66 365.716 1043.91 365.993C1043.19 366.271 1042.45 366.409 1041.7 366.409ZM1041.7 363.785C1042.13 363.785 1042.45 363.647 1042.66 363.369C1042.88 363.071 1043.02 362.708 1043.08 362.281C1043.17 361.855 1043.21 361.439 1043.21 361.033C1043.21 360.607 1043.17 360.201 1043.08 359.817C1043.02 359.412 1042.88 359.081 1042.66 358.825C1042.45 358.548 1042.13 358.409 1041.7 358.409C1041.3 358.409 1040.98 358.548 1040.74 358.825C1040.53 359.081 1040.38 359.412 1040.3 359.817C1040.21 360.201 1040.17 360.607 1040.17 361.033C1040.17 361.439 1040.21 361.855 1040.3 362.281C1040.38 362.708 1040.53 363.071 1040.74 363.369C1040.98 363.647 1041.3 363.785 1041.7 363.785ZM975.858 457.377C974.941 457.377 974.482 457.196 974.482 456.833C974.482 456.769 974.493 456.705 974.514 456.641C974.535 456.556 974.557 456.471 974.578 456.385L982.162 435.361C982.269 435.02 982.695 434.849 983.442 434.849H984.37C985.117 434.849 985.543 435.02 985.65 435.361L993.234 456.417C993.298 456.567 993.33 456.705 993.33 456.833C993.33 457.196 992.871 457.377 991.954 457.377H991.698C991.378 457.377 991.101 457.345 990.866 457.281C990.631 457.196 990.482 457.057 990.418 456.865L988.53 451.617H979.122L977.298 456.865C977.234 457.057 977.085 457.196 976.85 457.281C976.615 457.345 976.338 457.377 976.018 457.377H975.858ZM980.018 449.185H987.666L984.306 439.649C984.221 439.351 984.146 439.041 984.082 438.721C984.018 438.401 983.965 438.092 983.922 437.793H983.858C983.794 438.092 983.719 438.401 983.634 438.721C983.57 439.041 983.485 439.351 983.378 439.649L980.018 449.185ZM1007.49 457.377C1006.64 457.377 1006.21 457.143 1006.21 456.673V445.441C1006.21 444.567 1006.18 443.841 1006.11 443.265C1006.05 442.689 1005.99 442.252 1005.92 441.953C1005.86 441.633 1005.83 441.452 1005.83 441.409C1005.83 441.26 1005.89 441.143 1006.02 441.057C1006.17 440.951 1006.34 440.876 1006.53 440.833C1006.72 440.769 1006.91 440.727 1007.11 440.705C1007.3 440.684 1007.45 440.673 1007.55 440.673C1007.81 440.673 1008 440.791 1008.13 441.025C1008.28 441.26 1008.39 441.548 1008.45 441.889C1008.54 442.209 1008.61 442.508 1008.67 442.785C1009.23 442.017 1009.82 441.431 1010.43 441.025C1011.07 440.599 1011.73 440.385 1012.39 440.385C1013.01 440.385 1013.46 440.492 1013.76 440.705C1014.08 440.897 1014.24 441.207 1014.24 441.633C1014.24 441.825 1014.21 442.06 1014.15 442.337C1014.1 442.615 1014.03 442.86 1013.92 443.073C1013.84 443.265 1013.73 443.361 1013.6 443.361C1013.39 443.361 1013.18 443.308 1012.96 443.201C1012.77 443.073 1012.4 443.009 1011.84 443.009C1011.29 443.009 1010.79 443.169 1010.34 443.489C1009.89 443.809 1009.54 444.14 1009.28 444.481C1009.03 444.801 1008.9 444.961 1008.9 444.961V456.673C1008.9 457.143 1008.47 457.377 1007.62 457.377H1007.49ZM1024.98 457.505C1022.34 457.505 1020.37 456.812 1019.06 455.425C1017.78 454.039 1017.14 451.916 1017.14 449.057C1017.14 447.159 1017.42 445.569 1017.98 444.289C1018.55 443.009 1019.39 442.039 1020.5 441.377C1021.61 440.716 1022.98 440.385 1024.6 440.385C1026.07 440.385 1027.29 440.705 1028.25 441.345C1029.23 441.985 1029.97 442.924 1030.46 444.161C1030.95 445.399 1031.19 446.924 1031.19 448.737C1031.19 448.865 1031.13 449.036 1031 449.249C1030.89 449.441 1030.75 449.623 1030.58 449.793C1030.41 449.964 1030.26 450.049 1030.14 450.049H1020.02C1020.15 451.82 1020.61 453.121 1021.4 453.953C1022.19 454.785 1023.37 455.201 1024.95 455.201C1025.89 455.201 1026.68 455.095 1027.32 454.881C1027.98 454.647 1028.5 454.423 1028.89 454.209C1029.27 453.975 1029.52 453.857 1029.62 453.857C1029.77 453.857 1029.93 453.964 1030.1 454.177C1030.27 454.391 1030.42 454.625 1030.55 454.881C1030.68 455.137 1030.74 455.329 1030.74 455.457C1030.74 455.649 1030.59 455.863 1030.3 456.097C1030 456.332 1029.58 456.556 1029.05 456.769C1028.54 456.983 1027.93 457.164 1027.22 457.313C1026.54 457.441 1025.79 457.505 1024.98 457.505ZM1020.02 447.745H1028.34C1028.34 446.06 1028.02 444.801 1027.38 443.969C1026.74 443.116 1025.78 442.689 1024.5 442.689C1023.12 442.689 1022.05 443.116 1021.3 443.969C1020.56 444.801 1020.13 446.06 1020.02 447.745ZM1040.63 457.505C1039.08 457.505 1037.78 457.121 1036.73 456.353C1035.68 455.564 1035.16 454.348 1035.16 452.705C1035.16 451.361 1035.48 450.305 1036.12 449.537C1036.76 448.748 1037.6 448.172 1038.65 447.809C1039.7 447.425 1040.84 447.18 1042.07 447.073C1043.33 446.967 1044.57 446.903 1045.79 446.881V445.377C1045.79 444.652 1045.53 444.023 1045.02 443.489C1044.51 442.956 1043.59 442.689 1042.27 442.689C1041.31 442.689 1040.46 442.807 1039.74 443.041C1039.03 443.255 1038.47 443.479 1038.04 443.713C1037.64 443.927 1037.38 444.033 1037.27 444.033C1037.12 444.033 1036.96 443.927 1036.79 443.713C1036.62 443.5 1036.47 443.265 1036.35 443.009C1036.22 442.732 1036.15 442.54 1036.15 442.433C1036.15 442.156 1036.43 441.857 1036.99 441.537C1037.54 441.217 1038.28 440.951 1039.19 440.737C1040.11 440.503 1041.1 440.385 1042.17 440.385C1043.49 440.385 1044.62 440.588 1045.56 440.993C1046.5 441.377 1047.22 441.943 1047.71 442.689C1048.22 443.436 1048.47 444.343 1048.47 445.409V452.577C1048.47 453.452 1048.51 454.177 1048.57 454.753C1048.63 455.329 1048.7 455.767 1048.76 456.065C1048.83 456.364 1048.86 456.545 1048.86 456.609C1048.86 456.759 1048.78 456.887 1048.63 456.993C1048.51 457.079 1048.35 457.153 1048.15 457.217C1047.96 457.26 1047.77 457.292 1047.58 457.313C1047.39 457.335 1047.24 457.345 1047.13 457.345C1046.87 457.345 1046.67 457.228 1046.52 456.993C1046.39 456.737 1046.29 456.439 1046.2 456.097C1046.14 455.735 1046.07 455.404 1046.01 455.105C1045.6 455.553 1045.14 455.959 1044.6 456.321C1044.07 456.684 1043.47 456.972 1042.81 457.185C1042.17 457.399 1041.44 457.505 1040.63 457.505ZM1040.76 455.169C1041.94 455.169 1042.91 454.945 1043.67 454.497C1044.44 454.049 1045.15 453.537 1045.79 452.961V449.185C1044.95 449.185 1044.09 449.217 1043.19 449.281C1042.3 449.324 1041.46 449.441 1040.67 449.633C1039.88 449.825 1039.24 450.156 1038.75 450.625C1038.28 451.073 1038.04 451.713 1038.04 452.545C1038.04 453.399 1038.27 454.049 1038.71 454.497C1039.18 454.945 1039.87 455.169 1040.76 455.169ZM1058.33 457.601C1057.37 457.601 1056.5 457.484 1055.74 457.249C1054.97 457.015 1054.36 456.737 1053.91 456.417C1053.46 456.097 1053.24 455.82 1053.24 455.585C1053.24 455.457 1053.3 455.265 1053.43 455.009C1053.56 454.753 1053.71 454.519 1053.88 454.305C1054.05 454.092 1054.21 453.985 1054.36 453.985C1054.45 453.985 1054.64 454.092 1054.94 454.305C1055.23 454.519 1055.65 454.732 1056.18 454.945C1056.74 455.159 1057.39 455.265 1058.14 455.265C1060.23 455.265 1061.27 454.476 1061.27 452.897C1061.27 452.044 1060.96 451.425 1060.34 451.041C1059.75 450.636 1058.99 450.284 1058.07 449.985C1057.33 449.729 1056.61 449.431 1055.93 449.089C1055.25 448.727 1054.69 448.225 1054.26 447.585C1053.84 446.945 1053.62 446.081 1053.62 444.993C1053.62 444.097 1053.85 443.297 1054.3 442.593C1054.77 441.889 1055.39 441.345 1056.18 440.961C1056.99 440.556 1057.91 440.353 1058.94 440.353C1059.66 440.353 1060.34 440.417 1060.98 440.545C1061.62 440.673 1062.15 440.844 1062.55 441.057C1062.96 441.271 1063.16 441.495 1063.16 441.729C1063.16 441.9 1063.1 442.124 1062.97 442.401C1062.86 442.679 1062.73 442.924 1062.58 443.137C1062.43 443.351 1062.29 443.457 1062.14 443.457C1062.05 443.457 1061.76 443.319 1061.27 443.041C1060.78 442.764 1060.1 442.625 1059.22 442.625C1058.43 442.625 1057.76 442.817 1057.21 443.201C1056.65 443.564 1056.38 444.087 1056.38 444.769C1056.38 445.367 1056.55 445.847 1056.89 446.209C1057.23 446.551 1057.89 446.881 1058.87 447.201C1059.85 447.521 1060.73 447.905 1061.5 448.353C1062.26 448.78 1062.87 449.335 1063.32 450.017C1063.77 450.679 1063.99 451.543 1063.99 452.609C1063.99 453.569 1063.74 454.423 1063.22 455.169C1062.73 455.916 1062.06 456.513 1061.21 456.961C1060.35 457.388 1059.39 457.601 1058.33 457.601ZM1075.35 457.505C1072.94 457.505 1071.1 456.78 1069.82 455.329C1068.56 453.879 1067.93 451.777 1067.93 449.025C1067.93 446.252 1068.57 444.119 1069.85 442.625C1071.13 441.132 1072.97 440.385 1075.35 440.385C1077.7 440.385 1079.49 441.132 1080.73 442.625C1081.99 444.097 1082.62 446.231 1082.62 449.025C1082.62 451.799 1082 453.911 1080.76 455.361C1079.55 456.791 1077.74 457.505 1075.35 457.505ZM1075.26 455.201C1076.84 455.201 1077.99 454.7 1078.71 453.697C1079.46 452.673 1079.83 451.095 1079.83 448.961C1079.83 446.828 1079.46 445.249 1078.71 444.225C1077.99 443.201 1076.84 442.689 1075.26 442.689C1073.7 442.689 1072.56 443.201 1071.83 444.225C1071.11 445.228 1070.75 446.807 1070.75 448.961C1070.75 451.095 1071.11 452.673 1071.83 453.697C1072.56 454.7 1073.7 455.201 1075.26 455.201ZM1089.38 457.377C1088.53 457.377 1088.1 457.143 1088.1 456.673V445.441C1088.1 444.567 1088.07 443.841 1088.01 443.265C1087.94 442.689 1087.88 442.252 1087.81 441.953C1087.75 441.633 1087.72 441.452 1087.72 441.409C1087.72 441.26 1087.78 441.143 1087.91 441.057C1088.06 440.951 1088.23 440.876 1088.42 440.833C1088.61 440.769 1088.81 440.727 1089 440.705C1089.19 440.684 1089.34 440.673 1089.45 440.673C1089.7 440.673 1089.89 440.791 1090.02 441.025C1090.17 441.26 1090.28 441.548 1090.34 441.889C1090.43 442.209 1090.5 442.508 1090.57 442.785C1091.25 442.039 1092.03 441.452 1092.9 441.025C1093.78 440.599 1094.66 440.385 1095.56 440.385C1097.2 440.385 1098.48 440.844 1099.4 441.761C1100.31 442.679 1100.77 443.948 1100.77 445.569V456.673C1100.77 457.143 1100.35 457.377 1099.49 457.377H1099.37C1098.51 457.377 1098.09 457.143 1098.09 456.673V445.825C1098.09 444.844 1097.8 444.087 1097.22 443.553C1096.67 442.999 1095.87 442.721 1094.82 442.721C1094.1 442.721 1093.37 442.924 1092.65 443.329C1091.94 443.735 1091.32 444.279 1090.79 444.961V456.673C1090.79 457.143 1090.36 457.377 1089.51 457.377H1089.38ZM1111.16 457.505C1109.6 457.505 1108.3 457.121 1107.26 456.353C1106.21 455.564 1105.69 454.348 1105.69 452.705C1105.69 451.361 1106.01 450.305 1106.65 449.537C1107.29 448.748 1108.13 448.172 1109.18 447.809C1110.22 447.425 1111.36 447.18 1112.6 447.073C1113.86 446.967 1115.1 446.903 1116.31 446.881V445.377C1116.31 444.652 1116.06 444.023 1115.55 443.489C1115.03 442.956 1114.12 442.689 1112.79 442.689C1111.83 442.689 1110.99 442.807 1110.27 443.041C1109.56 443.255 1109 443.479 1108.57 443.713C1108.16 443.927 1107.91 444.033 1107.8 444.033C1107.65 444.033 1107.49 443.927 1107.32 443.713C1107.15 443.5 1107 443.265 1106.87 443.009C1106.75 442.732 1106.68 442.54 1106.68 442.433C1106.68 442.156 1106.96 441.857 1107.51 441.537C1108.07 441.217 1108.8 440.951 1109.72 440.737C1110.64 440.503 1111.63 440.385 1112.7 440.385C1114.02 440.385 1115.15 440.588 1116.09 440.993C1117.03 441.377 1117.74 441.943 1118.23 442.689C1118.75 443.436 1119 444.343 1119 445.409V452.577C1119 453.452 1119.03 454.177 1119.1 454.753C1119.16 455.329 1119.23 455.767 1119.29 456.065C1119.35 456.364 1119.39 456.545 1119.39 456.609C1119.39 456.759 1119.31 456.887 1119.16 456.993C1119.03 457.079 1118.87 457.153 1118.68 457.217C1118.49 457.26 1118.3 457.292 1118.11 457.313C1117.91 457.335 1117.76 457.345 1117.66 457.345C1117.4 457.345 1117.2 457.228 1117.05 456.993C1116.92 456.737 1116.82 456.439 1116.73 456.097C1116.67 455.735 1116.6 455.404 1116.54 455.105C1116.13 455.553 1115.66 455.959 1115.13 456.321C1114.6 456.684 1114 456.972 1113.34 457.185C1112.7 457.399 1111.97 457.505 1111.16 457.505ZM1111.29 455.169C1112.46 455.169 1113.43 454.945 1114.2 454.497C1114.97 454.049 1115.67 453.537 1116.31 452.961V449.185C1115.48 449.185 1114.62 449.217 1113.72 449.281C1112.83 449.324 1111.98 449.441 1111.19 449.633C1110.4 449.825 1109.76 450.156 1109.27 450.625C1108.8 451.073 1108.57 451.713 1108.57 452.545C1108.57 453.399 1108.79 454.049 1109.24 454.497C1109.71 454.945 1110.39 455.169 1111.29 455.169ZM1132.79 457.505C1131.87 457.505 1130.99 457.313 1130.14 456.929C1129.3 456.524 1128.49 455.916 1127.7 455.105C1127.58 455.937 1127.4 456.567 1127.19 456.993C1127.13 457.143 1127.02 457.249 1126.87 457.313C1126.74 457.356 1126.56 457.377 1126.33 457.377H1126.2C1125.56 457.377 1125.24 457.143 1125.24 456.673V433.953C1125.24 433.484 1125.67 433.249 1126.52 433.249H1126.65C1127.5 433.249 1127.93 433.484 1127.93 433.953V442.017C1128.55 441.527 1129.22 441.132 1129.94 440.833C1130.67 440.535 1131.52 440.385 1132.5 440.385C1134.4 440.385 1135.96 441.121 1137.18 442.593C1138.39 444.044 1139 446.156 1139 448.929C1139 450.593 1138.74 452.076 1138.23 453.377C1137.74 454.657 1137.03 455.671 1136.09 456.417C1135.17 457.143 1134.07 457.505 1132.79 457.505ZM1132.25 455.169C1133.51 455.169 1134.48 454.615 1135.16 453.505C1135.84 452.375 1136.18 450.775 1136.18 448.705C1136.18 446.807 1135.82 445.345 1135.1 444.321C1134.39 443.276 1133.32 442.753 1131.9 442.753C1131.21 442.753 1130.52 442.871 1129.82 443.105C1129.13 443.34 1128.5 443.703 1127.93 444.193V452.961C1128.59 453.687 1129.29 454.241 1130.04 454.625C1130.81 454.988 1131.54 455.169 1132.25 455.169ZM1148.45 457.505C1148.04 457.505 1147.61 457.441 1147.14 457.313C1146.67 457.207 1146.22 457.004 1145.79 456.705C1145.37 456.385 1145.02 455.937 1144.74 455.361C1144.46 454.764 1144.32 454.007 1144.32 453.089V433.953C1144.32 433.484 1144.75 433.249 1145.6 433.249H1145.73C1146.58 433.249 1147.01 433.484 1147.01 433.953V452.833C1147.01 453.793 1147.18 454.433 1147.52 454.753C1147.86 455.052 1148.27 455.201 1148.74 455.201C1149.21 455.201 1149.52 455.18 1149.67 455.137C1149.82 455.073 1149.96 455.041 1150.11 455.041C1150.26 455.041 1150.38 455.148 1150.47 455.361C1150.57 455.575 1150.65 455.809 1150.69 456.065C1150.75 456.3 1150.79 456.46 1150.79 456.545C1150.79 456.823 1150.65 457.036 1150.37 457.185C1150.11 457.313 1149.8 457.399 1149.44 457.441C1149.08 457.484 1148.75 457.505 1148.45 457.505ZM1160.7 457.505C1158.05 457.505 1156.08 456.812 1154.78 455.425C1153.5 454.039 1152.86 451.916 1152.86 449.057C1152.86 447.159 1153.13 445.569 1153.69 444.289C1154.26 443.009 1155.11 442.039 1156.22 441.377C1157.32 440.716 1158.69 440.385 1160.31 440.385C1161.78 440.385 1163 440.705 1163.96 441.345C1164.94 441.985 1165.68 442.924 1166.17 444.161C1166.66 445.399 1166.9 446.924 1166.9 448.737C1166.9 448.865 1166.84 449.036 1166.71 449.249C1166.6 449.441 1166.47 449.623 1166.3 449.793C1166.12 449.964 1165.98 450.049 1165.85 450.049H1155.74C1155.86 451.82 1156.32 453.121 1157.11 453.953C1157.9 454.785 1159.08 455.201 1160.66 455.201C1161.6 455.201 1162.39 455.095 1163.03 454.881C1163.69 454.647 1164.22 454.423 1164.6 454.209C1164.98 453.975 1165.23 453.857 1165.34 453.857C1165.48 453.857 1165.64 453.964 1165.82 454.177C1165.99 454.391 1166.14 454.625 1166.26 454.881C1166.39 455.137 1166.46 455.329 1166.46 455.457C1166.46 455.649 1166.31 455.863 1166.01 456.097C1165.71 456.332 1165.29 456.556 1164.76 456.769C1164.25 456.983 1163.64 457.164 1162.94 457.313C1162.25 457.441 1161.51 457.505 1160.7 457.505ZM1155.74 447.745H1164.06C1164.06 446.06 1163.74 444.801 1163.1 443.969C1162.46 443.116 1161.5 442.689 1160.22 442.689C1158.83 442.689 1157.76 443.116 1157.02 443.969C1156.27 444.801 1155.84 446.06 1155.74 447.745ZM981.138 484.505C979.581 484.505 978.279 484.121 977.234 483.353C976.189 482.564 975.666 481.348 975.666 479.705C975.666 478.361 975.986 477.305 976.626 476.537C977.266 475.748 978.109 475.172 979.154 474.809C980.199 474.425 981.341 474.18 982.578 474.073C983.837 473.967 985.074 473.903 986.29 473.881V472.377C986.29 471.652 986.034 471.023 985.522 470.489C985.01 469.956 984.093 469.689 982.77 469.689C981.81 469.689 980.967 469.807 980.242 470.041C979.538 470.255 978.973 470.479 978.546 470.713C978.141 470.927 977.885 471.033 977.778 471.033C977.629 471.033 977.469 470.927 977.298 470.713C977.127 470.5 976.978 470.265 976.85 470.009C976.722 469.732 976.658 469.54 976.658 469.433C976.658 469.156 976.935 468.857 977.49 468.537C978.045 468.217 978.781 467.951 979.698 467.737C980.615 467.503 981.607 467.385 982.674 467.385C983.997 467.385 985.127 467.588 986.066 467.993C987.005 468.377 987.719 468.943 988.21 469.689C988.722 470.436 988.978 471.343 988.978 472.409V479.577C988.978 480.452 989.01 481.177 989.074 481.753C989.138 482.329 989.202 482.767 989.266 483.065C989.33 483.364 989.362 483.545 989.362 483.609C989.362 483.759 989.287 483.887 989.138 483.993C989.01 484.079 988.85 484.153 988.658 484.217C988.466 484.26 988.274 484.292 988.082 484.313C987.89 484.335 987.741 484.345 987.634 484.345C987.378 484.345 987.175 484.228 987.026 483.993C986.898 483.737 986.791 483.439 986.706 483.097C986.642 482.735 986.578 482.404 986.514 482.105C986.109 482.553 985.639 482.959 985.106 483.321C984.573 483.684 983.975 483.972 983.314 484.185C982.674 484.399 981.949 484.505 981.138 484.505ZM981.266 482.169C982.439 482.169 983.41 481.945 984.178 481.497C984.946 481.049 985.65 480.537 986.29 479.961V476.185C985.458 476.185 984.594 476.217 983.698 476.281C982.802 476.324 981.959 476.441 981.17 476.633C980.381 476.825 979.741 477.156 979.25 477.625C978.781 478.073 978.546 478.713 978.546 479.545C978.546 480.399 978.77 481.049 979.218 481.497C979.687 481.945 980.37 482.169 981.266 482.169ZM996.496 484.377C995.642 484.377 995.216 484.143 995.216 483.673V472.441C995.216 471.567 995.184 470.841 995.12 470.265C995.056 469.689 994.992 469.252 994.928 468.953C994.864 468.633 994.832 468.452 994.832 468.409C994.832 468.26 994.896 468.143 995.024 468.057C995.173 467.951 995.344 467.876 995.536 467.833C995.728 467.769 995.92 467.727 996.112 467.705C996.304 467.684 996.453 467.673 996.56 467.673C996.816 467.673 997.008 467.791 997.136 468.025C997.285 468.26 997.392 468.548 997.456 468.889C997.541 469.209 997.616 469.508 997.68 469.785C998.213 469.167 998.896 468.612 999.728 468.121C1000.58 467.631 1001.52 467.385 1002.54 467.385C1003.08 467.385 1003.63 467.46 1004.21 467.609C1004.8 467.737 1005.36 467.993 1005.87 468.377C1006.4 468.761 1006.82 469.316 1007.12 470.041C1007.74 469.316 1008.48 468.697 1009.36 468.185C1010.26 467.652 1011.2 467.385 1012.21 467.385C1012.72 467.385 1013.26 467.46 1013.84 467.609C1014.42 467.737 1014.96 467.983 1015.47 468.345C1016 468.708 1016.43 469.231 1016.75 469.913C1017.07 470.596 1017.23 471.481 1017.23 472.569V483.673C1017.23 484.143 1016.8 484.377 1015.95 484.377H1015.82C1014.97 484.377 1014.54 484.143 1014.54 483.673V472.825C1014.54 471.887 1014.29 471.14 1013.78 470.585C1013.26 470.009 1012.5 469.721 1011.47 469.721C1010.9 469.721 1010.36 469.839 1009.87 470.073C1009.4 470.308 1008.98 470.585 1008.59 470.905C1008.23 471.204 1007.94 471.481 1007.73 471.737C1007.54 471.993 1007.42 472.143 1007.38 472.185L1007.34 471.097C1007.45 471.332 1007.51 471.588 1007.54 471.865C1007.56 472.121 1007.57 472.367 1007.57 472.601V483.673C1007.57 484.143 1007.14 484.377 1006.29 484.377H1006.16C1005.31 484.377 1004.88 484.143 1004.88 483.673V472.825C1004.88 471.887 1004.62 471.14 1004.11 470.585C1003.6 470.009 1002.83 469.721 1001.81 469.721C1001.23 469.721 1000.7 469.839 1000.21 470.073C999.738 470.287 999.322 470.543 998.96 470.841C998.618 471.119 998.352 471.375 998.16 471.609C997.989 471.823 997.904 471.929 997.904 471.929V483.673C997.904 484.143 997.477 484.377 996.624 484.377H996.496ZM1029.76 484.505C1027.35 484.505 1025.51 483.78 1024.23 482.329C1022.97 480.879 1022.34 478.777 1022.34 476.025C1022.34 473.252 1022.98 471.119 1024.26 469.625C1025.54 468.132 1027.38 467.385 1029.76 467.385C1032.11 467.385 1033.9 468.132 1035.14 469.625C1036.4 471.097 1037.03 473.231 1037.03 476.025C1037.03 478.799 1036.41 480.911 1035.17 482.361C1033.96 483.791 1032.15 484.505 1029.76 484.505ZM1029.67 482.201C1031.25 482.201 1032.4 481.7 1033.12 480.697C1033.87 479.673 1034.24 478.095 1034.24 475.961C1034.24 473.828 1033.87 472.249 1033.12 471.225C1032.4 470.201 1031.25 469.689 1029.67 469.689C1028.11 469.689 1026.97 470.201 1026.24 471.225C1025.52 472.228 1025.16 473.807 1025.16 475.961C1025.16 478.095 1025.52 479.673 1026.24 480.697C1026.97 481.7 1028.11 482.201 1029.67 482.201ZM1047.38 484.505C1045.75 484.505 1044.47 484.047 1043.54 483.129C1042.62 482.212 1042.16 480.943 1042.16 479.321V468.217C1042.16 467.748 1042.59 467.513 1043.44 467.513H1043.57C1044.42 467.513 1044.85 467.748 1044.85 468.217V479.065C1044.85 480.047 1045.12 480.815 1045.68 481.369C1046.26 481.903 1047.07 482.169 1048.11 482.169C1048.84 482.169 1049.55 481.967 1050.26 481.561C1050.98 481.156 1051.61 480.612 1052.14 479.929V468.217C1052.14 467.748 1052.57 467.513 1053.42 467.513H1053.55C1054.4 467.513 1054.83 467.748 1054.83 468.217V479.577C1054.83 480.452 1054.86 481.177 1054.93 481.753C1054.99 482.329 1055.06 482.767 1055.12 483.065C1055.18 483.364 1055.22 483.545 1055.22 483.609C1055.22 483.759 1055.14 483.887 1054.99 483.993C1054.86 484.079 1054.7 484.153 1054.51 484.217C1054.32 484.26 1054.13 484.292 1053.94 484.313C1053.74 484.335 1053.59 484.345 1053.49 484.345C1053.23 484.345 1053.03 484.228 1052.88 483.993C1052.75 483.737 1052.64 483.439 1052.56 483.097C1052.5 482.735 1052.43 482.404 1052.37 482.105C1051.71 482.852 1050.93 483.439 1050.03 483.865C1049.16 484.292 1048.27 484.505 1047.38 484.505ZM1062.56 484.377C1061.71 484.377 1061.28 484.143 1061.28 483.673V472.441C1061.28 471.567 1061.25 470.841 1061.19 470.265C1061.12 469.689 1061.06 469.252 1061 468.953C1060.93 468.633 1060.9 468.452 1060.9 468.409C1060.9 468.26 1060.96 468.143 1061.09 468.057C1061.24 467.951 1061.41 467.876 1061.6 467.833C1061.8 467.769 1061.99 467.727 1062.18 467.705C1062.37 467.684 1062.52 467.673 1062.63 467.673C1062.88 467.673 1063.08 467.791 1063.2 468.025C1063.35 468.26 1063.46 468.548 1063.52 468.889C1063.61 469.209 1063.68 469.508 1063.75 469.785C1064.43 469.039 1065.21 468.452 1066.08 468.025C1066.96 467.599 1067.84 467.385 1068.74 467.385C1070.38 467.385 1071.66 467.844 1072.58 468.761C1073.5 469.679 1073.96 470.948 1073.96 472.569V483.673C1073.96 484.143 1073.53 484.377 1072.68 484.377H1072.55C1071.69 484.377 1071.27 484.143 1071.27 483.673V472.825C1071.27 471.844 1070.98 471.087 1070.4 470.553C1069.85 469.999 1069.05 469.721 1068 469.721C1067.28 469.721 1066.55 469.924 1065.83 470.329C1065.12 470.735 1064.51 471.279 1063.97 471.961V483.673C1063.97 484.143 1063.55 484.377 1062.69 484.377H1062.56ZM1084.86 484.505C1084.45 484.505 1084.01 484.441 1083.54 484.313C1083.07 484.207 1082.63 484.004 1082.2 483.705C1081.77 483.385 1081.42 482.937 1081.14 482.361C1080.87 481.764 1080.73 481.007 1080.73 480.089V469.881H1079.13C1078.7 469.881 1078.49 469.561 1078.49 468.921V468.537C1078.49 467.897 1078.7 467.577 1079.13 467.577H1080.73L1081.11 464.217C1081.15 463.748 1081.5 463.513 1082.14 463.513H1082.46C1083.1 463.513 1083.42 463.748 1083.42 464.217V467.577H1086.1C1086.53 467.577 1086.74 467.897 1086.74 468.537V468.921C1086.74 469.561 1086.53 469.881 1086.1 469.881H1083.42V479.833C1083.42 480.793 1083.59 481.433 1083.93 481.753C1084.27 482.052 1084.67 482.201 1085.14 482.201C1085.61 482.201 1085.92 482.18 1086.07 482.137C1086.22 482.073 1086.37 482.041 1086.52 482.041C1086.67 482.041 1086.79 482.148 1086.87 482.361C1086.98 482.575 1087.05 482.809 1087.1 483.065C1087.16 483.3 1087.19 483.46 1087.19 483.545C1087.19 483.823 1087.05 484.036 1086.78 484.185C1086.52 484.313 1086.21 484.399 1085.85 484.441C1085.49 484.484 1085.15 484.505 1084.86 484.505Z" fill="black"/>
<path d="M63.3666 121.373C62.0866 121.373 61.4466 121.032 61.4466 120.349V116.765H53.0626C52.8919 116.765 52.7106 116.584 52.5186 116.221C52.3266 115.837 52.1666 115.41 52.0386 114.941C51.9319 114.45 51.8786 114.066 51.8786 113.789C51.8786 113.64 51.8999 113.522 51.9426 113.437L61.4466 99.4528C61.6386 99.1755 61.8946 99.0048 62.2146 98.9408C62.5346 98.8768 62.9293 98.8448 63.3986 98.8448H64.2626C65.5426 98.8448 66.1826 99.1862 66.1826 99.8688V113.021H67.3986C68.0386 113.021 68.3586 113.554 68.3586 114.621V115.165C68.3586 116.232 68.0386 116.765 67.3986 116.765H66.1826V120.349C66.1826 121.032 65.5426 121.373 64.2626 121.373H63.3666ZM56.6466 113.021H61.4466V108.093C61.4466 107.602 61.4786 107.069 61.5426 106.493C61.6279 105.917 61.7133 105.458 61.7986 105.117L61.6706 105.085L56.6466 113.021ZM72.5236 121.309C72.3743 121.309 72.2249 121.138 72.0756 120.797C71.9476 120.456 71.8409 120.061 71.7556 119.613C71.6703 119.165 71.6276 118.792 71.6276 118.493C71.6276 118.258 71.6596 118.098 71.7236 118.013L79.8196 108.093C80.0543 107.794 80.2569 107.485 80.4276 107.165C80.6196 106.845 80.7689 106.504 80.8756 106.141C80.9823 105.778 81.0356 105.405 81.0356 105.021C81.0356 104.146 80.7476 103.496 80.1716 103.069C79.6169 102.642 78.9129 102.429 78.0596 102.429C77.3769 102.429 76.7903 102.546 76.2996 102.781C75.8089 102.994 75.4036 103.218 75.0836 103.453C74.7636 103.688 74.5076 103.805 74.3156 103.805C73.9956 103.805 73.6969 103.677 73.4196 103.421C73.1423 103.165 72.9183 102.866 72.7476 102.525C72.5769 102.184 72.4916 101.874 72.4916 101.597C72.4916 101.128 72.6729 100.712 73.0356 100.349C73.4196 99.9862 73.9209 99.6768 74.5396 99.4208C75.1583 99.1648 75.8409 98.9728 76.5876 98.8448C77.3556 98.7168 78.1129 98.6528 78.8596 98.6528C81.1209 98.6528 82.8489 99.2395 84.0436 100.413C85.2383 101.586 85.8356 103.09 85.8356 104.925C85.8356 105.33 85.8036 105.725 85.7396 106.109C85.6756 106.493 85.5903 106.866 85.4836 107.229C85.3769 107.592 85.2383 107.944 85.0676 108.285C84.8969 108.626 84.7156 108.957 84.5236 109.277C84.3316 109.576 84.1183 109.864 83.8836 110.141L77.8676 117.565H85.2596C85.8996 117.565 86.2196 118.098 86.2196 119.165V119.709C86.2196 120.776 85.8996 121.309 85.2596 121.309H72.5236ZM91.8886 121.373C90.6086 121.373 89.9686 121.032 89.9686 120.349V117.405C89.9686 116.722 90.6086 116.381 91.8886 116.381H92.9126C94.1926 116.381 94.8326 116.722 94.8326 117.405V120.349C94.8326 121.032 94.1926 121.373 92.9126 121.373H91.8886ZM101.88 121.469C101.518 121.469 101.219 121.298 100.984 120.957C100.75 120.594 100.568 120.2 100.44 119.773C100.334 119.346 100.28 119.026 100.28 118.813C100.28 118.578 100.302 118.418 100.344 118.333C100.408 118.248 100.526 118.184 100.696 118.141C102.275 117.714 103.694 116.957 104.952 115.869C106.211 114.76 107.107 113.416 107.64 111.837C107.022 112.178 106.446 112.402 105.912 112.509C105.4 112.594 104.91 112.637 104.44 112.637C103.843 112.637 103.182 112.53 102.456 112.317C101.752 112.082 101.07 111.709 100.408 111.197C99.747 110.685 99.203 109.992 98.7763 109.117C98.3497 108.242 98.1363 107.154 98.1363 105.853C98.1363 104.552 98.3497 103.453 98.7763 102.557C99.2243 101.64 99.811 100.904 100.536 100.349C101.262 99.7728 102.072 99.3568 102.968 99.1008C103.864 98.8235 104.76 98.6848 105.656 98.6848C106.552 98.6848 107.448 98.8342 108.344 99.1328C109.24 99.4315 110.051 99.9115 110.776 100.573C111.523 101.213 112.11 102.066 112.536 103.133C112.984 104.2 113.208 105.501 113.208 107.037C113.208 109.085 112.942 110.866 112.408 112.381C111.896 113.896 111.224 115.186 110.392 116.253C109.56 117.298 108.664 118.173 107.704 118.877C106.766 119.56 105.859 120.093 104.984 120.477C104.131 120.84 103.416 121.096 102.84 121.245C102.286 121.394 101.966 121.469 101.88 121.469ZM105.816 108.893C106.243 108.893 106.67 108.818 107.096 108.669C107.523 108.52 107.939 108.338 108.344 108.125C108.366 107.89 108.376 107.656 108.376 107.421C108.376 107.165 108.376 106.909 108.376 106.653C108.376 105.586 108.248 104.754 107.992 104.157C107.758 103.538 107.427 103.101 107 102.845C106.595 102.568 106.136 102.429 105.624 102.429C105.134 102.429 104.675 102.568 104.248 102.845C103.843 103.122 103.512 103.506 103.256 103.997C103.022 104.488 102.904 105.064 102.904 105.725C102.904 106.365 103.011 106.93 103.224 107.421C103.459 107.89 103.79 108.253 104.216 108.509C104.664 108.765 105.198 108.893 105.816 108.893ZM121.277 121.373C120.829 121.373 120.605 121.234 120.605 120.957C120.605 120.85 120.659 120.69 120.765 120.477L132.189 99.7408C132.36 99.4422 132.552 99.2182 132.765 99.0688C132.979 98.9195 133.256 98.8448 133.597 98.8448H135.005C135.453 98.8448 135.677 98.9942 135.677 99.2928C135.677 99.3355 135.656 99.3995 135.613 99.4848C135.592 99.5488 135.56 99.6342 135.517 99.7408L124.093 120.477C123.944 120.754 123.752 120.978 123.517 121.149C123.304 121.298 123.027 121.373 122.685 121.373H121.277ZM134.333 121.565C133.587 121.565 132.84 121.426 132.093 121.149C131.368 120.872 130.76 120.349 130.269 119.581C129.779 118.792 129.533 117.661 129.533 116.189C129.533 114.696 129.779 113.565 130.269 112.797C130.76 112.029 131.368 111.506 132.093 111.229C132.84 110.952 133.587 110.813 134.333 110.813C135.08 110.813 135.816 110.952 136.541 111.229C137.288 111.506 137.907 112.029 138.397 112.797C138.888 113.565 139.133 114.696 139.133 116.189C139.133 117.661 138.888 118.792 138.397 119.581C137.907 120.349 137.288 120.872 136.541 121.149C135.816 121.426 135.08 121.565 134.333 121.565ZM134.333 118.941C134.76 118.941 135.08 118.802 135.293 118.525C135.507 118.226 135.645 117.864 135.709 117.437C135.795 117.01 135.837 116.594 135.837 116.189C135.837 115.762 135.795 115.357 135.709 114.973C135.645 114.568 135.507 114.237 135.293 113.981C135.08 113.704 134.76 113.565 134.333 113.565C133.928 113.565 133.608 113.704 133.373 113.981C133.16 114.237 133.011 114.568 132.925 114.973C132.84 115.357 132.797 115.762 132.797 116.189C132.797 116.594 132.84 117.01 132.925 117.437C133.011 117.864 133.16 118.226 133.373 118.525C133.608 118.802 133.928 118.941 134.333 118.941ZM121.949 109.405C121.203 109.405 120.456 109.266 119.709 108.989C118.984 108.712 118.376 108.189 117.885 107.421C117.395 106.632 117.149 105.501 117.149 104.029C117.149 102.536 117.395 101.405 117.885 100.637C118.376 99.8688 118.984 99.3462 119.709 99.0688C120.456 98.7915 121.203 98.6528 121.949 98.6528C122.696 98.6528 123.432 98.7915 124.157 99.0688C124.904 99.3462 125.523 99.8688 126.013 100.637C126.504 101.405 126.749 102.536 126.749 104.029C126.749 105.501 126.504 106.632 126.013 107.421C125.523 108.189 124.904 108.712 124.157 108.989C123.432 109.266 122.696 109.405 121.949 109.405ZM121.949 106.781C122.376 106.781 122.696 106.642 122.909 106.365C123.123 106.066 123.261 105.704 123.325 105.277C123.411 104.85 123.453 104.434 123.453 104.029C123.453 103.602 123.411 103.197 123.325 102.813C123.261 102.408 123.123 102.077 122.909 101.821C122.696 101.544 122.376 101.405 121.949 101.405C121.544 101.405 121.224 101.544 120.989 101.821C120.776 102.077 120.627 102.408 120.541 102.813C120.456 103.197 120.413 103.602 120.413 104.029C120.413 104.434 120.456 104.85 120.541 105.277C120.627 105.704 120.776 106.066 120.989 106.365C121.224 106.642 121.544 106.781 121.949 106.781Z" fill="black"/>
<path d="M9.376 193.663C9.056 193.663 8.77867 193.631 8.544 193.567C8.30933 193.482 8.16 193.343 8.096 193.151L0.768 172.095C0.746667 172.01 0.725333 171.935 0.704 171.871C0.682667 171.807 0.672 171.743 0.672 171.679C0.672 171.316 1.13067 171.135 2.048 171.135H2.368C2.688 171.135 2.96533 171.178 3.2 171.263C3.43467 171.327 3.584 171.455 3.648 171.647L9.12 187.295C9.312 187.85 9.472 188.394 9.6 188.927C9.728 189.46 9.83467 189.951 9.92 190.399H10.016C10.1227 189.866 10.2507 189.332 10.4 188.799C10.5493 188.244 10.6987 187.732 10.848 187.263L16.224 171.647C16.288 171.455 16.4373 171.327 16.672 171.263C16.9067 171.178 17.184 171.135 17.504 171.135H17.696C18.6133 171.135 19.072 171.316 19.072 171.679C19.072 171.786 19.04 171.935 18.976 172.127L11.648 193.151C11.584 193.343 11.4347 193.482 11.2 193.567C10.9653 193.631 10.688 193.663 10.368 193.663H9.376ZM29.6688 193.791C27.0234 193.791 25.0501 193.098 23.7488 191.711C22.4688 190.324 21.8288 188.202 21.8288 185.343C21.8288 183.444 22.1061 181.855 22.6608 180.575C23.2368 179.295 24.0794 178.324 25.1888 177.663C26.2981 177.002 27.6634 176.671 29.2848 176.671C30.7568 176.671 31.9728 176.991 32.9328 177.631C33.9141 178.271 34.6501 179.21 35.1408 180.447C35.6314 181.684 35.8768 183.21 35.8768 185.023C35.8768 185.151 35.8128 185.322 35.6848 185.535C35.5781 185.727 35.4394 185.908 35.2688 186.079C35.0981 186.25 34.9488 186.335 34.8208 186.335H24.7088C24.8368 188.106 25.2954 189.407 26.0848 190.239C26.8741 191.071 28.0581 191.487 29.6368 191.487C30.5754 191.487 31.3648 191.38 32.0048 191.167C32.6661 190.932 33.1888 190.708 33.5728 190.495C33.9568 190.26 34.2021 190.143 34.3088 190.143C34.4581 190.143 34.6181 190.25 34.7888 190.463C34.9594 190.676 35.1088 190.911 35.2368 191.167C35.3648 191.423 35.4288 191.615 35.4288 191.743C35.4288 191.935 35.2794 192.148 34.9808 192.383C34.6821 192.618 34.2661 192.842 33.7328 193.055C33.2208 193.268 32.6128 193.45 31.9088 193.599C31.2261 193.727 30.4794 193.791 29.6688 193.791ZM24.7088 184.031H33.0288C33.0288 182.346 32.7088 181.087 32.0688 180.255C31.4288 179.402 30.4688 178.975 29.1888 178.975C27.8021 178.975 26.7354 179.402 25.9888 180.255C25.2421 181.087 24.8154 182.346 24.7088 184.031ZM43.0788 193.663C42.2254 193.663 41.7988 193.428 41.7988 192.959V181.727C41.7988 180.852 41.7668 180.127 41.7028 179.551C41.6388 178.975 41.5748 178.538 41.5108 178.239C41.4468 177.919 41.4148 177.738 41.4148 177.695C41.4148 177.546 41.4788 177.428 41.6068 177.343C41.7561 177.236 41.9268 177.162 42.1188 177.119C42.3108 177.055 42.5028 177.012 42.6948 176.991C42.8868 176.97 43.0361 176.959 43.1428 176.959C43.3988 176.959 43.5908 177.076 43.7188 177.311C43.8681 177.546 43.9748 177.834 44.0388 178.175C44.1241 178.495 44.1988 178.794 44.2628 179.071C44.8174 178.303 45.4041 177.716 46.0228 177.311C46.6628 176.884 47.3134 176.671 47.9748 176.671C48.5934 176.671 49.0521 176.778 49.3508 176.991C49.6708 177.183 49.8308 177.492 49.8308 177.919C49.8308 178.111 49.7988 178.346 49.7348 178.623C49.6921 178.9 49.6174 179.146 49.5108 179.359C49.4254 179.551 49.3188 179.647 49.1908 179.647C48.9774 179.647 48.7641 179.594 48.5508 179.487C48.3588 179.359 47.9854 179.295 47.4308 179.295C46.8761 179.295 46.3748 179.455 45.9268 179.775C45.4788 180.095 45.1268 180.426 44.8708 180.767C44.6148 181.087 44.4868 181.247 44.4868 181.247V192.959C44.4868 193.428 44.0601 193.663 43.2068 193.663H43.0788ZM56.7175 200.255C56.0135 200.255 55.6615 200.084 55.6615 199.743C55.6615 199.7 55.6615 199.647 55.6615 199.583C55.6828 199.54 55.7362 199.412 55.8215 199.199L58.9255 191.679V193.759L52.9095 177.759C52.8882 177.716 52.8668 177.652 52.8455 177.567C52.8242 177.482 52.8135 177.407 52.8135 177.343C52.8135 176.98 53.2722 176.799 54.1895 176.799H54.4455C54.7655 176.799 55.0428 176.842 55.2775 176.927C55.5122 176.991 55.6615 177.119 55.7255 177.311L58.9895 185.983C59.1815 186.516 59.3628 187.06 59.5335 187.615C59.7042 188.17 59.8642 188.703 60.0135 189.215H60.0775C60.2482 188.724 60.4188 188.191 60.5895 187.615C60.7602 187.018 60.9415 186.474 61.1335 185.983L64.3335 177.311C64.3975 177.119 64.5468 176.991 64.7815 176.927C65.0162 176.842 65.3042 176.799 65.6455 176.799H65.7415C66.5948 176.799 67.0215 176.98 67.0215 177.343C67.0215 177.45 66.9895 177.599 66.9255 177.791L58.7015 199.583C58.6162 199.818 58.4348 199.988 58.1575 200.095C57.9015 200.202 57.5815 200.255 57.1975 200.255H56.7175ZM85.2833 193.791C84.8779 193.791 84.4406 193.727 83.9713 193.599C83.5019 193.492 83.0539 193.29 82.6273 192.991C82.2006 192.671 81.8486 192.223 81.5713 191.647C81.2939 191.05 81.1553 190.292 81.1553 189.375V170.239C81.1553 169.77 81.5819 169.535 82.4353 169.535H82.5633C83.4166 169.535 83.8433 169.77 83.8433 170.239V189.119C83.8433 190.079 84.0139 190.719 84.3553 191.039C84.6966 191.338 85.1019 191.487 85.5713 191.487C86.0406 191.487 86.3499 191.466 86.4993 191.423C86.6486 191.359 86.7979 191.327 86.9473 191.327C87.0966 191.327 87.2139 191.434 87.2993 191.647C87.4059 191.86 87.4806 192.095 87.5233 192.351C87.5873 192.586 87.6193 192.746 87.6193 192.831C87.6193 193.108 87.4806 193.322 87.2033 193.471C86.9473 193.599 86.6379 193.684 86.2753 193.727C85.9126 193.77 85.5819 193.791 85.2833 193.791ZM93.8232 193.663C92.9699 193.663 92.5432 193.428 92.5432 192.959V177.503C92.5432 177.034 92.9699 176.799 93.8232 176.799H93.9512C94.8046 176.799 95.2312 177.034 95.2312 177.503V192.959C95.2312 193.428 94.8046 193.663 93.9512 193.663H93.8232ZM93.8872 174.559C93.3752 174.559 93.0126 174.495 92.7992 174.367C92.5859 174.239 92.4792 174.068 92.4792 173.855V171.935C92.4792 171.722 92.5859 171.551 92.7992 171.423C93.0126 171.295 93.3752 171.231 93.8872 171.231C94.3992 171.231 94.7619 171.295 94.9752 171.423C95.1886 171.53 95.2952 171.7 95.2952 171.935V173.855C95.2952 174.068 95.1886 174.239 94.9752 174.367C94.7619 174.495 94.3992 174.559 93.8872 174.559ZM107.252 193.791C106.847 193.791 106.409 193.727 105.94 193.599C105.471 193.492 105.023 193.29 104.596 192.991C104.169 192.671 103.817 192.223 103.54 191.647C103.263 191.05 103.124 190.292 103.124 189.375V179.167H101.524C101.097 179.167 100.884 178.847 100.884 178.207V177.823C100.884 177.183 101.097 176.863 101.524 176.863H103.124L103.508 173.503C103.551 173.034 103.892 172.799 104.532 172.799H104.852C105.492 172.799 105.812 173.034 105.812 173.503V176.863H108.5C108.927 176.863 109.14 177.183 109.14 177.823V178.207C109.14 178.847 108.927 179.167 108.5 179.167H105.812V189.119C105.812 190.079 105.983 190.719 106.324 191.039C106.665 191.338 107.071 191.487 107.54 191.487C108.009 191.487 108.319 191.466 108.468 191.423C108.617 191.359 108.767 191.327 108.916 191.327C109.065 191.327 109.183 191.434 109.268 191.647C109.375 191.86 109.449 192.095 109.492 192.351C109.556 192.586 109.588 192.746 109.588 192.831C109.588 193.108 109.449 193.322 109.172 193.471C108.916 193.599 108.607 193.684 108.244 193.727C107.881 193.77 107.551 193.791 107.252 193.791ZM119.79 193.791C119.384 193.791 118.947 193.727 118.478 193.599C118.008 193.492 117.56 193.29 117.134 192.991C116.707 192.671 116.355 192.223 116.078 191.647C115.8 191.05 115.662 190.292 115.662 189.375V179.167H114.062C113.635 179.167 113.422 178.847 113.422 178.207V177.823C113.422 177.183 113.635 176.863 114.062 176.863H115.662L116.046 173.503C116.088 173.034 116.43 172.799 117.07 172.799H117.39C118.03 172.799 118.35 173.034 118.35 173.503V176.863H121.038C121.464 176.863 121.678 177.183 121.678 177.823V178.207C121.678 178.847 121.464 179.167 121.038 179.167H118.35V189.119C118.35 190.079 118.52 190.719 118.862 191.039C119.203 191.338 119.608 191.487 120.078 191.487C120.547 191.487 120.856 191.466 121.006 191.423C121.155 191.359 121.304 191.327 121.454 191.327C121.603 191.327 121.72 191.434 121.806 191.647C121.912 191.86 121.987 192.095 122.03 192.351C122.094 192.586 122.126 192.746 122.126 192.831C122.126 193.108 121.987 193.322 121.71 193.471C121.454 193.599 121.144 193.684 120.782 193.727C120.419 193.77 120.088 193.791 119.79 193.791ZM131.527 193.791C131.122 193.791 130.684 193.727 130.215 193.599C129.746 193.492 129.298 193.29 128.871 192.991C128.444 192.671 128.092 192.223 127.815 191.647C127.538 191.05 127.399 190.292 127.399 189.375V170.239C127.399 169.77 127.826 169.535 128.679 169.535H128.807C129.66 169.535 130.087 169.77 130.087 170.239V189.119C130.087 190.079 130.258 190.719 130.599 191.039C130.94 191.338 131.346 191.487 131.815 191.487C132.284 191.487 132.594 191.466 132.743 191.423C132.892 191.359 133.042 191.327 133.191 191.327C133.34 191.327 133.458 191.434 133.543 191.647C133.65 191.86 133.724 192.095 133.767 192.351C133.831 192.586 133.863 192.746 133.863 192.831C133.863 193.108 133.724 193.322 133.447 193.471C133.191 193.599 132.882 193.684 132.519 193.727C132.156 193.77 131.826 193.791 131.527 193.791ZM144.413 193.791C141.767 193.791 139.794 193.098 138.493 191.711C137.213 190.324 136.573 188.202 136.573 185.343C136.573 183.444 136.85 181.855 137.405 180.575C137.981 179.295 138.823 178.324 139.933 177.663C141.042 177.002 142.407 176.671 144.029 176.671C145.501 176.671 146.717 176.991 147.677 177.631C148.658 178.271 149.394 179.21 149.885 180.447C150.375 181.684 150.621 183.21 150.621 185.023C150.621 185.151 150.557 185.322 150.429 185.535C150.322 185.727 150.183 185.908 150.013 186.079C149.842 186.25 149.693 186.335 149.565 186.335H139.453C139.581 188.106 140.039 189.407 140.829 190.239C141.618 191.071 142.802 191.487 144.381 191.487C145.319 191.487 146.109 191.38 146.749 191.167C147.41 190.932 147.933 190.708 148.317 190.495C148.701 190.26 148.946 190.143 149.053 190.143C149.202 190.143 149.362 190.25 149.533 190.463C149.703 190.676 149.853 190.911 149.981 191.167C150.109 191.423 150.173 191.615 150.173 191.743C150.173 191.935 150.023 192.148 149.725 192.383C149.426 192.618 149.01 192.842 148.477 193.055C147.965 193.268 147.357 193.45 146.653 193.599C145.97 193.727 145.223 193.791 144.413 193.791ZM139.453 184.031H147.773C147.773 182.346 147.453 181.087 146.813 180.255C146.173 179.402 145.213 178.975 143.933 178.975C142.546 178.975 141.479 179.402 140.733 180.255C139.986 181.087 139.559 182.346 139.453 184.031Z" fill="black"/>
<path d="M838.417 260.5C838.417 299.621 829.166 338.24 811.35 373.489C793.535 408.739 767.613 439.714 735.509 464.115C703.405 488.517 665.942 505.718 625.903 514.441C585.864 523.164 544.276 523.187 504.227 514.506C464.177 505.825 426.695 488.664 394.562 464.296C362.429 439.929 336.471 408.981 318.615 373.751C300.759 338.52 291.462 299.911 291.417 260.79C291.371 221.669 300.577 183.041 318.351 147.772L564.917 260.5H838.417Z" fill="#829B69"/>
<path d="M838.417 260.5C838.417 201.514 817.399 144.275 778.802 98.1459C740.205 52.0172 686.314 19.7306 625.946 6.5683C565.578 -6.59395 502.307 0.147452 446.485 25.6896C390.663 51.2317 345.594 94.0623 318.653 147.174L564.917 260.5H838.417Z" fill="#B0CA97"/>
<path d="M966.47 370.054C967.06 369.472 967.066 368.523 966.485 367.933L957.007 358.319C956.426 357.729 955.476 357.722 954.886 358.304C954.296 358.885 954.289 359.835 954.871 360.425L963.295 368.971L954.75 377.395C954.16 377.977 954.153 378.926 954.735 379.516C955.316 380.106 956.266 380.113 956.856 379.531L966.47 370.054ZM687.406 368.5L965.406 370.486L965.427 367.486L687.427 365.5L687.406 368.5Z" fill="black"/>
<path d="M213.364 100.932C212.774 101.513 212.767 102.463 213.348 103.053L222.826 112.667C223.408 113.257 224.357 113.264 224.947 112.682C225.537 112.1 225.544 111.151 224.962 110.561L216.538 102.015L225.084 93.5906C225.674 93.009 225.68 92.0593 225.099 91.4693C224.517 90.8794 223.567 90.8726 222.977 91.4542L213.364 100.932ZM492.427 102.486L214.427 100.5L214.406 103.5L492.406 105.486L492.427 102.486Z" fill="black"/>
</svg>
