<svg width="1203" height="529" viewBox="0 0 1203 529" fill="none" xmlns="http://www.w3.org/2000/svg">
<rect width="1440" height="21739" transform="translate(-111 -5001)" fill="white"/>
<path d="M854.643 264.319C854.643 303.676 845.635 342.529 828.286 377.999C810.937 413.468 785.692 444.645 754.421 469.22C723.151 493.794 686.656 511.135 647.642 519.959C608.628 528.783 568.095 528.863 529.045 520.193C489.995 511.524 453.431 494.326 422.06 469.876C390.689 445.425 365.317 414.348 347.823 378.947C330.33 343.546 321.163 304.729 321.002 265.372C320.841 226.015 329.691 187.126 346.895 151.588L587.822 264.319H854.643Z" fill="#D9D9D9"/>
<path d="M347.344 150.665C364.738 115.093 390.073 83.8381 421.461 59.2295C452.849 34.621 489.481 17.293 528.627 8.5368L587.822 264.319L347.344 150.665Z" fill="#B0CA97"/>
<path d="M854.643 264.319C854.643 224.864 845.59 185.917 828.158 150.379C810.727 114.84 785.365 83.625 753.963 59.0578L587.822 264.319H854.643Z" fill="#467061"/>
<path d="M755.475 60.2496C724.19 35.408 687.599 17.8398 648.436 8.85841C609.273 -0.12299 568.552 -0.285283 529.316 8.38366L587.822 264.319L755.475 60.2496Z" fill="#829B69"/>
<path d="M933.75 386.72C934.336 386.135 934.336 385.185 933.75 384.599L924.204 375.053C923.618 374.467 922.669 374.467 922.083 375.053C921.497 375.639 921.497 376.589 922.083 377.174L930.568 385.66L922.083 394.145C921.497 394.731 921.497 395.68 922.083 396.266C922.669 396.852 923.618 396.852 924.204 396.266L933.75 386.72ZM688.794 387.16H932.69V384.16H688.794V387.16Z" fill="black"/>
<path d="M989.245 446.423C988.925 446.423 988.637 446.391 988.381 446.327C988.146 446.242 988.007 446.103 987.965 445.911L982.493 424.887C982.471 424.823 982.45 424.749 982.429 424.663C982.407 424.578 982.397 424.503 982.397 424.439C982.397 424.077 982.855 423.895 983.773 423.895H984.093C984.413 423.895 984.69 423.938 984.925 424.023C985.181 424.087 985.33 424.215 985.373 424.407L989.117 438.999C989.245 439.447 989.362 439.938 989.469 440.471C989.575 440.983 989.671 441.474 989.757 441.943C989.842 442.413 989.895 442.807 989.917 443.127H990.045C990.13 442.786 990.205 442.445 990.269 442.103C990.354 441.762 990.439 441.421 990.525 441.079C990.61 440.738 990.695 440.397 990.781 440.055L994.653 424.439C994.695 424.226 994.834 424.087 995.069 424.023C995.303 423.938 995.581 423.895 995.901 423.895H996.413C996.733 423.895 997.01 423.938 997.245 424.023C997.479 424.087 997.618 424.226 997.661 424.439L1001.34 438.999C1001.47 439.447 1001.58 439.927 1001.66 440.439C1001.77 440.951 1001.86 441.442 1001.95 441.911C1002.03 442.381 1002.09 442.786 1002.11 443.127H1002.24C1002.32 442.786 1002.4 442.423 1002.46 442.039C1002.55 441.655 1002.63 441.293 1002.72 440.951C1002.8 440.61 1002.88 440.322 1002.94 440.087L1006.81 424.407C1006.86 424.215 1006.99 424.087 1007.23 424.023C1007.48 423.938 1007.77 423.895 1008.09 423.895H1008.28C1009.2 423.895 1009.66 424.077 1009.66 424.439C1009.66 424.461 1009.65 424.525 1009.63 424.631C1009.61 424.738 1009.59 424.823 1009.56 424.887L1004.03 445.911C1003.99 446.103 1003.84 446.242 1003.58 446.327C1003.35 446.391 1003.07 446.423 1002.75 446.423H1001.44C1001.12 446.423 1000.83 446.391 1000.57 446.327C1000.34 446.242 1000.2 446.103 1000.16 445.911L997.117 434.551C996.882 433.677 996.658 432.685 996.445 431.575C996.253 430.466 996.125 429.517 996.061 428.727H995.933C995.869 429.495 995.762 430.338 995.613 431.255C995.485 432.151 995.335 432.887 995.165 433.463L991.837 445.911C991.794 446.103 991.645 446.242 991.389 446.327C991.154 446.391 990.877 446.423 990.557 446.423H989.245ZM1020.51 446.551C1017.87 446.551 1015.89 445.858 1014.59 444.471C1013.31 443.085 1012.67 440.962 1012.67 438.103C1012.67 436.205 1012.95 434.615 1013.5 433.335C1014.08 432.055 1014.92 431.085 1016.03 430.423C1017.14 429.762 1018.51 429.431 1020.13 429.431C1021.6 429.431 1022.82 429.751 1023.78 430.391C1024.76 431.031 1025.49 431.97 1025.98 433.207C1026.48 434.445 1026.72 435.97 1026.72 437.783C1026.72 437.911 1026.66 438.082 1026.53 438.295C1026.42 438.487 1026.28 438.669 1026.11 438.839C1025.94 439.01 1025.79 439.095 1025.66 439.095H1015.55C1015.68 440.866 1016.14 442.167 1016.93 442.999C1017.72 443.831 1018.9 444.247 1020.48 444.247C1021.42 444.247 1022.21 444.141 1022.85 443.927C1023.51 443.693 1024.03 443.469 1024.42 443.255C1024.8 443.021 1025.05 442.903 1025.15 442.903C1025.3 442.903 1025.46 443.01 1025.63 443.223C1025.8 443.437 1025.95 443.671 1026.08 443.927C1026.21 444.183 1026.27 444.375 1026.27 444.503C1026.27 444.695 1026.12 444.909 1025.82 445.143C1025.53 445.378 1025.11 445.602 1024.58 445.815C1024.06 446.029 1023.46 446.21 1022.75 446.359C1022.07 446.487 1021.32 446.551 1020.51 446.551ZM1015.55 436.791H1023.87C1023.87 435.106 1023.55 433.847 1022.91 433.015C1022.27 432.162 1021.31 431.735 1020.03 431.735C1018.65 431.735 1017.58 432.162 1016.83 433.015C1016.09 433.847 1015.66 435.106 1015.55 436.791ZM1050.95 446.551C1050.03 446.551 1049.14 446.359 1048.29 445.975C1047.46 445.57 1046.65 444.962 1045.86 444.151C1045.73 444.983 1045.56 445.613 1045.35 446.039C1045.28 446.189 1045.18 446.295 1045.03 446.359C1044.9 446.402 1044.72 446.423 1044.48 446.423H1044.35C1043.71 446.423 1043.39 446.189 1043.39 445.719V422.999C1043.39 422.53 1043.82 422.295 1044.67 422.295H1044.8C1045.66 422.295 1046.08 422.53 1046.08 422.999V431.063C1046.7 430.573 1047.37 430.178 1048.1 429.879C1048.82 429.581 1049.68 429.431 1050.66 429.431C1052.56 429.431 1054.11 430.167 1055.33 431.639C1056.55 433.09 1057.15 435.202 1057.15 437.975C1057.15 439.639 1056.9 441.122 1056.39 442.423C1055.9 443.703 1055.18 444.717 1054.24 445.463C1053.33 446.189 1052.23 446.551 1050.95 446.551ZM1050.4 444.215C1051.66 444.215 1052.63 443.661 1053.31 442.551C1054 441.421 1054.34 439.821 1054.34 437.751C1054.34 435.853 1053.98 434.391 1053.25 433.367C1052.55 432.322 1051.48 431.799 1050.05 431.799C1049.37 431.799 1048.67 431.917 1047.97 432.151C1047.29 432.386 1046.66 432.749 1046.08 433.239V442.007C1046.74 442.733 1047.45 443.287 1048.19 443.671C1048.96 444.034 1049.7 444.215 1050.4 444.215ZM1068.11 446.551C1066.49 446.551 1065.21 446.093 1064.27 445.175C1063.35 444.258 1062.89 442.989 1062.89 441.367V430.263C1062.89 429.794 1063.32 429.559 1064.17 429.559H1064.3C1065.16 429.559 1065.58 429.794 1065.58 430.263V441.111C1065.58 442.093 1065.86 442.861 1066.41 443.415C1066.99 443.949 1067.8 444.215 1068.85 444.215C1069.57 444.215 1070.29 444.013 1070.99 443.607C1071.72 443.202 1072.34 442.658 1072.88 441.975V430.263C1072.88 429.794 1073.3 429.559 1074.16 429.559H1074.29C1075.14 429.559 1075.57 429.794 1075.57 430.263V441.623C1075.57 442.498 1075.6 443.223 1075.66 443.799C1075.73 444.375 1075.79 444.813 1075.85 445.111C1075.92 445.41 1075.95 445.591 1075.95 445.655C1075.95 445.805 1075.88 445.933 1075.73 446.039C1075.6 446.125 1075.44 446.199 1075.25 446.263C1075.05 446.306 1074.86 446.338 1074.67 446.359C1074.48 446.381 1074.33 446.391 1074.22 446.391C1073.97 446.391 1073.76 446.274 1073.61 446.039C1073.49 445.783 1073.38 445.485 1073.29 445.143C1073.23 444.781 1073.17 444.45 1073.1 444.151C1072.44 444.898 1071.66 445.485 1070.77 445.911C1069.89 446.338 1069.01 446.551 1068.11 446.551ZM1084.39 453.015C1083.68 453.015 1083.33 452.845 1083.33 452.503C1083.33 452.461 1083.33 452.407 1083.33 452.343C1083.35 452.301 1083.4 452.173 1083.49 451.959L1086.59 444.439V446.519L1080.58 430.519C1080.56 430.477 1080.54 430.413 1080.51 430.327C1080.49 430.242 1080.48 430.167 1080.48 430.103C1080.48 429.741 1080.94 429.559 1081.86 429.559H1082.11C1082.43 429.559 1082.71 429.602 1082.95 429.687C1083.18 429.751 1083.33 429.879 1083.39 430.071L1086.66 438.743C1086.85 439.277 1087.03 439.821 1087.2 440.375C1087.37 440.93 1087.53 441.463 1087.68 441.975H1087.75C1087.92 441.485 1088.09 440.951 1088.26 440.375C1088.43 439.778 1088.61 439.234 1088.8 438.743L1092 430.071C1092.07 429.879 1092.22 429.751 1092.45 429.687C1092.68 429.602 1092.97 429.559 1093.31 429.559H1093.41C1094.26 429.559 1094.69 429.741 1094.69 430.103C1094.69 430.21 1094.66 430.359 1094.59 430.551L1086.37 452.343C1086.28 452.578 1086.1 452.749 1085.83 452.855C1085.57 452.962 1085.25 453.015 1084.87 453.015H1084.39ZM1115.38 446.551C1114.97 446.551 1114.53 446.487 1114.07 446.359C1113.6 446.253 1113.15 446.05 1112.72 445.751C1112.29 445.431 1111.94 444.983 1111.67 444.407C1111.39 443.81 1111.25 443.053 1111.25 442.135V431.927H1109.65C1109.22 431.927 1109.01 431.607 1109.01 430.967V430.583C1109.01 429.943 1109.22 429.623 1109.65 429.623H1111.25L1111.63 426.263C1111.68 425.794 1112.02 425.559 1112.66 425.559H1112.98C1113.62 425.559 1113.94 425.794 1113.94 426.263V429.623H1116.63C1117.05 429.623 1117.27 429.943 1117.27 430.583V430.967C1117.27 431.607 1117.05 431.927 1116.63 431.927H1113.94V441.879C1113.94 442.839 1114.11 443.479 1114.45 443.799C1114.79 444.098 1115.2 444.247 1115.67 444.247C1116.13 444.247 1116.44 444.226 1116.59 444.183C1116.74 444.119 1116.89 444.087 1117.04 444.087C1117.19 444.087 1117.31 444.194 1117.39 444.407C1117.5 444.621 1117.57 444.855 1117.62 445.111C1117.68 445.346 1117.71 445.506 1117.71 445.591C1117.71 445.869 1117.57 446.082 1117.3 446.231C1117.04 446.359 1116.73 446.445 1116.37 446.487C1116.01 446.53 1115.68 446.551 1115.38 446.551ZM1129.55 446.551C1127.14 446.551 1125.29 445.826 1124.01 444.375C1122.75 442.925 1122.12 440.823 1122.12 438.071C1122.12 435.298 1122.76 433.165 1124.04 431.671C1125.32 430.178 1127.16 429.431 1129.55 429.431C1131.89 429.431 1133.69 430.178 1134.92 431.671C1136.18 433.143 1136.81 435.277 1136.81 438.071C1136.81 440.845 1136.19 442.957 1134.95 444.407C1133.74 445.837 1131.94 446.551 1129.55 446.551ZM1129.45 444.247C1131.03 444.247 1132.18 443.746 1132.91 442.743C1133.65 441.719 1134.03 440.141 1134.03 438.007C1134.03 435.874 1133.65 434.295 1132.91 433.271C1132.18 432.247 1131.03 431.735 1129.45 431.735C1127.89 431.735 1126.75 432.247 1126.03 433.271C1125.3 434.274 1124.94 435.853 1124.94 438.007C1124.94 440.141 1125.3 441.719 1126.03 442.743C1126.75 443.746 1127.89 444.247 1129.45 444.247ZM1149.37 446.551C1146.95 446.551 1145.11 445.826 1143.83 444.375C1142.57 442.925 1141.94 440.823 1141.94 438.071C1141.94 435.298 1142.58 433.165 1143.86 431.671C1145.14 430.178 1146.98 429.431 1149.37 429.431C1151.71 429.431 1153.5 430.178 1154.74 431.671C1156 433.143 1156.63 435.277 1156.63 438.071C1156.63 440.845 1156.01 442.957 1154.77 444.407C1153.56 445.837 1151.75 446.551 1149.37 446.551ZM1149.27 444.247C1150.85 444.247 1152 443.746 1152.73 442.743C1153.47 441.719 1153.85 440.141 1153.85 438.007C1153.85 435.874 1153.47 434.295 1152.73 433.271C1152 432.247 1150.85 431.735 1149.27 431.735C1147.71 431.735 1146.57 432.247 1145.85 433.271C1145.12 434.274 1144.76 435.853 1144.76 438.007C1144.76 440.141 1145.12 441.719 1145.85 442.743C1146.57 443.746 1147.71 444.247 1149.27 444.247ZM985.469 497.423C984.615 497.423 984.189 497.189 984.189 496.719V485.487C984.189 484.613 984.157 483.887 984.093 483.311C984.029 482.735 983.965 482.298 983.901 481.999C983.837 481.679 983.805 481.498 983.805 481.455C983.805 481.306 983.869 481.189 983.997 481.103C984.146 480.997 984.317 480.922 984.509 480.879C984.701 480.815 984.893 480.773 985.085 480.751C985.277 480.73 985.426 480.719 985.533 480.719C985.789 480.719 985.981 480.837 986.109 481.071C986.258 481.306 986.365 481.594 986.429 481.935C986.514 482.255 986.589 482.554 986.653 482.831C987.186 482.213 987.869 481.658 988.701 481.167C989.554 480.677 990.493 480.431 991.517 480.431C992.05 480.431 992.605 480.506 993.181 480.655C993.778 480.783 994.333 481.039 994.845 481.423C995.378 481.807 995.794 482.362 996.093 483.087C996.711 482.362 997.458 481.743 998.333 481.231C999.229 480.698 1000.18 480.431 1001.18 480.431C1001.69 480.431 1002.24 480.506 1002.81 480.655C1003.39 480.783 1003.93 481.029 1004.44 481.391C1004.98 481.754 1005.4 482.277 1005.72 482.959C1006.04 483.642 1006.2 484.527 1006.2 485.615V496.719C1006.2 497.189 1005.78 497.423 1004.92 497.423H1004.8C1003.94 497.423 1003.52 497.189 1003.52 496.719V485.871C1003.52 484.933 1003.26 484.186 1002.75 483.631C1002.24 483.055 1001.47 482.767 1000.44 482.767C999.869 482.767 999.335 482.885 998.845 483.119C998.375 483.354 997.949 483.631 997.565 483.951C997.202 484.25 996.914 484.527 996.701 484.783C996.509 485.039 996.391 485.189 996.349 485.231L996.317 484.143C996.423 484.378 996.487 484.634 996.509 484.911C996.53 485.167 996.541 485.413 996.541 485.647V496.719C996.541 497.189 996.114 497.423 995.261 497.423H995.133C994.279 497.423 993.853 497.189 993.853 496.719V485.871C993.853 484.933 993.597 484.186 993.085 483.631C992.573 483.055 991.805 482.767 990.781 482.767C990.205 482.767 989.671 482.885 989.181 483.119C988.711 483.333 988.295 483.589 987.933 483.887C987.591 484.165 987.325 484.421 987.133 484.655C986.962 484.869 986.877 484.975 986.877 484.975V496.719C986.877 497.189 986.45 497.423 985.597 497.423H985.469ZM1017.81 497.551C1016.19 497.551 1014.91 497.093 1013.97 496.175C1013.05 495.258 1012.59 493.989 1012.59 492.367V481.263C1012.59 480.794 1013.02 480.559 1013.87 480.559H1014C1014.85 480.559 1015.28 480.794 1015.28 481.263V492.111C1015.28 493.093 1015.56 493.861 1016.11 494.415C1016.69 494.949 1017.5 495.215 1018.55 495.215C1019.27 495.215 1019.99 495.013 1020.69 494.607C1021.41 494.202 1022.04 493.658 1022.58 492.975V481.263C1022.58 480.794 1023 480.559 1023.86 480.559H1023.99C1024.84 480.559 1025.27 480.794 1025.27 481.263V492.623C1025.27 493.498 1025.3 494.223 1025.36 494.799C1025.43 495.375 1025.49 495.813 1025.55 496.111C1025.62 496.41 1025.65 496.591 1025.65 496.655C1025.65 496.805 1025.57 496.933 1025.43 497.039C1025.3 497.125 1025.14 497.199 1024.95 497.263C1024.75 497.306 1024.56 497.338 1024.37 497.359C1024.18 497.381 1024.03 497.391 1023.92 497.391C1023.67 497.391 1023.46 497.274 1023.31 497.039C1023.19 496.783 1023.08 496.485 1022.99 496.143C1022.93 495.781 1022.87 495.45 1022.8 495.151C1022.14 495.898 1021.36 496.485 1020.47 496.911C1019.59 497.338 1018.71 497.551 1017.81 497.551ZM1039.14 497.551C1036.56 497.551 1034.6 496.89 1033.25 495.567C1031.93 494.223 1031.27 492.005 1031.27 488.911C1031.27 487.247 1031.48 485.871 1031.91 484.783C1032.36 483.674 1032.94 482.81 1033.67 482.191C1034.42 481.551 1035.24 481.103 1036.13 480.847C1037.03 480.57 1037.94 480.431 1038.85 480.431C1039.69 480.431 1040.46 480.506 1041.19 480.655C1041.92 480.783 1042.5 480.965 1042.95 481.199C1043.42 481.413 1043.65 481.647 1043.65 481.903C1043.65 482.074 1043.59 482.298 1043.46 482.575C1043.36 482.853 1043.23 483.098 1043.08 483.311C1042.93 483.525 1042.78 483.631 1042.63 483.631C1042.61 483.631 1042.57 483.621 1042.5 483.599C1042.46 483.578 1042.38 483.546 1042.28 483.503C1042 483.375 1041.56 483.215 1040.97 483.023C1040.39 482.831 1039.66 482.735 1038.79 482.735C1037.38 482.735 1036.25 483.205 1035.4 484.143C1034.57 485.061 1034.15 486.629 1034.15 488.847C1034.15 491.087 1034.52 492.719 1035.27 493.743C1036.02 494.746 1037.3 495.247 1039.11 495.247C1040.01 495.247 1040.76 495.151 1041.38 494.959C1042 494.746 1042.45 494.565 1042.73 494.415C1042.83 494.373 1042.91 494.341 1042.95 494.319C1043.01 494.298 1043.06 494.287 1043.08 494.287C1043.23 494.287 1043.39 494.394 1043.56 494.607C1043.73 494.821 1043.87 495.055 1043.97 495.311C1044.1 495.567 1044.17 495.77 1044.17 495.919C1044.17 496.111 1044.04 496.303 1043.78 496.495C1043.53 496.687 1043.16 496.869 1042.69 497.039C1042.25 497.189 1041.71 497.306 1041.09 497.391C1040.5 497.498 1039.85 497.551 1039.14 497.551ZM1050.96 497.423C1050.11 497.423 1049.68 497.189 1049.68 496.719V473.999C1049.68 473.53 1050.11 473.295 1050.96 473.295H1051.09C1051.94 473.295 1052.37 473.53 1052.37 473.999V482.639C1052.92 482.085 1053.62 481.583 1054.45 481.135C1055.3 480.666 1056.24 480.431 1057.27 480.431C1057.78 480.431 1058.32 480.506 1058.9 480.655C1059.49 480.783 1060.05 481.029 1060.56 481.391C1061.09 481.754 1061.52 482.277 1061.84 482.959C1062.18 483.642 1062.35 484.527 1062.35 485.615V496.719C1062.35 497.189 1061.93 497.423 1061.07 497.423H1060.95C1060.09 497.423 1059.67 497.189 1059.67 496.719V485.871C1059.67 484.933 1059.39 484.186 1058.83 483.631C1058.3 483.055 1057.49 482.767 1056.4 482.767C1055.8 482.767 1055.26 482.885 1054.77 483.119C1054.28 483.333 1053.85 483.589 1053.49 483.887C1053.13 484.186 1052.85 484.453 1052.66 484.687C1052.47 484.901 1052.37 485.007 1052.37 485.007V496.719C1052.37 497.189 1051.94 497.423 1051.09 497.423H1050.96ZM1080.45 497.423C1079.6 497.423 1079.17 497.189 1079.17 496.719V482.927H1077.89C1077.47 482.927 1077.25 482.607 1077.25 481.967V481.583C1077.25 480.943 1077.47 480.623 1077.89 480.623H1079.17V477.583C1079.17 476.623 1079.31 475.855 1079.59 475.279C1079.87 474.703 1080.22 474.266 1080.65 473.967C1081.07 473.647 1081.52 473.434 1081.99 473.327C1082.46 473.221 1082.9 473.167 1083.3 473.167C1083.6 473.167 1083.93 473.189 1084.29 473.231C1084.66 473.274 1084.97 473.359 1085.22 473.487C1085.5 473.615 1085.64 473.829 1085.64 474.127C1085.64 474.213 1085.61 474.383 1085.54 474.639C1085.5 474.874 1085.43 475.098 1085.32 475.311C1085.23 475.525 1085.12 475.631 1084.97 475.631C1084.82 475.631 1084.67 475.61 1084.52 475.567C1084.37 475.503 1084.06 475.471 1083.59 475.471C1083.29 475.471 1083 475.525 1082.73 475.631C1082.47 475.738 1082.26 475.962 1082.09 476.303C1081.94 476.623 1081.86 477.135 1081.86 477.839V480.623H1084.65C1085.07 480.623 1085.29 480.943 1085.29 481.583V481.967C1085.29 482.607 1085.07 482.927 1084.65 482.927H1081.86V496.719C1081.86 497.189 1081.44 497.423 1080.58 497.423H1080.45ZM1096.91 497.551C1094.5 497.551 1092.65 496.826 1091.37 495.375C1090.11 493.925 1089.48 491.823 1089.48 489.071C1089.48 486.298 1090.12 484.165 1091.4 482.671C1092.68 481.178 1094.52 480.431 1096.91 480.431C1099.26 480.431 1101.05 481.178 1102.28 482.671C1103.54 484.143 1104.17 486.277 1104.17 489.071C1104.17 491.845 1103.55 493.957 1102.32 495.407C1101.1 496.837 1099.3 497.551 1096.91 497.551ZM1096.81 495.247C1098.39 495.247 1099.54 494.746 1100.27 493.743C1101.02 492.719 1101.39 491.141 1101.39 489.007C1101.39 486.874 1101.02 485.295 1100.27 484.271C1099.54 483.247 1098.39 482.735 1096.81 482.735C1095.26 482.735 1094.11 483.247 1093.39 484.271C1092.66 485.274 1092.3 486.853 1092.3 489.007C1092.3 491.141 1092.66 492.719 1093.39 493.743C1094.11 494.746 1095.26 495.247 1096.81 495.247ZM1116.73 497.551C1114.32 497.551 1112.47 496.826 1111.19 495.375C1109.93 493.925 1109.3 491.823 1109.3 489.071C1109.3 486.298 1109.94 484.165 1111.22 482.671C1112.5 481.178 1114.34 480.431 1116.73 480.431C1119.07 480.431 1120.87 481.178 1122.1 482.671C1123.36 484.143 1123.99 486.277 1123.99 489.071C1123.99 491.845 1123.37 493.957 1122.14 495.407C1120.92 496.837 1119.12 497.551 1116.73 497.551ZM1116.63 495.247C1118.21 495.247 1119.36 494.746 1120.09 493.743C1120.83 492.719 1121.21 491.141 1121.21 489.007C1121.21 486.874 1120.83 485.295 1120.09 484.271C1119.36 483.247 1118.21 482.735 1116.63 482.735C1115.07 482.735 1113.93 483.247 1113.21 484.271C1112.48 485.274 1112.12 486.853 1112.12 489.007C1112.12 491.141 1112.48 492.719 1113.21 493.743C1113.93 494.746 1115.07 495.247 1116.63 495.247ZM1135.23 497.551C1133.95 497.551 1132.85 497.189 1131.91 496.463C1130.99 495.717 1130.27 494.703 1129.76 493.423C1129.27 492.122 1129.03 490.65 1129.03 489.007C1129.03 486.213 1129.63 484.09 1130.85 482.639C1132.07 481.167 1133.62 480.431 1135.52 480.431C1136.53 480.431 1137.38 480.581 1138.08 480.879C1138.81 481.178 1139.48 481.573 1140.1 482.063V473.999C1140.1 473.53 1140.53 473.295 1141.38 473.295H1141.51C1142.36 473.295 1142.79 473.53 1142.79 473.999V492.623C1142.79 493.498 1142.82 494.223 1142.88 494.799C1142.95 495.375 1143.01 495.813 1143.07 496.111C1143.14 496.41 1143.17 496.591 1143.17 496.655C1143.17 496.805 1143.1 496.933 1142.95 497.039C1142.82 497.125 1142.66 497.199 1142.47 497.263C1142.27 497.306 1142.08 497.338 1141.89 497.359C1141.7 497.381 1141.55 497.391 1141.44 497.391C1141.19 497.391 1140.98 497.274 1140.83 497.039C1140.71 496.783 1140.6 496.485 1140.51 496.143C1140.45 495.781 1140.39 495.45 1140.32 495.151C1139.53 495.962 1138.71 496.57 1137.86 496.975C1137.03 497.359 1136.15 497.551 1135.23 497.551ZM1135.78 495.215C1136.48 495.215 1137.21 495.034 1137.95 494.671C1138.72 494.287 1139.44 493.733 1140.1 493.007V484.239C1139.52 483.749 1138.9 483.386 1138.24 483.151C1137.58 482.917 1136.89 482.799 1136.16 482.799C1134.73 482.799 1133.66 483.322 1132.93 484.367C1132.21 485.391 1131.84 486.853 1131.84 488.751C1131.84 490.821 1132.18 492.421 1132.87 493.551C1133.55 494.661 1134.52 495.215 1135.78 495.215Z" fill="black"/>
<path d="M988.957 396.483C987.762 396.483 986.685 396.387 985.725 396.195C984.786 395.982 984.039 395.704 983.485 395.363C982.951 395 982.685 394.606 982.685 394.179C982.685 393.987 982.77 393.688 982.941 393.283C983.133 392.878 983.367 392.504 983.645 392.163C983.922 391.822 984.178 391.651 984.413 391.651C984.541 391.651 984.797 391.747 985.181 391.939C985.565 392.11 986.066 392.291 986.685 392.483C987.325 392.654 988.071 392.739 988.925 392.739C989.629 392.739 990.237 392.611 990.749 392.355C991.261 392.099 991.655 391.726 991.933 391.235C992.21 390.723 992.349 390.126 992.349 389.443C992.349 388.312 992.05 387.438 991.453 386.819C990.855 386.2 989.821 385.891 988.349 385.891H984.861C984.391 385.891 984.071 385.795 983.901 385.603C983.751 385.39 983.677 385.059 983.677 384.611L984.285 375.107C984.327 374.659 984.445 374.339 984.637 374.147C984.829 373.934 985.159 373.827 985.629 373.827H995.069C995.709 373.827 996.029 374.36 996.029 375.427V376.291C996.029 377.144 995.709 377.571 995.069 377.571H988.605L988.285 382.147H989.117C990.333 382.147 991.431 382.264 992.413 382.499C993.394 382.734 994.237 383.128 994.941 383.683C995.645 384.216 996.189 384.942 996.573 385.859C996.957 386.776 997.149 387.928 997.149 389.315C997.149 390.659 996.903 391.8 996.413 392.739C995.943 393.656 995.303 394.392 994.493 394.947C993.703 395.48 992.818 395.875 991.837 396.131C990.877 396.366 989.917 396.483 988.957 396.483ZM1004.8 396.291C1003.54 396.291 1002.91 396.088 1002.91 395.683C1002.91 395.598 1002.92 395.512 1002.95 395.427C1002.99 395.32 1003.04 395.203 1003.11 395.075L1011.04 377.571H1002.69C1002.05 377.571 1001.73 377.038 1001.73 375.971V375.427C1001.73 374.36 1002.05 373.827 1002.69 373.827H1015.36C1015.49 373.827 1015.63 373.998 1015.78 374.339C1015.93 374.68 1016.05 375.075 1016.16 375.523C1016.27 375.971 1016.32 376.366 1016.32 376.707C1016.32 376.856 1016.3 376.995 1016.26 377.123L1007.84 395.651C1007.73 395.907 1007.51 396.078 1007.17 396.163C1006.85 396.248 1006.45 396.291 1005.99 396.291H1004.8ZM1021.57 396.291C1020.29 396.291 1019.65 395.95 1019.65 395.267V392.323C1019.65 391.64 1020.29 391.299 1021.57 391.299H1022.6C1023.88 391.299 1024.52 391.64 1024.52 392.323V395.267C1024.52 395.95 1023.88 396.291 1022.6 396.291H1021.57ZM1029.55 396.227C1028.91 396.227 1028.59 395.694 1028.59 394.627V394.083C1028.59 393.016 1028.91 392.483 1029.55 392.483H1033.81V378.115L1029.45 378.755C1029.18 378.755 1028.96 378.595 1028.81 378.275C1028.67 377.955 1028.56 377.582 1028.49 377.155C1028.45 376.728 1028.43 376.366 1028.43 376.067C1028.43 375.576 1028.71 375.278 1029.26 375.171L1037.23 373.699C1037.49 373.699 1037.76 373.784 1038.06 373.955C1038.38 374.104 1038.54 374.275 1038.54 374.467V392.483H1041.65C1042.29 392.483 1042.61 393.016 1042.61 394.083V394.627C1042.61 395.694 1042.29 396.227 1041.65 396.227H1029.55ZM1050.96 396.291C1050.52 396.291 1050.29 396.152 1050.29 395.875C1050.29 395.768 1050.34 395.608 1050.45 395.395L1061.88 374.659C1062.05 374.36 1062.24 374.136 1062.45 373.987C1062.66 373.838 1062.94 373.763 1063.28 373.763H1064.69C1065.14 373.763 1065.36 373.912 1065.36 374.211C1065.36 374.254 1065.34 374.318 1065.3 374.403C1065.28 374.467 1065.25 374.552 1065.2 374.659L1053.78 395.395C1053.63 395.672 1053.44 395.896 1053.2 396.067C1052.99 396.216 1052.71 396.291 1052.37 396.291H1050.96ZM1064.02 396.483C1063.27 396.483 1062.53 396.344 1061.78 396.067C1061.05 395.79 1060.45 395.267 1059.96 394.499C1059.46 393.71 1059.22 392.579 1059.22 391.107C1059.22 389.614 1059.46 388.483 1059.96 387.715C1060.45 386.947 1061.05 386.424 1061.78 386.147C1062.53 385.87 1063.27 385.731 1064.02 385.731C1064.77 385.731 1065.5 385.87 1066.23 386.147C1066.97 386.424 1067.59 386.947 1068.08 387.715C1068.57 388.483 1068.82 389.614 1068.82 391.107C1068.82 392.579 1068.57 393.71 1068.08 394.499C1067.59 395.267 1066.97 395.79 1066.23 396.067C1065.5 396.344 1064.77 396.483 1064.02 396.483ZM1064.02 393.859C1064.45 393.859 1064.77 393.72 1064.98 393.443C1065.19 393.144 1065.33 392.782 1065.4 392.355C1065.48 391.928 1065.52 391.512 1065.52 391.107C1065.52 390.68 1065.48 390.275 1065.4 389.891C1065.33 389.486 1065.19 389.155 1064.98 388.899C1064.77 388.622 1064.45 388.483 1064.02 388.483C1063.61 388.483 1063.29 388.622 1063.06 388.899C1062.85 389.155 1062.7 389.486 1062.61 389.891C1062.53 390.275 1062.48 390.68 1062.48 391.107C1062.48 391.512 1062.53 391.928 1062.61 392.355C1062.7 392.782 1062.85 393.144 1063.06 393.443C1063.29 393.72 1063.61 393.859 1064.02 393.859ZM1051.64 384.323C1050.89 384.323 1050.14 384.184 1049.4 383.907C1048.67 383.63 1048.06 383.107 1047.57 382.339C1047.08 381.55 1046.84 380.419 1046.84 378.947C1046.84 377.454 1047.08 376.323 1047.57 375.555C1048.06 374.787 1048.67 374.264 1049.4 373.987C1050.14 373.71 1050.89 373.571 1051.64 373.571C1052.38 373.571 1053.12 373.71 1053.84 373.987C1054.59 374.264 1055.21 374.787 1055.7 375.555C1056.19 376.323 1056.44 377.454 1056.44 378.947C1056.44 380.419 1056.19 381.55 1055.7 382.339C1055.21 383.107 1054.59 383.63 1053.84 383.907C1053.12 384.184 1052.38 384.323 1051.64 384.323ZM1051.64 381.699C1052.06 381.699 1052.38 381.56 1052.6 381.283C1052.81 380.984 1052.95 380.622 1053.01 380.195C1053.1 379.768 1053.14 379.352 1053.14 378.947C1053.14 378.52 1053.1 378.115 1053.01 377.731C1052.95 377.326 1052.81 376.995 1052.6 376.739C1052.38 376.462 1052.06 376.323 1051.64 376.323C1051.23 376.323 1050.91 376.462 1050.68 376.739C1050.46 376.995 1050.31 377.326 1050.23 377.731C1050.14 378.115 1050.1 378.52 1050.1 378.947C1050.1 379.352 1050.14 379.768 1050.23 380.195C1050.31 380.622 1050.46 380.984 1050.68 381.283C1050.91 381.56 1051.23 381.699 1051.64 381.699Z" fill="black"/>
</svg>
