<svg width="1201" height="521" viewBox="0 0 1201 521" fill="none" xmlns="http://www.w3.org/2000/svg">
<rect width="1440" height="21739" transform="translate(-112 -4125)" fill="white"/>
<path d="M859.117 260.5C859.117 319.675 837.813 377.087 798.711 423.285C759.609 469.484 705.04 501.715 643.985 514.676C582.931 527.636 519.03 520.552 462.8 494.589C406.571 468.627 361.364 425.334 334.62 371.835L583.656 260.5H859.117Z" fill="#D9D9D9"/>
<path d="M859.117 260.5C859.117 201.219 837.737 143.711 798.506 97.4736C759.276 51.2363 704.543 19.0356 643.347 6.18968C582.151 -6.65626 518.152 0.620922 461.92 26.8194C405.687 53.0178 360.586 96.5704 334.064 150.284L583.656 260.5H859.117Z" fill="#B0CA97"/>
<path d="M334.094 150.224C316.518 185.797 307.672 224.667 308.218 263.928C308.765 303.19 318.689 341.827 337.25 376.95L583.656 260.5L334.094 150.224Z" fill="#829B69"/>
<path d="M910.536 384.061C911.122 383.475 911.122 382.525 910.536 381.939L900.99 372.393C900.405 371.808 899.455 371.808 898.869 372.393C898.283 372.979 898.283 373.929 898.869 374.515L907.354 383L898.869 391.485C898.283 392.071 898.283 393.021 898.869 393.607C899.455 394.192 900.405 394.192 900.99 393.607L910.536 384.061ZM657.683 384.5H909.476V381.5H657.683V384.5Z" fill="black"/>
<path d="M242.675 100.061C242.089 99.4749 242.089 98.5251 242.675 97.9393L252.221 88.3934C252.807 87.8076 253.756 87.8076 254.342 88.3934C254.928 88.9792 254.928 89.9289 254.342 90.5147L245.857 99L254.342 107.485C254.928 108.071 254.928 109.021 254.342 109.607C253.756 110.192 252.807 110.192 252.221 109.607L242.675 100.061ZM495.528 100.5H243.735V97.5H495.528V100.5Z" fill="black"/>
<path d="M992.569 383.064C991.289 383.064 990.649 382.723 990.649 382.04V378.456H982.265C982.094 378.456 981.913 378.275 981.721 377.912C981.529 377.528 981.369 377.101 981.241 376.632C981.134 376.141 981.081 375.757 981.081 375.48C981.081 375.331 981.102 375.213 981.145 375.128L990.649 361.144C990.841 360.867 991.097 360.696 991.417 360.632C991.737 360.568 992.132 360.536 992.601 360.536H993.465C994.745 360.536 995.385 360.877 995.385 361.56V374.712H996.601C997.241 374.712 997.561 375.245 997.561 376.312V376.856C997.561 377.923 997.241 378.456 996.601 378.456H995.385V382.04C995.385 382.723 994.745 383.064 993.465 383.064H992.569ZM985.849 374.712H990.649V369.784C990.649 369.293 990.681 368.76 990.745 368.184C990.83 367.608 990.916 367.149 991.001 366.808L990.873 366.776L985.849 374.712ZM1001.09 383C1000.94 383 1000.79 382.829 1000.64 382.488C1000.51 382.147 1000.4 381.752 1000.32 381.304C1000.23 380.856 1000.19 380.483 1000.19 380.184C1000.19 379.949 1000.22 379.789 1000.29 379.704L1008.38 369.784C1008.62 369.485 1008.82 369.176 1008.99 368.856C1009.18 368.536 1009.33 368.195 1009.44 367.832C1009.54 367.469 1009.6 367.096 1009.6 366.712C1009.6 365.837 1009.31 365.187 1008.73 364.76C1008.18 364.333 1007.48 364.12 1006.62 364.12C1005.94 364.12 1005.35 364.237 1004.86 364.472C1004.37 364.685 1003.97 364.909 1003.65 365.144C1003.33 365.379 1003.07 365.496 1002.88 365.496C1002.56 365.496 1002.26 365.368 1001.98 365.112C1001.7 364.856 1001.48 364.557 1001.31 364.216C1001.14 363.875 1001.05 363.565 1001.05 363.288C1001.05 362.819 1001.24 362.403 1001.6 362.04C1001.98 361.677 1002.48 361.368 1003.1 361.112C1003.72 360.856 1004.4 360.664 1005.15 360.536C1005.92 360.408 1006.68 360.344 1007.42 360.344C1009.68 360.344 1011.41 360.931 1012.61 362.104C1013.8 363.277 1014.4 364.781 1014.4 366.616C1014.4 367.021 1014.37 367.416 1014.3 367.8C1014.24 368.184 1014.15 368.557 1014.05 368.92C1013.94 369.283 1013.8 369.635 1013.63 369.976C1013.46 370.317 1013.28 370.648 1013.09 370.968C1012.89 371.267 1012.68 371.555 1012.45 371.832L1006.43 379.256H1013.82C1014.46 379.256 1014.78 379.789 1014.78 380.856V381.4C1014.78 382.467 1014.46 383 1013.82 383H1001.09ZM1019.81 383.064C1018.53 383.064 1017.89 382.723 1017.89 382.04V379.096C1017.89 378.413 1018.53 378.072 1019.81 378.072H1020.83C1022.11 378.072 1022.75 378.413 1022.75 379.096V382.04C1022.75 382.723 1022.11 383.064 1020.83 383.064H1019.81ZM1029.16 383.16C1028.8 383.16 1028.5 382.989 1028.27 382.648C1028.03 382.285 1027.85 381.891 1027.72 381.464C1027.62 381.037 1027.56 380.717 1027.56 380.504C1027.56 380.269 1027.58 380.109 1027.63 380.024C1027.69 379.939 1027.81 379.875 1027.98 379.832C1029.56 379.405 1030.98 378.648 1032.23 377.56C1033.49 376.451 1034.39 375.107 1034.92 373.528C1034.3 373.869 1033.73 374.093 1033.19 374.2C1032.68 374.285 1032.19 374.328 1031.72 374.328C1031.13 374.328 1030.46 374.221 1029.74 374.008C1029.03 373.773 1028.35 373.4 1027.69 372.888C1027.03 372.376 1026.49 371.683 1026.06 370.808C1025.63 369.933 1025.42 368.845 1025.42 367.544C1025.42 366.243 1025.63 365.144 1026.06 364.248C1026.51 363.331 1027.09 362.595 1027.82 362.04C1028.54 361.464 1029.35 361.048 1030.25 360.792C1031.15 360.515 1032.04 360.376 1032.94 360.376C1033.83 360.376 1034.73 360.525 1035.63 360.824C1036.52 361.123 1037.33 361.603 1038.06 362.264C1038.81 362.904 1039.39 363.757 1039.82 364.824C1040.27 365.891 1040.49 367.192 1040.49 368.728C1040.49 370.776 1040.22 372.557 1039.69 374.072C1039.18 375.587 1038.51 376.877 1037.67 377.944C1036.84 378.989 1035.95 379.864 1034.99 380.568C1034.05 381.251 1033.14 381.784 1032.27 382.168C1031.41 382.531 1030.7 382.787 1030.12 382.936C1029.57 383.085 1029.25 383.16 1029.16 383.16ZM1033.1 370.584C1033.53 370.584 1033.95 370.509 1034.38 370.36C1034.81 370.211 1035.22 370.029 1035.63 369.816C1035.65 369.581 1035.66 369.347 1035.66 369.112C1035.66 368.856 1035.66 368.6 1035.66 368.344C1035.66 367.277 1035.53 366.445 1035.27 365.848C1035.04 365.229 1034.71 364.792 1034.28 364.536C1033.88 364.259 1033.42 364.12 1032.91 364.12C1032.42 364.12 1031.96 364.259 1031.53 364.536C1031.13 364.813 1030.79 365.197 1030.54 365.688C1030.3 366.179 1030.19 366.755 1030.19 367.416C1030.19 368.056 1030.29 368.621 1030.51 369.112C1030.74 369.581 1031.07 369.944 1031.5 370.2C1031.95 370.456 1032.48 370.584 1033.1 370.584ZM1047.92 383.064C1047.47 383.064 1047.25 382.925 1047.25 382.648C1047.25 382.541 1047.3 382.381 1047.41 382.168L1058.83 361.432C1059 361.133 1059.19 360.909 1059.41 360.76C1059.62 360.611 1059.9 360.536 1060.24 360.536H1061.65C1062.1 360.536 1062.32 360.685 1062.32 360.984C1062.32 361.027 1062.3 361.091 1062.26 361.176C1062.23 361.24 1062.2 361.325 1062.16 361.432L1050.74 382.168C1050.59 382.445 1050.39 382.669 1050.16 382.84C1049.95 382.989 1049.67 383.064 1049.33 383.064H1047.92ZM1060.98 383.256C1060.23 383.256 1059.48 383.117 1058.74 382.84C1058.01 382.563 1057.4 382.04 1056.91 381.272C1056.42 380.483 1056.18 379.352 1056.18 377.88C1056.18 376.387 1056.42 375.256 1056.91 374.488C1057.4 373.72 1058.01 373.197 1058.74 372.92C1059.48 372.643 1060.23 372.504 1060.98 372.504C1061.72 372.504 1062.46 372.643 1063.18 372.92C1063.93 373.197 1064.55 373.72 1065.04 374.488C1065.53 375.256 1065.78 376.387 1065.78 377.88C1065.78 379.352 1065.53 380.483 1065.04 381.272C1064.55 382.04 1063.93 382.563 1063.18 382.84C1062.46 383.117 1061.72 383.256 1060.98 383.256ZM1060.98 380.632C1061.4 380.632 1061.72 380.493 1061.94 380.216C1062.15 379.917 1062.29 379.555 1062.35 379.128C1062.44 378.701 1062.48 378.285 1062.48 377.88C1062.48 377.453 1062.44 377.048 1062.35 376.664C1062.29 376.259 1062.15 375.928 1061.94 375.672C1061.72 375.395 1061.4 375.256 1060.98 375.256C1060.57 375.256 1060.25 375.395 1060.02 375.672C1059.8 375.928 1059.65 376.259 1059.57 376.664C1059.48 377.048 1059.44 377.453 1059.44 377.88C1059.44 378.285 1059.48 378.701 1059.57 379.128C1059.65 379.555 1059.8 379.917 1060.02 380.216C1060.25 380.493 1060.57 380.632 1060.98 380.632ZM1048.59 371.096C1047.84 371.096 1047.1 370.957 1046.35 370.68C1045.63 370.403 1045.02 369.88 1044.53 369.112C1044.04 368.323 1043.79 367.192 1043.79 365.72C1043.79 364.227 1044.04 363.096 1044.53 362.328C1045.02 361.56 1045.63 361.037 1046.35 360.76C1047.1 360.483 1047.84 360.344 1048.59 360.344C1049.34 360.344 1050.07 360.483 1050.8 360.76C1051.55 361.037 1052.16 361.56 1052.66 362.328C1053.15 363.096 1053.39 364.227 1053.39 365.72C1053.39 367.192 1053.15 368.323 1052.66 369.112C1052.16 369.88 1051.55 370.403 1050.8 370.68C1050.07 370.957 1049.34 371.096 1048.59 371.096ZM1048.59 368.472C1049.02 368.472 1049.34 368.333 1049.55 368.056C1049.76 367.757 1049.9 367.395 1049.97 366.968C1050.05 366.541 1050.1 366.125 1050.1 365.72C1050.1 365.293 1050.05 364.888 1049.97 364.504C1049.9 364.099 1049.76 363.768 1049.55 363.512C1049.34 363.235 1049.02 363.096 1048.59 363.096C1048.19 363.096 1047.87 363.235 1047.63 363.512C1047.42 363.768 1047.27 364.099 1047.18 364.504C1047.1 364.888 1047.06 365.293 1047.06 365.72C1047.06 366.125 1047.1 366.541 1047.18 366.968C1047.27 367.395 1047.42 367.757 1047.63 368.056C1047.87 368.333 1048.19 368.472 1048.59 368.472ZM985.369 462.064C984.516 462.064 984.089 461.829 984.089 461.36V440.24C984.089 439.771 984.516 439.536 985.369 439.536H985.625C986.478 439.536 986.905 439.771 986.905 440.24V461.36C986.905 461.829 986.478 462.064 985.625 462.064H985.369ZM998.559 462.192C998.154 462.192 997.717 462.128 997.247 462C996.778 461.893 996.33 461.691 995.903 461.392C995.477 461.072 995.125 460.624 994.847 460.048C994.57 459.451 994.431 458.693 994.431 457.776V447.568H992.831C992.405 447.568 992.191 447.248 992.191 446.608V446.224C992.191 445.584 992.405 445.264 992.831 445.264H994.431L994.815 441.904C994.858 441.435 995.199 441.2 995.839 441.2H996.159C996.799 441.2 997.119 441.435 997.119 441.904V445.264H999.807C1000.23 445.264 1000.45 445.584 1000.45 446.224V446.608C1000.45 447.248 1000.23 447.568 999.807 447.568H997.119V457.52C997.119 458.48 997.29 459.12 997.631 459.44C997.973 459.739 998.378 459.888 998.847 459.888C999.317 459.888 999.626 459.867 999.775 459.824C999.925 459.76 1000.07 459.728 1000.22 459.728C1000.37 459.728 1000.49 459.835 1000.58 460.048C1000.68 460.261 1000.76 460.496 1000.8 460.752C1000.86 460.987 1000.9 461.147 1000.9 461.232C1000.9 461.509 1000.76 461.723 1000.48 461.872C1000.22 462 999.914 462.085 999.551 462.128C999.189 462.171 998.858 462.192 998.559 462.192ZM1017.89 462.288C1016.93 462.288 1016.06 462.171 1015.3 461.936C1014.53 461.701 1013.92 461.424 1013.47 461.104C1013.02 460.784 1012.8 460.507 1012.8 460.272C1012.8 460.144 1012.86 459.952 1012.99 459.696C1013.12 459.44 1013.27 459.205 1013.44 458.992C1013.61 458.779 1013.77 458.672 1013.92 458.672C1014.01 458.672 1014.2 458.779 1014.5 458.992C1014.8 459.205 1015.21 459.419 1015.74 459.632C1016.3 459.845 1016.95 459.952 1017.7 459.952C1019.79 459.952 1020.83 459.163 1020.83 457.584C1020.83 456.731 1020.52 456.112 1019.9 455.728C1019.31 455.323 1018.55 454.971 1017.63 454.672C1016.89 454.416 1016.17 454.117 1015.49 453.776C1014.81 453.413 1014.25 452.912 1013.82 452.272C1013.4 451.632 1013.18 450.768 1013.18 449.68C1013.18 448.784 1013.41 447.984 1013.86 447.28C1014.33 446.576 1014.96 446.032 1015.74 445.648C1016.56 445.243 1017.47 445.04 1018.5 445.04C1019.22 445.04 1019.9 445.104 1020.54 445.232C1021.18 445.36 1021.71 445.531 1022.11 445.744C1022.52 445.957 1022.72 446.181 1022.72 446.416C1022.72 446.587 1022.66 446.811 1022.53 447.088C1022.42 447.365 1022.29 447.611 1022.14 447.824C1022 448.037 1021.85 448.144 1021.7 448.144C1021.61 448.144 1021.32 448.005 1020.83 447.728C1020.34 447.451 1019.66 447.312 1018.78 447.312C1018 447.312 1017.32 447.504 1016.77 447.888C1016.21 448.251 1015.94 448.773 1015.94 449.456C1015.94 450.053 1016.11 450.533 1016.45 450.896C1016.79 451.237 1017.45 451.568 1018.43 451.888C1019.41 452.208 1020.29 452.592 1021.06 453.04C1021.82 453.467 1022.43 454.021 1022.88 454.704C1023.33 455.365 1023.55 456.229 1023.55 457.296C1023.55 458.256 1023.3 459.109 1022.78 459.856C1022.29 460.603 1021.62 461.2 1020.77 461.648C1019.92 462.075 1018.96 462.288 1017.89 462.288ZM1032.77 462.192C1031.21 462.192 1029.91 461.808 1028.87 461.04C1027.82 460.251 1027.3 459.035 1027.3 457.392C1027.3 456.048 1027.62 454.992 1028.26 454.224C1028.9 453.435 1029.74 452.859 1030.79 452.496C1031.83 452.112 1032.97 451.867 1034.21 451.76C1035.47 451.653 1036.71 451.589 1037.92 451.568V450.064C1037.92 449.339 1037.67 448.709 1037.16 448.176C1036.64 447.643 1035.73 447.376 1034.4 447.376C1033.44 447.376 1032.6 447.493 1031.88 447.728C1031.17 447.941 1030.61 448.165 1030.18 448.4C1029.77 448.613 1029.52 448.72 1029.41 448.72C1029.26 448.72 1029.1 448.613 1028.93 448.4C1028.76 448.187 1028.61 447.952 1028.48 447.696C1028.36 447.419 1028.29 447.227 1028.29 447.12C1028.29 446.843 1028.57 446.544 1029.12 446.224C1029.68 445.904 1030.41 445.637 1031.33 445.424C1032.25 445.189 1033.24 445.072 1034.31 445.072C1035.63 445.072 1036.76 445.275 1037.7 445.68C1038.64 446.064 1039.35 446.629 1039.84 447.376C1040.36 448.123 1040.61 449.029 1040.61 450.096V457.264C1040.61 458.139 1040.64 458.864 1040.71 459.44C1040.77 460.016 1040.84 460.453 1040.9 460.752C1040.96 461.051 1041 461.232 1041 461.296C1041 461.445 1040.92 461.573 1040.77 461.68C1040.64 461.765 1040.48 461.84 1040.29 461.904C1040.1 461.947 1039.91 461.979 1039.72 462C1039.52 462.021 1039.37 462.032 1039.27 462.032C1039.01 462.032 1038.81 461.915 1038.66 461.68C1038.53 461.424 1038.42 461.125 1038.34 460.784C1038.28 460.421 1038.21 460.091 1038.15 459.792C1037.74 460.24 1037.27 460.645 1036.74 461.008C1036.21 461.371 1035.61 461.659 1034.95 461.872C1034.31 462.085 1033.58 462.192 1032.77 462.192ZM1032.9 459.856C1034.07 459.856 1035.04 459.632 1035.81 459.184C1036.58 458.736 1037.28 458.224 1037.92 457.648V453.872C1037.09 453.872 1036.23 453.904 1035.33 453.968C1034.44 454.011 1033.59 454.128 1032.8 454.32C1032.01 454.512 1031.37 454.843 1030.88 455.312C1030.41 455.76 1030.18 456.4 1030.18 457.232C1030.18 458.085 1030.4 458.736 1030.85 459.184C1031.32 459.632 1032 459.856 1032.9 459.856ZM1051.33 462.064C1051.01 462.064 1050.73 462.032 1050.5 461.968C1050.26 461.883 1050.11 461.744 1050.05 461.552L1044.9 446.16C1044.88 446.117 1044.85 446.053 1044.83 445.968C1044.81 445.883 1044.8 445.808 1044.8 445.744C1044.8 445.381 1045.26 445.2 1046.18 445.2H1046.34C1046.66 445.2 1046.93 445.243 1047.17 445.328C1047.4 445.392 1047.55 445.52 1047.62 445.712L1050.88 455.92C1051.07 456.56 1051.26 457.253 1051.46 458C1051.65 458.725 1051.81 459.365 1051.94 459.92H1052.06C1052.19 459.365 1052.35 458.704 1052.54 457.936C1052.74 457.147 1052.98 456.304 1053.28 455.408L1056.38 445.712C1056.45 445.52 1056.6 445.392 1056.83 445.328C1057.07 445.243 1057.36 445.2 1057.7 445.2H1057.79C1058.58 445.2 1058.98 445.381 1058.98 445.744C1058.98 445.851 1058.94 446 1058.88 446.192L1053.73 461.552C1053.66 461.744 1053.52 461.883 1053.28 461.968C1053.05 462.032 1052.77 462.064 1052.45 462.064H1051.33ZM1069.91 462.192C1067.26 462.192 1065.29 461.499 1063.99 460.112C1062.71 458.725 1062.07 456.603 1062.07 453.744C1062.07 451.845 1062.34 450.256 1062.9 448.976C1063.48 447.696 1064.32 446.725 1065.43 446.064C1066.54 445.403 1067.9 445.072 1069.52 445.072C1071 445.072 1072.21 445.392 1073.17 446.032C1074.15 446.672 1074.89 447.611 1075.38 448.848C1075.87 450.085 1076.12 451.611 1076.12 453.424C1076.12 453.552 1076.05 453.723 1075.92 453.936C1075.82 454.128 1075.68 454.309 1075.51 454.48C1075.34 454.651 1075.19 454.736 1075.06 454.736H1064.95C1065.08 456.507 1065.53 457.808 1066.32 458.64C1067.11 459.472 1068.3 459.888 1069.88 459.888C1070.81 459.888 1071.6 459.781 1072.24 459.568C1072.9 459.333 1073.43 459.109 1073.81 458.896C1074.2 458.661 1074.44 458.544 1074.55 458.544C1074.7 458.544 1074.86 458.651 1075.03 458.864C1075.2 459.077 1075.35 459.312 1075.48 459.568C1075.6 459.824 1075.67 460.016 1075.67 460.144C1075.67 460.336 1075.52 460.549 1075.22 460.784C1074.92 461.019 1074.5 461.243 1073.97 461.456C1073.46 461.669 1072.85 461.851 1072.15 462C1071.46 462.128 1070.72 462.192 1069.91 462.192ZM1064.95 452.432H1073.27C1073.27 450.747 1072.95 449.488 1072.31 448.656C1071.67 447.803 1070.71 447.376 1069.43 447.376C1068.04 447.376 1066.97 447.803 1066.23 448.656C1065.48 449.488 1065.05 450.747 1064.95 452.432ZM1084.85 462.288C1083.89 462.288 1083.03 462.171 1082.26 461.936C1081.49 461.701 1080.89 461.424 1080.44 461.104C1079.99 460.784 1079.77 460.507 1079.77 460.272C1079.77 460.144 1079.83 459.952 1079.96 459.696C1080.09 459.44 1080.23 459.205 1080.41 458.992C1080.58 458.779 1080.74 458.672 1080.89 458.672C1080.97 458.672 1081.16 458.779 1081.46 458.992C1081.76 459.205 1082.18 459.419 1082.71 459.632C1083.26 459.845 1083.91 459.952 1084.66 459.952C1086.75 459.952 1087.8 459.163 1087.8 457.584C1087.8 456.731 1087.49 456.112 1086.87 455.728C1086.27 455.323 1085.51 454.971 1084.6 454.672C1083.85 454.416 1083.14 454.117 1082.45 453.776C1081.77 453.413 1081.22 452.912 1080.79 452.272C1080.36 451.632 1080.15 450.768 1080.15 449.68C1080.15 448.784 1080.37 447.984 1080.82 447.28C1081.29 446.576 1081.92 446.032 1082.71 445.648C1083.52 445.243 1084.44 445.04 1085.46 445.04C1086.19 445.04 1086.87 445.104 1087.51 445.232C1088.15 445.36 1088.67 445.531 1089.08 445.744C1089.48 445.957 1089.69 446.181 1089.69 446.416C1089.69 446.587 1089.62 446.811 1089.49 447.088C1089.39 447.365 1089.26 447.611 1089.11 447.824C1088.96 448.037 1088.81 448.144 1088.66 448.144C1088.58 448.144 1088.29 448.005 1087.8 447.728C1087.31 447.451 1086.62 447.312 1085.75 447.312C1084.96 447.312 1084.29 447.504 1083.73 447.888C1083.18 448.251 1082.9 448.773 1082.9 449.456C1082.9 450.053 1083.07 450.533 1083.41 450.896C1083.75 451.237 1084.42 451.568 1085.4 451.888C1086.38 452.208 1087.25 452.592 1088.02 453.04C1088.79 453.467 1089.4 454.021 1089.85 454.704C1090.29 455.365 1090.52 456.229 1090.52 457.296C1090.52 458.256 1090.26 459.109 1089.75 459.856C1089.26 460.603 1088.59 461.2 1087.73 461.648C1086.88 462.075 1085.92 462.288 1084.85 462.288ZM1105.34 462.064C1104.49 462.064 1104.06 461.829 1104.06 461.36V450.128C1104.06 449.253 1104.03 448.528 1103.97 447.952C1103.9 447.376 1103.84 446.939 1103.78 446.64C1103.71 446.32 1103.68 446.139 1103.68 446.096C1103.68 445.947 1103.74 445.829 1103.87 445.744C1104.02 445.637 1104.19 445.563 1104.38 445.52C1104.58 445.456 1104.77 445.413 1104.96 445.392C1105.15 445.371 1105.3 445.36 1105.41 445.36C1105.66 445.36 1105.86 445.477 1105.98 445.712C1106.13 445.947 1106.24 446.235 1106.3 446.576C1106.39 446.896 1106.46 447.195 1106.53 447.472C1107.06 446.853 1107.74 446.299 1108.58 445.808C1109.43 445.317 1110.37 445.072 1111.39 445.072C1111.92 445.072 1112.48 445.147 1113.06 445.296C1113.65 445.424 1114.21 445.68 1114.72 446.064C1115.25 446.448 1115.67 447.003 1115.97 447.728C1116.59 447.003 1117.33 446.384 1118.21 445.872C1119.1 445.339 1120.05 445.072 1121.06 445.072C1121.57 445.072 1122.11 445.147 1122.69 445.296C1123.26 445.424 1123.81 445.669 1124.32 446.032C1124.85 446.395 1125.28 446.917 1125.6 447.6C1125.92 448.283 1126.08 449.168 1126.08 450.256V461.36C1126.08 461.829 1125.65 462.064 1124.8 462.064H1124.67C1123.82 462.064 1123.39 461.829 1123.39 461.36V450.512C1123.39 449.573 1123.14 448.827 1122.62 448.272C1122.11 447.696 1121.34 447.408 1120.32 447.408C1119.74 447.408 1119.21 447.525 1118.72 447.76C1118.25 447.995 1117.82 448.272 1117.44 448.592C1117.08 448.891 1116.79 449.168 1116.58 449.424C1116.38 449.68 1116.27 449.829 1116.22 449.872L1116.19 448.784C1116.3 449.019 1116.36 449.275 1116.38 449.552C1116.4 449.808 1116.42 450.053 1116.42 450.288V461.36C1116.42 461.829 1115.99 462.064 1115.14 462.064H1115.01C1114.15 462.064 1113.73 461.829 1113.73 461.36V450.512C1113.73 449.573 1113.47 448.827 1112.96 448.272C1112.45 447.696 1111.68 447.408 1110.66 447.408C1110.08 447.408 1109.55 447.525 1109.06 447.76C1108.59 447.973 1108.17 448.229 1107.81 448.528C1107.47 448.805 1107.2 449.061 1107.01 449.296C1106.84 449.509 1106.75 449.616 1106.75 449.616V461.36C1106.75 461.829 1106.32 462.064 1105.47 462.064H1105.34ZM1138.61 462.192C1136.2 462.192 1134.36 461.467 1133.08 460.016C1131.82 458.565 1131.19 456.464 1131.19 453.712C1131.19 450.939 1131.83 448.805 1133.11 447.312C1134.39 445.819 1136.22 445.072 1138.61 445.072C1140.96 445.072 1142.75 445.819 1143.99 447.312C1145.25 448.784 1145.88 450.917 1145.88 453.712C1145.88 456.485 1145.26 458.597 1144.02 460.048C1142.8 461.477 1141 462.192 1138.61 462.192ZM1138.52 459.888C1140.1 459.888 1141.25 459.387 1141.97 458.384C1142.72 457.36 1143.09 455.781 1143.09 453.648C1143.09 451.515 1142.72 449.936 1141.97 448.912C1141.25 447.888 1140.1 447.376 1138.52 447.376C1136.96 447.376 1135.82 447.888 1135.09 448.912C1134.37 449.915 1134 451.493 1134 453.648C1134 455.781 1134.37 457.36 1135.09 458.384C1135.82 459.387 1136.96 459.888 1138.52 459.888ZM1152.64 462.064C1151.79 462.064 1151.36 461.829 1151.36 461.36V450.128C1151.36 449.253 1151.33 448.528 1151.26 447.952C1151.2 447.376 1151.14 446.939 1151.07 446.64C1151.01 446.32 1150.98 446.139 1150.98 446.096C1150.98 445.947 1151.04 445.829 1151.17 445.744C1151.32 445.637 1151.49 445.563 1151.68 445.52C1151.87 445.456 1152.06 445.413 1152.26 445.392C1152.45 445.371 1152.6 445.36 1152.7 445.36C1152.96 445.36 1153.15 445.477 1153.28 445.712C1153.43 445.947 1153.54 446.235 1153.6 446.576C1153.68 446.896 1153.76 447.195 1153.82 447.472C1154.51 446.725 1155.28 446.139 1156.16 445.712C1157.03 445.285 1157.92 445.072 1158.82 445.072C1160.46 445.072 1161.74 445.531 1162.66 446.448C1163.57 447.365 1164.03 448.635 1164.03 450.256V461.36C1164.03 461.829 1163.6 462.064 1162.75 462.064H1162.62C1161.77 462.064 1161.34 461.829 1161.34 461.36V450.512C1161.34 449.531 1161.06 448.773 1160.48 448.24C1159.92 447.685 1159.12 447.408 1158.08 447.408C1157.35 447.408 1156.63 447.611 1155.9 448.016C1155.2 448.421 1154.58 448.965 1154.05 449.648V461.36C1154.05 461.829 1153.62 462.064 1152.77 462.064H1152.64ZM1176.98 462.192C1174.33 462.192 1172.36 461.499 1171.06 460.112C1169.78 458.725 1169.14 456.603 1169.14 453.744C1169.14 451.845 1169.42 450.256 1169.97 448.976C1170.55 447.696 1171.39 446.725 1172.5 446.064C1173.61 445.403 1174.97 445.072 1176.6 445.072C1178.07 445.072 1179.28 445.392 1180.24 446.032C1181.23 446.672 1181.96 447.611 1182.45 448.848C1182.94 450.085 1183.19 451.611 1183.19 453.424C1183.19 453.552 1183.12 453.723 1183 453.936C1182.89 454.128 1182.75 454.309 1182.58 454.48C1182.41 454.651 1182.26 454.736 1182.13 454.736H1172.02C1172.15 456.507 1172.61 457.808 1173.4 458.64C1174.19 459.472 1175.37 459.888 1176.95 459.888C1177.89 459.888 1178.68 459.781 1179.32 459.568C1179.98 459.333 1180.5 459.109 1180.88 458.896C1181.27 458.661 1181.51 458.544 1181.62 458.544C1181.77 458.544 1181.93 458.651 1182.1 458.864C1182.27 459.077 1182.42 459.312 1182.55 459.568C1182.68 459.824 1182.74 460.016 1182.74 460.144C1182.74 460.336 1182.59 460.549 1182.29 460.784C1181.99 461.019 1181.58 461.243 1181.04 461.456C1180.53 461.669 1179.92 461.851 1179.22 462C1178.54 462.128 1177.79 462.192 1176.98 462.192ZM1172.02 452.432H1180.34C1180.34 450.747 1180.02 449.488 1179.38 448.656C1178.74 447.803 1177.78 447.376 1176.5 447.376C1175.11 447.376 1174.05 447.803 1173.3 448.656C1172.55 449.488 1172.13 450.747 1172.02 452.432ZM1189.76 468.656C1189.05 468.656 1188.7 468.485 1188.7 468.144C1188.7 468.101 1188.7 468.048 1188.7 467.984C1188.72 467.941 1188.78 467.813 1188.86 467.6L1191.97 460.08V462.16L1185.95 446.16C1185.93 446.117 1185.91 446.053 1185.89 445.968C1185.86 445.883 1185.85 445.808 1185.85 445.744C1185.85 445.381 1186.31 445.2 1187.23 445.2H1187.49C1187.81 445.2 1188.08 445.243 1188.32 445.328C1188.55 445.392 1188.7 445.52 1188.77 445.712L1192.03 454.384C1192.22 454.917 1192.4 455.461 1192.57 456.016C1192.74 456.571 1192.9 457.104 1193.05 457.616H1193.12C1193.29 457.125 1193.46 456.592 1193.63 456.016C1193.8 455.419 1193.98 454.875 1194.17 454.384L1197.37 445.712C1197.44 445.52 1197.59 445.392 1197.82 445.328C1198.06 445.243 1198.34 445.2 1198.69 445.2H1198.78C1199.63 445.2 1200.06 445.381 1200.06 445.744C1200.06 445.851 1200.03 446 1199.97 446.192L1191.74 467.984C1191.66 468.219 1191.47 468.389 1191.2 468.496C1190.94 468.603 1190.62 468.656 1190.24 468.656H1189.76Z" fill="black"/>
<path d="M99.2079 110.064C97.9279 110.064 97.2879 109.723 97.2879 109.04V105.456H88.9039C88.7332 105.456 88.5519 105.275 88.3599 104.912C88.1679 104.528 88.0079 104.101 87.8799 103.632C87.7732 103.141 87.7199 102.757 87.7199 102.48C87.7199 102.331 87.7412 102.213 87.7839 102.128L97.2879 88.144C97.4799 87.8667 97.7359 87.696 98.0559 87.632C98.3759 87.568 98.7706 87.536 99.2399 87.536H100.104C101.384 87.536 102.024 87.8773 102.024 88.56V101.712H103.24C103.88 101.712 104.2 102.245 104.2 103.312V103.856C104.2 104.923 103.88 105.456 103.24 105.456H102.024V109.04C102.024 109.723 101.384 110.064 100.104 110.064H99.2079ZM92.4879 101.712H97.2879V96.784C97.2879 96.2933 97.3199 95.76 97.3839 95.184C97.4692 94.608 97.5546 94.1493 97.6399 93.808L97.5119 93.776L92.4879 101.712ZM108.365 110C108.216 110 108.066 109.829 107.917 109.488C107.789 109.147 107.682 108.752 107.597 108.304C107.512 107.856 107.469 107.483 107.469 107.184C107.469 106.949 107.501 106.789 107.565 106.704L115.661 96.784C115.896 96.4853 116.098 96.176 116.269 95.856C116.461 95.536 116.61 95.1947 116.717 94.832C116.824 94.4693 116.877 94.096 116.877 93.712C116.877 92.8373 116.589 92.1867 116.013 91.76C115.458 91.3333 114.754 91.12 113.901 91.12C113.218 91.12 112.632 91.2373 112.141 91.472C111.65 91.6853 111.245 91.9093 110.925 92.144C110.605 92.3787 110.349 92.496 110.157 92.496C109.837 92.496 109.538 92.368 109.261 92.112C108.984 91.856 108.76 91.5573 108.589 91.216C108.418 90.8747 108.333 90.5653 108.333 90.288C108.333 89.8187 108.514 89.4027 108.877 89.04C109.261 88.6773 109.762 88.368 110.381 88.112C111 87.856 111.682 87.664 112.429 87.536C113.197 87.408 113.954 87.344 114.701 87.344C116.962 87.344 118.69 87.9307 119.885 89.104C121.08 90.2773 121.677 91.7813 121.677 93.616C121.677 94.0213 121.645 94.416 121.581 94.8C121.517 95.184 121.432 95.5573 121.325 95.92C121.218 96.2827 121.08 96.6347 120.909 96.976C120.738 97.3173 120.557 97.648 120.365 97.968C120.173 98.2667 119.96 98.5547 119.725 98.832L113.709 106.256H121.101C121.741 106.256 122.061 106.789 122.061 107.856V108.4C122.061 109.467 121.741 110 121.101 110H108.365ZM127.73 110.064C126.45 110.064 125.81 109.723 125.81 109.04V106.096C125.81 105.413 126.45 105.072 127.73 105.072H128.754C130.034 105.072 130.674 105.413 130.674 106.096V109.04C130.674 109.723 130.034 110.064 128.754 110.064H127.73ZM137.722 110.16C137.359 110.16 137.06 109.989 136.826 109.648C136.591 109.285 136.41 108.891 136.282 108.464C136.175 108.037 136.122 107.717 136.122 107.504C136.122 107.269 136.143 107.109 136.186 107.024C136.25 106.939 136.367 106.875 136.538 106.832C138.116 106.405 139.535 105.648 140.794 104.56C142.052 103.451 142.948 102.107 143.482 100.528C142.863 100.869 142.287 101.093 141.754 101.2C141.242 101.285 140.751 101.328 140.282 101.328C139.684 101.328 139.023 101.221 138.298 101.008C137.594 100.773 136.911 100.4 136.25 99.888C135.588 99.376 135.044 98.6827 134.618 97.808C134.191 96.9333 133.978 95.8453 133.978 94.544C133.978 93.2427 134.191 92.144 134.618 91.248C135.066 90.3307 135.652 89.5947 136.378 89.04C137.103 88.464 137.914 88.048 138.81 87.792C139.706 87.5147 140.602 87.376 141.498 87.376C142.394 87.376 143.29 87.5253 144.186 87.824C145.082 88.1227 145.892 88.6027 146.618 89.264C147.364 89.904 147.951 90.7573 148.378 91.824C148.826 92.8907 149.05 94.192 149.05 95.728C149.05 97.776 148.783 99.5573 148.25 101.072C147.738 102.587 147.066 103.877 146.234 104.944C145.402 105.989 144.506 106.864 143.546 107.568C142.607 108.251 141.7 108.784 140.826 109.168C139.972 109.531 139.258 109.787 138.682 109.936C138.127 110.085 137.807 110.16 137.722 110.16ZM141.658 97.584C142.084 97.584 142.511 97.5093 142.938 97.36C143.364 97.2107 143.78 97.0293 144.186 96.816C144.207 96.5813 144.218 96.3467 144.218 96.112C144.218 95.856 144.218 95.6 144.218 95.344C144.218 94.2773 144.09 93.4453 143.834 92.848C143.599 92.2293 143.268 91.792 142.842 91.536C142.436 91.2587 141.978 91.12 141.466 91.12C140.975 91.12 140.516 91.2587 140.09 91.536C139.684 91.8133 139.354 92.1973 139.098 92.688C138.863 93.1787 138.746 93.7547 138.746 94.416C138.746 95.056 138.852 95.6213 139.066 96.112C139.3 96.5813 139.631 96.944 140.058 97.2C140.506 97.456 141.039 97.584 141.658 97.584ZM157.119 110.064C156.671 110.064 156.447 109.925 156.447 109.648C156.447 109.541 156.5 109.381 156.607 109.168L168.031 88.432C168.201 88.1333 168.393 87.9093 168.607 87.76C168.82 87.6107 169.097 87.536 169.439 87.536H170.847C171.295 87.536 171.519 87.6853 171.519 87.984C171.519 88.0267 171.497 88.0907 171.455 88.176C171.433 88.24 171.401 88.3253 171.359 88.432L159.935 109.168C159.785 109.445 159.593 109.669 159.359 109.84C159.145 109.989 158.868 110.064 158.527 110.064H157.119ZM170.175 110.256C169.428 110.256 168.681 110.117 167.935 109.84C167.209 109.563 166.601 109.04 166.111 108.272C165.62 107.483 165.375 106.352 165.375 104.88C165.375 103.387 165.62 102.256 166.111 101.488C166.601 100.72 167.209 100.197 167.935 99.92C168.681 99.6427 169.428 99.504 170.175 99.504C170.921 99.504 171.657 99.6427 172.383 99.92C173.129 100.197 173.748 100.72 174.239 101.488C174.729 102.256 174.975 103.387 174.975 104.88C174.975 106.352 174.729 107.483 174.239 108.272C173.748 109.04 173.129 109.563 172.383 109.84C171.657 110.117 170.921 110.256 170.175 110.256ZM170.175 107.632C170.601 107.632 170.921 107.493 171.135 107.216C171.348 106.917 171.487 106.555 171.551 106.128C171.636 105.701 171.679 105.285 171.679 104.88C171.679 104.453 171.636 104.048 171.551 103.664C171.487 103.259 171.348 102.928 171.135 102.672C170.921 102.395 170.601 102.256 170.175 102.256C169.769 102.256 169.449 102.395 169.215 102.672C169.001 102.928 168.852 103.259 168.767 103.664C168.681 104.048 168.639 104.453 168.639 104.88C168.639 105.285 168.681 105.701 168.767 106.128C168.852 106.555 169.001 106.917 169.215 107.216C169.449 107.493 169.769 107.632 170.175 107.632ZM157.791 98.096C157.044 98.096 156.297 97.9573 155.551 97.68C154.825 97.4027 154.217 96.88 153.727 96.112C153.236 95.3227 152.991 94.192 152.991 92.72C152.991 91.2267 153.236 90.096 153.727 89.328C154.217 88.56 154.825 88.0373 155.551 87.76C156.297 87.4827 157.044 87.344 157.791 87.344C158.537 87.344 159.273 87.4827 159.999 87.76C160.745 88.0373 161.364 88.56 161.855 89.328C162.345 90.096 162.591 91.2267 162.591 92.72C162.591 94.192 162.345 95.3227 161.855 96.112C161.364 96.88 160.745 97.4027 159.999 97.68C159.273 97.9573 158.537 98.096 157.791 98.096ZM157.791 95.472C158.217 95.472 158.537 95.3333 158.751 95.056C158.964 94.7573 159.103 94.3947 159.167 93.968C159.252 93.5413 159.295 93.1253 159.295 92.72C159.295 92.2933 159.252 91.888 159.167 91.504C159.103 91.0987 158.964 90.768 158.751 90.512C158.537 90.2347 158.217 90.096 157.791 90.096C157.385 90.096 157.065 90.2347 156.831 90.512C156.617 90.768 156.468 91.0987 156.383 91.504C156.297 91.888 156.255 92.2933 156.255 92.72C156.255 93.1253 156.297 93.5413 156.383 93.968C156.468 94.3947 156.617 94.7573 156.831 95.056C157.065 95.3333 157.385 95.472 157.791 95.472Z" fill="black"/>
<path d="M4.384 179.064C3.53067 179.064 3.104 178.829 3.104 178.36V157.24C3.104 156.771 3.53067 156.536 4.384 156.536H4.64C5.49333 156.536 5.92 156.771 5.92 157.24V178.36C5.92 178.829 5.49333 179.064 4.64 179.064H4.384ZM18.2145 179.192C17.8092 179.192 17.3718 179.128 16.9025 179C16.4332 178.893 15.9852 178.691 15.5585 178.392C15.1318 178.072 14.7798 177.624 14.5025 177.048C14.2252 176.451 14.0865 175.693 14.0865 174.776V164.568H12.4865C12.0598 164.568 11.8465 164.248 11.8465 163.608V163.224C11.8465 162.584 12.0598 162.264 12.4865 162.264H14.0865L14.4705 158.904C14.5132 158.435 14.8545 158.2 15.4945 158.2H15.8145C16.4545 158.2 16.7745 158.435 16.7745 158.904V162.264H19.4625C19.8892 162.264 20.1025 162.584 20.1025 163.224V163.608C20.1025 164.248 19.8892 164.568 19.4625 164.568H16.7745V174.52C16.7745 175.48 16.9452 176.12 17.2865 176.44C17.6278 176.739 18.0332 176.888 18.5025 176.888C18.9718 176.888 19.2812 176.867 19.4305 176.824C19.5798 176.76 19.7292 176.728 19.8785 176.728C20.0278 176.728 20.1452 176.835 20.2305 177.048C20.3372 177.261 20.4118 177.496 20.4545 177.752C20.5185 177.987 20.5505 178.147 20.5505 178.232C20.5505 178.509 20.4118 178.723 20.1345 178.872C19.8785 179 19.5692 179.085 19.2065 179.128C18.8438 179.171 18.5132 179.192 18.2145 179.192ZM25.152 162.04C24.9813 162.04 24.7787 162.008 24.544 161.944C24.3307 161.88 24.224 161.752 24.224 161.56C24.224 161.453 24.256 161.336 24.32 161.208C24.384 161.059 24.448 160.92 24.512 160.792C24.8747 160.088 25.1413 159.341 25.312 158.552C25.504 157.763 25.6 156.877 25.6 155.896C25.6 155.597 25.7067 155.352 25.92 155.16C26.1333 154.968 26.4533 154.872 26.88 154.872H27.168C27.5733 154.872 27.8827 154.957 28.096 155.128C28.3307 155.277 28.448 155.491 28.448 155.768C28.448 156.728 28.3307 157.592 28.096 158.36C27.8613 159.128 27.5627 159.789 27.2 160.344C26.8373 160.899 26.464 161.325 26.08 161.624C25.7173 161.901 25.408 162.04 25.152 162.04ZM37.9172 179.288C36.9572 179.288 36.0932 179.171 35.3252 178.936C34.5572 178.701 33.9492 178.424 33.5012 178.104C33.0532 177.784 32.8292 177.507 32.8292 177.272C32.8292 177.144 32.8932 176.952 33.0212 176.696C33.1492 176.44 33.2986 176.205 33.4692 175.992C33.6399 175.779 33.7999 175.672 33.9492 175.672C34.0346 175.672 34.2266 175.779 34.5252 175.992C34.8239 176.205 35.2399 176.419 35.7732 176.632C36.3279 176.845 36.9786 176.952 37.7252 176.952C39.8159 176.952 40.8612 176.163 40.8612 174.584C40.8612 173.731 40.5519 173.112 39.9332 172.728C39.3359 172.323 38.5786 171.971 37.6612 171.672C36.9146 171.416 36.1999 171.117 35.5172 170.776C34.8346 170.413 34.2799 169.912 33.8532 169.272C33.4266 168.632 33.2132 167.768 33.2132 166.68C33.2132 165.784 33.4372 164.984 33.8852 164.28C34.3546 163.576 34.9839 163.032 35.7732 162.648C36.5839 162.243 37.5012 162.04 38.5252 162.04C39.2506 162.04 39.9332 162.104 40.5732 162.232C41.2132 162.36 41.7359 162.531 42.1412 162.744C42.5466 162.957 42.7492 163.181 42.7492 163.416C42.7492 163.587 42.6852 163.811 42.5573 164.088C42.4506 164.365 42.3226 164.611 42.1733 164.824C42.0239 165.037 41.8746 165.144 41.7252 165.144C41.6399 165.144 41.3519 165.005 40.8612 164.728C40.3706 164.451 39.6879 164.312 38.8132 164.312C38.0239 164.312 37.3519 164.504 36.7972 164.888C36.2426 165.251 35.9652 165.773 35.9652 166.456C35.9652 167.053 36.1359 167.533 36.4772 167.896C36.8186 168.237 37.4799 168.568 38.4612 168.888C39.4426 169.208 40.3172 169.592 41.0852 170.04C41.8532 170.467 42.4612 171.021 42.9092 171.704C43.3572 172.365 43.5813 173.229 43.5813 174.296C43.5813 175.256 43.3252 176.109 42.8132 176.856C42.3226 177.603 41.6506 178.2 40.7972 178.648C39.9439 179.075 38.9839 179.288 37.9172 179.288ZM66.0668 179.192C65.6615 179.192 65.2242 179.128 64.7548 179C64.2855 178.893 63.8375 178.691 63.4108 178.392C62.9842 178.072 62.6322 177.624 62.3548 177.048C62.0775 176.451 61.9388 175.693 61.9388 174.776V164.568H60.3388C59.9122 164.568 59.6988 164.248 59.6988 163.608V163.224C59.6988 162.584 59.9122 162.264 60.3388 162.264H61.9388L62.3228 158.904C62.3655 158.435 62.7068 158.2 63.3468 158.2H63.6668C64.3068 158.2 64.6268 158.435 64.6268 158.904V162.264H67.3148C67.7415 162.264 67.9548 162.584 67.9548 163.224V163.608C67.9548 164.248 67.7415 164.568 67.3148 164.568H64.6268V174.52C64.6268 175.48 64.7975 176.12 65.1388 176.44C65.4802 176.739 65.8855 176.888 66.3548 176.888C66.8242 176.888 67.1335 176.867 67.2828 176.824C67.4322 176.76 67.5815 176.728 67.7308 176.728C67.8802 176.728 67.9975 176.835 68.0828 177.048C68.1895 177.261 68.2642 177.496 68.3068 177.752C68.3708 177.987 68.4028 178.147 68.4028 178.232C68.4028 178.509 68.2642 178.723 67.9868 178.872C67.7308 179 67.4215 179.085 67.0588 179.128C66.6962 179.171 66.3655 179.192 66.0668 179.192ZM75.2763 179.064C74.423 179.064 73.9963 178.829 73.9963 178.36V155.64C73.9963 155.171 74.423 154.936 75.2763 154.936H75.4043C76.2577 154.936 76.6843 155.171 76.6843 155.64V164.28C77.239 163.725 77.9323 163.224 78.7643 162.776C79.6177 162.307 80.5563 162.072 81.5803 162.072C82.0923 162.072 82.6363 162.147 83.2123 162.296C83.8097 162.424 84.3643 162.669 84.8763 163.032C85.4097 163.395 85.8363 163.917 86.1563 164.6C86.4977 165.283 86.6683 166.168 86.6683 167.256V178.36C86.6683 178.829 86.2417 179.064 85.3883 179.064H85.2603C84.407 179.064 83.9803 178.829 83.9803 178.36V167.512C83.9803 166.573 83.703 165.827 83.1483 165.272C82.615 164.696 81.8043 164.408 80.7163 164.408C80.119 164.408 79.575 164.525 79.0843 164.76C78.5937 164.973 78.167 165.229 77.8043 165.528C77.4417 165.827 77.1643 166.093 76.9723 166.328C76.7803 166.541 76.6843 166.648 76.6843 166.648V178.36C76.6843 178.829 76.2577 179.064 75.4043 179.064H75.2763ZM100.346 179.192C97.7007 179.192 95.7274 178.499 94.4261 177.112C93.1461 175.725 92.5061 173.603 92.5061 170.744C92.5061 168.845 92.7834 167.256 93.3381 165.976C93.9141 164.696 94.7567 163.725 95.8661 163.064C96.9754 162.403 98.3407 162.072 99.9621 162.072C101.434 162.072 102.65 162.392 103.61 163.032C104.591 163.672 105.327 164.611 105.818 165.848C106.309 167.085 106.554 168.611 106.554 170.424C106.554 170.552 106.49 170.723 106.362 170.936C106.255 171.128 106.117 171.309 105.946 171.48C105.775 171.651 105.626 171.736 105.498 171.736H95.3861C95.5141 173.507 95.9727 174.808 96.7621 175.64C97.5514 176.472 98.7354 176.888 100.314 176.888C101.253 176.888 102.042 176.781 102.682 176.568C103.343 176.333 103.866 176.109 104.25 175.896C104.634 175.661 104.879 175.544 104.986 175.544C105.135 175.544 105.295 175.651 105.466 175.864C105.637 176.077 105.786 176.312 105.914 176.568C106.042 176.824 106.106 177.016 106.106 177.144C106.106 177.336 105.957 177.549 105.658 177.784C105.359 178.019 104.943 178.243 104.41 178.456C103.898 178.669 103.29 178.851 102.586 179C101.903 179.128 101.157 179.192 100.346 179.192ZM95.3861 169.432H103.706C103.706 167.747 103.386 166.488 102.746 165.656C102.106 164.803 101.146 164.376 99.8661 164.376C98.4794 164.376 97.4127 164.803 96.6661 165.656C95.9194 166.488 95.4927 167.747 95.3861 169.432ZM125.871 179.064C125.018 179.064 124.591 178.829 124.591 178.36V167.128C124.591 166.253 124.559 165.528 124.495 164.952C124.431 164.376 124.367 163.939 124.303 163.64C124.239 163.32 124.207 163.139 124.207 163.096C124.207 162.947 124.271 162.829 124.399 162.744C124.548 162.637 124.719 162.563 124.911 162.52C125.103 162.456 125.295 162.413 125.487 162.392C125.679 162.371 125.828 162.36 125.935 162.36C126.191 162.36 126.383 162.477 126.511 162.712C126.66 162.947 126.767 163.235 126.831 163.576C126.916 163.896 126.991 164.195 127.055 164.472C127.61 163.704 128.196 163.117 128.815 162.712C129.455 162.285 130.106 162.072 130.767 162.072C131.386 162.072 131.844 162.179 132.143 162.392C132.463 162.584 132.623 162.893 132.623 163.32C132.623 163.512 132.591 163.747 132.527 164.024C132.484 164.301 132.41 164.547 132.303 164.76C132.218 164.952 132.111 165.048 131.983 165.048C131.77 165.048 131.556 164.995 131.343 164.888C131.151 164.76 130.778 164.696 130.223 164.696C129.668 164.696 129.167 164.856 128.719 165.176C128.271 165.496 127.919 165.827 127.663 166.168C127.407 166.488 127.279 166.648 127.279 166.648V178.36C127.279 178.829 126.852 179.064 125.999 179.064H125.871ZM139.222 179.064C138.368 179.064 137.942 178.829 137.942 178.36V162.904C137.942 162.435 138.368 162.2 139.222 162.2H139.35C140.203 162.2 140.63 162.435 140.63 162.904V178.36C140.63 178.829 140.203 179.064 139.35 179.064H139.222ZM139.286 159.96C138.774 159.96 138.411 159.896 138.198 159.768C137.984 159.64 137.878 159.469 137.878 159.256V157.336C137.878 157.123 137.984 156.952 138.198 156.824C138.411 156.696 138.774 156.632 139.286 156.632C139.798 156.632 140.16 156.696 140.374 156.824C140.587 156.931 140.694 157.101 140.694 157.336V159.256C140.694 159.469 140.587 159.64 140.374 159.768C140.16 159.896 139.798 159.96 139.286 159.96ZM153.194 185.784C151.936 185.784 150.816 185.645 149.834 185.368C148.853 185.112 148.085 184.675 147.53 184.056C146.976 183.437 146.698 182.616 146.698 181.592C146.698 180.653 146.965 179.832 147.498 179.128C148.032 178.424 148.693 177.901 149.482 177.56L149.514 177.496C149.152 177.197 148.853 176.835 148.618 176.408C148.405 175.981 148.298 175.469 148.298 174.872C148.298 174.189 148.448 173.603 148.746 173.112C149.045 172.6 149.472 172.163 150.026 171.8C149.109 171.352 148.416 170.733 147.946 169.944C147.498 169.133 147.274 168.248 147.274 167.288C147.274 166.307 147.509 165.432 147.978 164.664C148.469 163.875 149.184 163.245 150.122 162.776C151.061 162.307 152.213 162.072 153.578 162.072C153.92 162.072 154.25 162.093 154.57 162.136C154.89 162.157 155.189 162.2 155.466 162.264H161.29C161.717 162.264 161.93 162.584 161.93 163.224V163.608C161.93 164.248 161.717 164.568 161.29 164.568C161.034 164.568 160.65 164.547 160.138 164.504C159.626 164.461 159.189 164.408 158.826 164.344L158.794 164.408C159.221 164.877 159.498 165.336 159.626 165.784C159.776 166.232 159.85 166.733 159.85 167.288C159.85 168.269 159.605 169.155 159.114 169.944C158.645 170.733 157.941 171.363 157.002 171.832C156.085 172.301 154.933 172.536 153.546 172.536C152.629 172.536 151.914 172.685 151.402 172.984C150.912 173.283 150.666 173.784 150.666 174.488C150.666 175.128 150.912 175.597 151.402 175.896C151.893 176.173 152.512 176.365 153.258 176.472C154.026 176.557 154.826 176.653 155.658 176.76C156.618 176.867 157.482 177.069 158.25 177.368C159.04 177.645 159.658 178.072 160.106 178.648C160.576 179.203 160.81 179.971 160.81 180.952C160.81 181.976 160.522 182.84 159.946 183.544C159.392 184.269 158.549 184.824 157.418 185.208C156.288 185.592 154.88 185.784 153.194 185.784ZM153.546 183.576C155.146 183.576 156.33 183.373 157.098 182.968C157.866 182.584 158.25 181.965 158.25 181.112C158.25 180.472 157.994 180.003 157.482 179.704C156.992 179.405 156.362 179.192 155.594 179.064C154.826 178.957 154.037 178.872 153.226 178.808C152.416 178.723 151.701 178.584 151.082 178.392C150.57 178.627 150.122 178.957 149.738 179.384C149.376 179.811 149.194 180.376 149.194 181.08C149.194 181.976 149.525 182.616 150.186 183C150.869 183.384 151.989 183.576 153.546 183.576ZM153.546 170.296C154.57 170.296 155.445 170.083 156.17 169.656C156.917 169.229 157.29 168.451 157.29 167.32C157.29 166.168 156.917 165.379 156.17 164.952C155.445 164.525 154.57 164.312 153.546 164.312C152.522 164.312 151.648 164.525 150.922 164.952C150.197 165.379 149.834 166.168 149.834 167.32C149.834 168.451 150.197 169.229 150.922 169.656C151.648 170.083 152.522 170.296 153.546 170.296ZM168.391 179.064C167.538 179.064 167.111 178.829 167.111 178.36V155.64C167.111 155.171 167.538 154.936 168.391 154.936H168.519C169.372 154.936 169.799 155.171 169.799 155.64V164.28C170.354 163.725 171.047 163.224 171.879 162.776C172.732 162.307 173.671 162.072 174.695 162.072C175.207 162.072 175.751 162.147 176.327 162.296C176.924 162.424 177.479 162.669 177.991 163.032C178.524 163.395 178.951 163.917 179.271 164.6C179.612 165.283 179.783 166.168 179.783 167.256V178.36C179.783 178.829 179.356 179.064 178.503 179.064H178.375C177.522 179.064 177.095 178.829 177.095 178.36V167.512C177.095 166.573 176.818 165.827 176.263 165.272C175.73 164.696 174.919 164.408 173.831 164.408C173.234 164.408 172.69 164.525 172.199 164.76C171.708 164.973 171.282 165.229 170.919 165.528C170.556 165.827 170.279 166.093 170.087 166.328C169.895 166.541 169.799 166.648 169.799 166.648V178.36C169.799 178.829 169.372 179.064 168.519 179.064H168.391ZM191.413 179.192C191.008 179.192 190.57 179.128 190.101 179C189.632 178.893 189.184 178.691 188.757 178.392C188.33 178.072 187.978 177.624 187.701 177.048C187.424 176.451 187.285 175.693 187.285 174.776V164.568H185.685C185.258 164.568 185.045 164.248 185.045 163.608V163.224C185.045 162.584 185.258 162.264 185.685 162.264H187.285L187.669 158.904C187.712 158.435 188.053 158.2 188.693 158.2H189.013C189.653 158.2 189.973 158.435 189.973 158.904V162.264H192.661C193.088 162.264 193.301 162.584 193.301 163.224V163.608C193.301 164.248 193.088 164.568 192.661 164.568H189.973V174.52C189.973 175.48 190.144 176.12 190.485 176.44C190.826 176.739 191.232 176.888 191.701 176.888C192.17 176.888 192.48 176.867 192.629 176.824C192.778 176.76 192.928 176.728 193.077 176.728C193.226 176.728 193.344 176.835 193.429 177.048C193.536 177.261 193.61 177.496 193.653 177.752C193.717 177.987 193.749 178.147 193.749 178.232C193.749 178.509 193.61 178.723 193.333 178.872C193.077 179 192.768 179.085 192.405 179.128C192.042 179.171 191.712 179.192 191.413 179.192ZM7.552 230.192C7.14667 230.192 6.70933 230.128 6.24 230C5.77067 229.893 5.32267 229.691 4.896 229.392C4.46933 229.072 4.11733 228.624 3.84 228.048C3.56267 227.451 3.424 226.693 3.424 225.776V215.568H1.824C1.39733 215.568 1.184 215.248 1.184 214.608V214.224C1.184 213.584 1.39733 213.264 1.824 213.264H3.424L3.808 209.904C3.85067 209.435 4.192 209.2 4.832 209.2H5.152C5.792 209.2 6.112 209.435 6.112 209.904V213.264H8.8C9.22667 213.264 9.44 213.584 9.44 214.224V214.608C9.44 215.248 9.22667 215.568 8.8 215.568H6.112V225.52C6.112 226.48 6.28267 227.12 6.624 227.44C6.96533 227.739 7.37067 227.888 7.84 227.888C8.30933 227.888 8.61867 227.867 8.768 227.824C8.91733 227.76 9.06667 227.728 9.216 227.728C9.36533 227.728 9.48267 227.835 9.568 228.048C9.67467 228.261 9.74933 228.496 9.792 228.752C9.856 228.987 9.888 229.147 9.888 229.232C9.888 229.509 9.74933 229.723 9.472 229.872C9.216 230 8.90667 230.085 8.544 230.128C8.18133 230.171 7.85067 230.192 7.552 230.192ZM16.7615 230.064C15.9082 230.064 15.4815 229.829 15.4815 229.36V206.64C15.4815 206.171 15.9082 205.936 16.7615 205.936H16.8895C17.7428 205.936 18.1695 206.171 18.1695 206.64V215.28C18.7242 214.725 19.4175 214.224 20.2495 213.776C21.1028 213.307 22.0415 213.072 23.0655 213.072C23.5775 213.072 24.1215 213.147 24.6975 213.296C25.2948 213.424 25.8495 213.669 26.3615 214.032C26.8948 214.395 27.3215 214.917 27.6415 215.6C27.9828 216.283 28.1535 217.168 28.1535 218.256V229.36C28.1535 229.829 27.7268 230.064 26.8735 230.064H26.7455C25.8922 230.064 25.4655 229.829 25.4655 229.36V218.512C25.4655 217.573 25.1882 216.827 24.6335 216.272C24.1002 215.696 23.2895 215.408 22.2015 215.408C21.6042 215.408 21.0602 215.525 20.5695 215.76C20.0788 215.973 19.6522 216.229 19.2895 216.528C18.9268 216.827 18.6495 217.093 18.4575 217.328C18.2655 217.541 18.1695 217.648 18.1695 217.648V229.36C18.1695 229.829 17.7428 230.064 16.8895 230.064H16.7615ZM36.4233 230.064C35.5699 230.064 35.1433 229.829 35.1433 229.36V213.904C35.1433 213.435 35.5699 213.2 36.4233 213.2H36.5513C37.4046 213.2 37.8313 213.435 37.8313 213.904V229.36C37.8313 229.829 37.4046 230.064 36.5513 230.064H36.4233ZM36.4873 210.96C35.9753 210.96 35.6126 210.896 35.3993 210.768C35.1859 210.64 35.0793 210.469 35.0793 210.256V208.336C35.0793 208.123 35.1859 207.952 35.3993 207.824C35.6126 207.696 35.9753 207.632 36.4873 207.632C36.9993 207.632 37.3619 207.696 37.5753 207.824C37.7886 207.931 37.8953 208.101 37.8953 208.336V210.256C37.8953 210.469 37.7886 210.64 37.5753 210.768C37.3619 210.896 36.9993 210.96 36.4873 210.96ZM46.332 230.064C45.4787 230.064 45.052 229.829 45.052 229.36V218.128C45.052 217.253 45.02 216.528 44.956 215.952C44.892 215.376 44.828 214.939 44.764 214.64C44.7 214.32 44.668 214.139 44.668 214.096C44.668 213.947 44.732 213.829 44.86 213.744C45.0093 213.637 45.18 213.563 45.372 213.52C45.564 213.456 45.756 213.413 45.948 213.392C46.14 213.371 46.2893 213.36 46.396 213.36C46.652 213.36 46.844 213.477 46.972 213.712C47.1213 213.947 47.228 214.235 47.292 214.576C47.3773 214.896 47.452 215.195 47.516 215.472C48.1987 214.725 48.9773 214.139 49.852 213.712C50.7267 213.285 51.612 213.072 52.508 213.072C54.1507 213.072 55.4307 213.531 56.348 214.448C57.2653 215.365 57.724 216.635 57.724 218.256V229.36C57.724 229.829 57.2973 230.064 56.444 230.064H56.316C55.4627 230.064 55.036 229.829 55.036 229.36V218.512C55.036 217.531 54.748 216.773 54.172 216.24C53.6173 215.685 52.8173 215.408 51.772 215.408C51.0467 215.408 50.3213 215.611 49.596 216.016C48.892 216.421 48.2733 216.965 47.74 217.648V229.36C47.74 229.829 47.3133 230.064 46.46 230.064H46.332ZM69.8085 236.784C68.5498 236.784 67.4298 236.645 66.4485 236.368C65.4672 236.112 64.6992 235.675 64.1445 235.056C63.5898 234.437 63.3125 233.616 63.3125 232.592C63.3125 231.653 63.5792 230.832 64.1125 230.128C64.6458 229.424 65.3072 228.901 66.0965 228.56L66.1285 228.496C65.7658 228.197 65.4672 227.835 65.2325 227.408C65.0192 226.981 64.9125 226.469 64.9125 225.872C64.9125 225.189 65.0618 224.603 65.3605 224.112C65.6592 223.6 66.0858 223.163 66.6405 222.8C65.7232 222.352 65.0298 221.733 64.5605 220.944C64.1125 220.133 63.8885 219.248 63.8885 218.288C63.8885 217.307 64.1232 216.432 64.5925 215.664C65.0832 214.875 65.7978 214.245 66.7365 213.776C67.6752 213.307 68.8272 213.072 70.1925 213.072C70.5338 213.072 70.8645 213.093 71.1845 213.136C71.5045 213.157 71.8032 213.2 72.0805 213.264H77.9045C78.3312 213.264 78.5445 213.584 78.5445 214.224V214.608C78.5445 215.248 78.3312 215.568 77.9045 215.568C77.6485 215.568 77.2645 215.547 76.7525 215.504C76.2405 215.461 75.8032 215.408 75.4405 215.344L75.4085 215.408C75.8352 215.877 76.1125 216.336 76.2405 216.784C76.3898 217.232 76.4645 217.733 76.4645 218.288C76.4645 219.269 76.2192 220.155 75.7285 220.944C75.2592 221.733 74.5552 222.363 73.6165 222.832C72.6992 223.301 71.5472 223.536 70.1605 223.536C69.2432 223.536 68.5285 223.685 68.0165 223.984C67.5258 224.283 67.2805 224.784 67.2805 225.488C67.2805 226.128 67.5258 226.597 68.0165 226.896C68.5072 227.173 69.1258 227.365 69.8725 227.472C70.6405 227.557 71.4405 227.653 72.2725 227.76C73.2325 227.867 74.0965 228.069 74.8645 228.368C75.6538 228.645 76.2725 229.072 76.7205 229.648C77.1898 230.203 77.4245 230.971 77.4245 231.952C77.4245 232.976 77.1365 233.84 76.5605 234.544C76.0058 235.269 75.1632 235.824 74.0325 236.208C72.9018 236.592 71.4938 236.784 69.8085 236.784ZM70.1605 234.576C71.7605 234.576 72.9445 234.373 73.7125 233.968C74.4805 233.584 74.8645 232.965 74.8645 232.112C74.8645 231.472 74.6085 231.003 74.0965 230.704C73.6058 230.405 72.9765 230.192 72.2085 230.064C71.4405 229.957 70.6512 229.872 69.8405 229.808C69.0298 229.723 68.3152 229.584 67.6965 229.392C67.1845 229.627 66.7365 229.957 66.3525 230.384C65.9898 230.811 65.8085 231.376 65.8085 232.08C65.8085 232.976 66.1392 233.616 66.8005 234C67.4832 234.384 68.6032 234.576 70.1605 234.576ZM70.1605 221.296C71.1845 221.296 72.0592 221.083 72.7845 220.656C73.5312 220.229 73.9045 219.451 73.9045 218.32C73.9045 217.168 73.5312 216.379 72.7845 215.952C72.0592 215.525 71.1845 215.312 70.1605 215.312C69.1365 215.312 68.2618 215.525 67.5365 215.952C66.8112 216.379 66.4485 217.168 66.4485 218.32C66.4485 219.451 66.8112 220.229 67.5365 220.656C68.2618 221.083 69.1365 221.296 70.1605 221.296ZM97.6207 230.192C97.2154 230.192 96.7781 230.128 96.3087 230C95.8394 229.893 95.3914 229.691 94.9647 229.392C94.5381 229.072 94.1861 228.624 93.9087 228.048C93.6314 227.451 93.4927 226.693 93.4927 225.776V215.568H91.8927C91.4661 215.568 91.2527 215.248 91.2527 214.608V214.224C91.2527 213.584 91.4661 213.264 91.8927 213.264H93.4927L93.8767 209.904C93.9194 209.435 94.2607 209.2 94.9007 209.2H95.2207C95.8607 209.2 96.1807 209.435 96.1807 209.904V213.264H98.8687C99.2954 213.264 99.5087 213.584 99.5087 214.224V214.608C99.5087 215.248 99.2954 215.568 98.8687 215.568H96.1807V225.52C96.1807 226.48 96.3514 227.12 96.6927 227.44C97.0341 227.739 97.4394 227.888 97.9087 227.888C98.3781 227.888 98.6874 227.867 98.8367 227.824C98.9861 227.76 99.1354 227.728 99.2847 227.728C99.4341 227.728 99.5514 227.835 99.6367 228.048C99.7434 228.261 99.8181 228.496 99.8607 228.752C99.9247 228.987 99.9567 229.147 99.9567 229.232C99.9567 229.509 99.8181 229.723 99.5407 229.872C99.2847 230 98.9754 230.085 98.6127 230.128C98.2501 230.171 97.9194 230.192 97.6207 230.192ZM111.79 230.192C109.38 230.192 107.534 229.467 106.254 228.016C104.996 226.565 104.366 224.464 104.366 221.712C104.366 218.939 105.006 216.805 106.286 215.312C107.566 213.819 109.401 213.072 111.79 213.072C114.137 213.072 115.929 213.819 117.166 215.312C118.425 216.784 119.054 218.917 119.054 221.712C119.054 224.485 118.436 226.597 117.198 228.048C115.982 229.477 114.18 230.192 111.79 230.192ZM111.694 227.888C113.273 227.888 114.425 227.387 115.15 226.384C115.897 225.36 116.27 223.781 116.27 221.648C116.27 219.515 115.897 217.936 115.15 216.912C114.425 215.888 113.273 215.376 111.694 215.376C110.137 215.376 108.996 215.888 108.27 216.912C107.545 217.915 107.182 219.493 107.182 221.648C107.182 223.781 107.545 225.36 108.27 226.384C108.996 227.387 110.137 227.888 111.694 227.888ZM139.584 230.192C138.304 230.192 137.195 229.829 136.256 229.104C135.339 228.357 134.624 227.344 134.112 226.064C133.622 224.763 133.376 223.291 133.376 221.648C133.376 218.853 133.984 216.731 135.2 215.28C136.416 213.808 137.974 213.072 139.872 213.072C140.875 213.072 141.728 213.221 142.432 213.52C143.158 213.819 143.83 214.213 144.448 214.704V206.64C144.448 206.171 144.875 205.936 145.728 205.936H145.856C146.71 205.936 147.136 206.171 147.136 206.64V225.264C147.136 226.139 147.168 226.864 147.232 227.44C147.296 228.016 147.36 228.453 147.424 228.752C147.488 229.051 147.52 229.232 147.52 229.296C147.52 229.445 147.446 229.573 147.296 229.68C147.168 229.765 147.008 229.84 146.816 229.904C146.624 229.947 146.432 229.979 146.24 230C146.048 230.021 145.899 230.032 145.792 230.032C145.536 230.032 145.334 229.915 145.184 229.68C145.056 229.424 144.95 229.125 144.864 228.784C144.8 228.421 144.736 228.091 144.672 227.792C143.883 228.603 143.062 229.211 142.208 229.616C141.376 230 140.502 230.192 139.584 230.192ZM140.128 227.856C140.832 227.856 141.558 227.675 142.304 227.312C143.072 226.928 143.787 226.373 144.448 225.648V216.88C143.872 216.389 143.254 216.027 142.592 215.792C141.931 215.557 141.238 215.44 140.512 215.44C139.083 215.44 138.006 215.963 137.28 217.008C136.555 218.032 136.192 219.493 136.192 221.392C136.192 223.461 136.534 225.061 137.216 226.192C137.899 227.301 138.87 227.856 140.128 227.856ZM160.59 230.192C158.18 230.192 156.334 229.467 155.054 228.016C153.796 226.565 153.166 224.464 153.166 221.712C153.166 218.939 153.806 216.805 155.086 215.312C156.366 213.819 158.201 213.072 160.59 213.072C162.937 213.072 164.729 213.819 165.966 215.312C167.225 216.784 167.854 218.917 167.854 221.712C167.854 224.485 167.236 226.597 165.998 228.048C164.782 229.477 162.98 230.192 160.59 230.192ZM160.494 227.888C162.073 227.888 163.225 227.387 163.95 226.384C164.697 225.36 165.07 223.781 165.07 221.648C165.07 219.515 164.697 217.936 163.95 216.912C163.225 215.888 162.073 215.376 160.494 215.376C158.937 215.376 157.796 215.888 157.07 216.912C156.345 217.915 155.982 219.493 155.982 221.648C155.982 223.781 156.345 225.36 157.07 226.384C157.796 227.387 158.937 227.888 160.494 227.888Z" fill="black"/>
</svg>
